<?xml version="1.0" encoding="UTF-8"?>
<svg id="Layer_1" data-name="Layer 1" xmlns="http://www.w3.org/2000/svg" version="1.1" viewBox="0 0 439.9 148.8">
  <defs>
    <style>
      .cls-1 {
        fill: #46802d;
      }

      .cls-1, .cls-2, .cls-3, .cls-4 {
        stroke-width: 0px;
      }

      .cls-2 {
        fill: #aa0e10;
      }

      .cls-3 {
        fill: #3953a4;
      }

      .cls-4 {
        fill: #231f20;
      }
    </style>
  </defs>
  <path class="cls-1" d="M203.3,107.3l11.7-21.1c.8-1.3,2.3-2.1,3.9-2.1h5.4c0,.1.4.1.4.1,1.6,0,3.2.9,4,2.3l11.8,21.2c1.7,3-.5,6.7-4,6.7h-1.1l-28.2-.2c-3.6,0-5.7-3.9-3.8-7Z"/>
  <path class="cls-3" d="M250.4,107.3l11.7-21.1c.8-1.3,2.3-2.1,3.9-2.1h5.4c0,.1.4.1.4.1,1.6,0,3.2.9,4,2.3l11.8,21.2c1.7,3-.5,6.7-4,6.7h-1.1l-28.2-.2c-3.6,0-5.7-3.9-3.8-6.9h0Z"/>
  <path class="cls-4" d="M66.4,124.2c-14.3,0-27.8-5.4-38-15.2-10.3-10-16-23.3-16-37.5s5.7-27.5,16-37.5c10.2-9.8,23.7-15.2,38-15.2h41.5c2.4,0,4.3,1.9,4.3,4.3v8.7c0,2.4-1.9,4.3-4.3,4.3h-46.5c0,0-.2,0-.3,0-18.1,2.5-31.8,17.8-31.8,35.5s13.7,32.9,31.8,35.5c0,0,.2,0,.3,0h31.6c1.1,0,1.9-.9,1.9-1.9v-26.6c0-1.1-.9-1.9-1.9-1.9h-24.3c-1.7,0-3.2-1-3.9-2.5l-4-8.7c-.6-1.3-.5-2.9.3-4.1s2.1-2,3.6-2h43.2c2.4,0,4.3,1.9,4.3,4.3v56.4c0,2.4-1.9,4.3-4.3,4.3h-41.5,0Z"/>
  <path class="cls-4" d="M107.9,19.9c1.7,0,3.1,1.4,3.1,3.1v8.7c0,1.7-1.4,3.1-3.1,3.1h-46.5c-.2,0-.3,0-.5,0-18.5,2.6-32.8,18-32.8,36.6s14.3,34,32.8,36.6c.2,0,.3,0,.5,0h31.6c1.7,0,3.1-1.4,3.1-3.1v-26.6c0-1.7-1.4-3.1-3.1-3.1h-24.3c-1.2,0-2.3-.7-2.8-1.8l-4-8.7c-1-2.1.5-4.4,2.8-4.4h43.2c1.7,0,3.1,1.4,3.1,3.1v56.4c0,1.7-1.4,3.1-3.1,3.1h-41.5c-14.5,0-27.6-5.7-37.2-14.9h0c-9.7-9.3-15.7-22.3-15.7-36.6s6-27.3,15.7-36.6h0c9.5-9.2,22.7-14.9,37.2-14.9h41.5M107.9,17.6h-41.5c-14.6,0-28.4,5.5-38.8,15.5-10.6,10.2-16.4,23.8-16.4,38.3s5.8,28.1,16.4,38.3c10.4,10,24.1,15.6,38.8,15.6h41.5c3,0,5.4-2.4,5.4-5.4v-56.4c0-3-2.4-5.4-5.4-5.4h-43.2c-1.9,0-3.6.9-4.6,2.5-1,1.6-1.1,3.5-.4,5.2l4,8.7c.9,1.9,2.8,3.2,4.9,3.2h24.3c.4,0,.8.3.8.8v26.6c0,.4-.3.8-.8.8h-31.7c-17.6-2.4-30.8-17.2-30.8-34.3s13.2-31.9,30.8-34.3h46.6c3,0,5.4-2.4,5.4-5.4v-8.7c0-3-2.4-5.4-5.4-5.4h0Z"/>
  <path class="cls-1" d="M278,125.3h-20c-1.4,0-2.6-.7-3.3-1.9v-.3c-.1,0-21.5-38.7-21.5-38.7l-10.5-18.9-.4-.8-14.3-25.7h0c0,0,1.1-2.2,1.1-2.2l9.3-16.7c0,0,0-.2.1-.2h0c.6-1.4,1.9-2.2,3.4-2.2h.6c1.5,0,2.8.9,3.4,2.2h0c0,.1,0,.2.1.3l9.3,16.7,45.5,82.1.4.8c1.4,2.5-.4,5.6-3.3,5.6h0Z"/>
  <path class="cls-3" d="M324.8,125.3h-20c-1.4,0-2.6-.7-3.3-1.9v-.3c-.1,0-21.5-38.7-21.5-38.7l-10.5-18.9-.4-.8-14.3-25.7h0c0,0,1.1-2.2,1.1-2.2l9.3-16.7c0,0,0-.2.1-.2h0c.6-1.4,1.9-2.2,3.4-2.2h.6c1.5,0,2.8.9,3.4,2.2h0c0,.1,0,.2.1.3l9.3,16.7,45.5,82.1.4.8c1.4,2.5-.4,5.6-3.3,5.6h0Z"/>
  <path class="cls-4" d="M427.7,92.7c0,5.6-1.4,11-4.1,15.8-5.8,10.4-16.7,16.8-28.5,16.8s-2.5,0-3.7-.2c-1.2.1-2.5.2-3.7.2h-52.6c-2.2,0-4.1-1.8-4.1-4.1v-57.4c0-2.2,1.8-4.1,4.1-4.1h54.5c0,0,.1,0,.2,0,4.5-1,7.8-4.9,7.8-9.6s-3-8.2-7.1-9.4c0,0-.2,0-.2,0h-36.3s-18.8,0-18.8,0c-2.2,0-4.1-1.8-4.1-4.1v-15.1c0-2.2,1.8-4.1,4.1-4.1h53.1c11.8,0,22.5,6.5,28.1,16.9h0c2.7,4.8,4.1,10.3,4.1,15.8s-1.4,11.1-4.1,15.9c0,0,0,.2-.1.2h0c-.2.3-.3.6-.5.9.4.3.8.7,1.2,1,2.8,2.4,5.1,5.3,6.9,8.5,2.7,4.8,4.1,10.3,4.1,15.9h0ZM357.9,102.2h39.5c0,0,.2,0,.2,0,4.2-1.2,7.2-5,7.2-9.5s-3.1-8.5-7.5-9.5c0,0-.1,0-.2,0h-39.3c-2.2,0-4.1,1.8-4.1,4.1v10.9c0,2.2,1.8,4.1,4.1,4.1h0Z"/>
  <path class="cls-2" d="M155.4,61.2l10,18c.6,1.1.6,2.5,0,3.6l-22.2,40.2v.3c-.8,1.2-2.1,1.9-3.4,1.9h-20c-2.9,0-4.7-3.1-3.3-5.6l.4-.8,31.9-57.7c1.4-2.6,5.1-2.6,6.6,0h0ZM231.2,125.3h-20c-1.4,0-2.6-.7-3.3-1.9v-.3c-.1,0-21.5-38.7-21.5-38.7l-10.5-18.9-.4-.8-14.3-25.7h0c0,0,1.1-2.2,1.1-2.2l9.3-16.7c0,0,0-.2.1-.2h0c.6-1.4,1.9-2.2,3.4-2.2h.6c1.5,0,2.8.9,3.4,2.2h0c0,.1,0,.2.1.3l9.3,16.7,45.5,82.1.4.8c1.4,2.5-.4,5.6-3.3,5.6h0Z"/>
  <path class="cls-2" d="M156.9,107.3l11.7-21.1c.8-1.3,2.3-2.1,3.9-2.1h5.4c0,.1.4.1.4.1,1.6,0,3.2.9,4,2.3l11.8,21.2c1.7,3-.5,6.7-4,6.7h-1.1l-28.2-.2c-3.6,0-5.7-3.9-3.8-7Z"/>
</svg>