<?xml version="1.0" encoding="UTF-8"?>
<svg id="Layer_1" data-name="Layer 1" xmlns="http://www.w3.org/2000/svg" version="1.1" viewBox="0 0 439.9 148.83">
  <defs>
    <style>
      .cls-1 {
        fill: #6abd45;
      }

      .cls-1, .cls-2, .cls-3, .cls-4 {
        stroke-width: 0px;
      }

      .cls-2 {
        fill: #231f20;
      }

      .cls-3 {
        fill: #ed2024;
      }

      .cls-4 {
        fill: #3953a4;
      }
    </style>
  </defs>
  <path class="cls-1" d="M203.28,107.32l11.73-21.14c.83-1.33,2.29-2.13,3.86-2.13l5.41.12h.37c1.65,0,3.17.9,3.96,2.35l11.75,21.21c1.67,3.03-.53,6.73-3.98,6.73h-1.07s-28.19-.19-28.19-.19c-3.56,0-5.73-3.93-3.84-6.95Z"/>
  <path class="cls-4" d="M250.42,107.32l11.73-21.14c.83-1.33,2.29-2.13,3.86-2.13l5.41.12h.37c1.65,0,3.17.9,3.96,2.35l11.75,21.21c1.67,3.03-.53,6.73-3.98,6.73h-1.07s-28.19-.19-28.19-.19c-3.56,0-5.73-3.93-3.84-6.95Z"/>
  <g>
    <g>
      <path class="cls-2" d="M66.45,124.16c-14.31,0-27.79-5.41-37.96-15.23-10.34-9.97-16.04-23.29-16.04-37.48s5.7-27.51,16.04-37.48c10.17-9.82,23.65-15.23,37.96-15.23h41.49c2.36,0,4.28,1.92,4.28,4.28v8.68c0,2.36-1.92,4.28-4.28,4.28h-46.49c-.1,0-.2,0-.3.02-18.14,2.52-31.81,17.76-31.81,35.46s13.68,32.94,31.81,35.46c.1.01.2.02.3.02h31.59c1.07,0,1.94-.87,1.94-1.94v-26.61c0-1.07-.87-1.94-1.94-1.94h-24.34c-1.66,0-3.19-.97-3.88-2.48l-4.01-8.68c-.61-1.33-.51-2.86.28-4.1s2.14-1.97,3.6-1.97h43.24c2.36,0,4.28,1.92,4.28,4.28v56.41c0,2.36-1.92,4.28-4.28,4.28h-41.49Z"/>
      <path class="cls-2" d="M107.94,19.91c1.72,0,3.11,1.39,3.11,3.11v8.68c0,1.72-1.39,3.11-3.11,3.11h-46.49c-.16,0-.31.01-.47.03-18.53,2.57-32.82,18.01-32.82,36.61s14.29,34.04,32.82,36.61c.15.02.31.03.47.03h31.59c1.72,0,3.11-1.39,3.11-3.11v-26.61c0-1.72-1.39-3.11-3.11-3.11h-24.34c-1.21,0-2.32-.71-2.82-1.81l-4.01-8.68c-.95-2.06.55-4.41,2.82-4.41h43.24c1.72,0,3.11,1.39,3.11,3.11v56.41c0,1.72-1.39,3.11-3.11,3.11h-41.49c-14.49,0-27.61-5.69-37.15-14.9h0c-9.68-9.34-15.68-22.3-15.68-36.64s6-27.31,15.68-36.64h0c9.54-9.21,22.66-14.9,37.15-14.9h41.49M107.94,17.57h-41.49c-14.61,0-28.38,5.52-38.77,15.55-10.57,10.19-16.4,23.8-16.4,38.32s5.82,28.13,16.4,38.32c10.39,10.03,24.15,15.55,38.77,15.55h41.49c3,0,5.44-2.44,5.44-5.44v-56.41c0-3-2.44-5.44-5.44-5.44h-43.24c-1.87,0-3.58.94-4.58,2.51-1.01,1.57-1.14,3.52-.36,5.21l4.01,8.68c.89,1.92,2.83,3.16,4.94,3.16h24.34c.43,0,.78.35.78.78v26.61c0,.43-.35.78-.78.78h-31.59s-.1,0-.14,0c-17.56-2.44-30.8-17.18-30.8-34.3s13.24-31.86,30.8-34.3c.05,0,.1,0,.14,0h46.49c3,0,5.44-2.44,5.44-5.44v-8.68c0-3-2.44-5.44-5.44-5.44h0Z"/>
    </g>
    <path class="cls-1" d="M278,125.28h-20.02c-1.36,0-2.62-.74-3.28-1.94l-.15-.27-21.4-38.68-10.49-18.94-.42-.76-14.34-25.74.05-.09,1.15-2.07,9.27-16.73c.04-.08.08-.16.12-.24l.03-.07c.61-1.33,1.94-2.18,3.41-2.18h.65c1.48,0,2.82.87,3.42,2.22h0c.04.1.09.19.14.28l9.26,16.73,45.46,82.13.43.78c1.38,2.5-.43,5.57-3.28,5.57Z"/>
    <path class="cls-4" d="M324.76,125.28h-20.02c-1.36,0-2.62-.74-3.28-1.94l-.15-.27-21.4-38.68-10.49-18.94-.42-.76-14.34-25.74.05-.09,1.15-2.07,9.27-16.73c.04-.08.08-.16.12-.24l.03-.07c.61-1.33,1.94-2.18,3.41-2.18h.65c1.48,0,2.82.87,3.42,2.22h0c.04.1.09.19.14.28l9.26,16.73,45.46,82.13.43.78c1.38,2.5-.43,5.57-3.28,5.57Z"/>
    <path class="cls-2" d="M427.73,92.68c0,5.55-1.42,11.03-4.1,15.85-5.76,10.36-16.69,16.79-28.54,16.79-1.23,0-2.47-.07-3.7-.21-1.23.14-2.48.21-3.7.21h-52.63c-2.24,0-4.06-1.82-4.06-4.06v-57.37c0-2.24,1.82-4.06,4.06-4.06h54.47c.07,0,.14,0,.2-.02,4.52-.95,7.76-4.92,7.76-9.59,0-4.37-2.96-8.25-7.13-9.43-.08-.02-.17-.03-.25-.03h-36.3v.03h-18.75c-2.24,0-4.06-1.82-4.06-4.06v-15.08c0-2.24,1.82-4.06,4.06-4.06h53.13c11.75,0,22.54,6.48,28.07,16.85h0c2.66,4.81,4.07,10.27,4.07,15.79s-1.43,11.08-4.14,15.92c-.04.09-.09.17-.14.25l-.02.04h0s0,.03,0,.03c-.16.27-.31.53-.48.79.41.33.8.66,1.19,1,2.75,2.44,5.06,5.31,6.86,8.52,2.71,4.84,4.14,10.34,4.14,15.91ZM357.87,102.18h39.53c.08,0,.16-.01.24-.03,4.22-1.15,7.24-5.04,7.24-9.46s-3.12-8.46-7.48-9.52c-.07-.02-.15-.03-.22-.03h-39.31c-2.24,0-4.06,1.82-4.06,4.06v10.91c0,2.24,1.82,4.06,4.06,4.06Z"/>
    <path class="cls-3" d="M155.37,61.25l10.04,18.02c.63,1.13.63,2.51,0,3.64l-22.23,40.17-.15.27c-.66,1.19-1.92,1.94-3.28,1.94h-20.02c-2.86,0-4.67-3.07-3.28-5.57l.43-.78,31.93-57.68c1.43-2.58,5.13-2.58,6.56,0ZM231.24,125.28h-20.02c-1.36,0-2.62-.74-3.28-1.94l-.15-.27-21.4-38.68-10.49-18.94-.42-.76-14.34-25.74.05-.09,1.15-2.07,9.27-16.73c.04-.08.08-.16.12-.24l.03-.07c.61-1.33,1.94-2.18,3.41-2.18h.65c1.48,0,2.82.87,3.42,2.22h0c.04.1.09.19.14.28l9.26,16.73,45.46,82.13.43.78c1.38,2.5-.43,5.57-3.28,5.57Z"/>
  </g>
  <path class="cls-3" d="M156.95,107.32l11.73-21.14c.83-1.33,2.29-2.13,3.86-2.13l5.41.12h.37c1.65,0,3.17.9,3.96,2.35l11.75,21.21c1.67,3.03-.53,6.73-3.98,6.73h-1.07s-28.19-.19-28.19-.19c-3.56,0-5.73-3.93-3.84-6.95Z"/>
</svg>