<?xml version="1.0" encoding="UTF-8"?>
<svg id="Layer_1" data-name="Layer 1" xmlns="http://www.w3.org/2000/svg" version="1.1" viewBox="0 0 544.4 157">
  <defs>
    <style>
      .cls-1 {
        fill: #ec1e24;
      }

      .cls-1, .cls-2, .cls-3, .cls-4 {
        stroke-width: 0px;
      }

      .cls-2 {
        fill: #69bc45;
      }

      .cls-3 {
        fill: #3853a3;
      }

      .cls-4 {
        fill: #231f20;
      }
    </style>
  </defs>
  <g>
    <path class="cls-4" d="M74.7,144.8c-18.4,0-35.7-7-48.8-19.6-13.3-12.8-20.6-29.9-20.6-48.2s7.3-35.4,20.6-48.2c13.1-12.6,30.4-19.6,48.8-19.6h53.4c3,0,5.5,2.5,5.5,5.5v11.2c0,3-2.5,5.5-5.5,5.5h-59.8c-.1,0-.3,0-.4,0-23.3,3.2-40.9,22.8-40.9,45.6s17.6,42.4,40.9,45.6c.1,0,.3,0,.4,0h40.6c1.4,0,2.5-1.1,2.5-2.5v-34.2c0-1.4-1.1-2.5-2.5-2.5h-31.3c-2.1,0-4.1-1.3-5-3.2l-5.2-11.2c-.8-1.7-.7-3.7.4-5.3,1-1.6,2.7-2.5,4.6-2.5h55.6c3,0,5.5,2.5,5.5,5.5v72.5c0,3-2.5,5.5-5.5,5.5h-53.4Z"/>
    <path class="cls-4" d="M128,10.7c2.2,0,4,1.8,4,4v11.2c0,2.2-1.8,4-4,4h-59.8c-.2,0-.4,0-.6,0-23.8,3.3-42.2,23.2-42.2,47.1s18.4,43.8,42.2,47.1c.2,0,.4,0,.6,0h40.6c2.2,0,4-1.8,4-4v-34.2c0-2.2-1.8-4-4-4h-31.3c-1.6,0-3-.9-3.6-2.3l-5.2-11.2c-1.2-2.7.7-5.7,3.6-5.7h55.6c2.2,0,4,1.8,4,4v72.5c0,2.2-1.8,4-4,4h-53.4c-18.6,0-35.5-7.3-47.8-19.2h0c-12.5-12-20.2-28.7-20.2-47.1s7.7-35.1,20.2-47.1h0c12.3-11.8,29.1-19.2,47.8-19.2h53.4M128,7.7h-53.4c-18.8,0-36.5,7.1-49.9,20C11.2,40.8,3.7,58.3,3.7,77s7.5,36.2,21.1,49.3c13.4,12.9,31.1,20,49.9,20h53.4c3.9,0,7-3.1,7-7v-72.5c0-3.9-3.1-7-7-7h-55.6c-2.4,0-4.6,1.2-5.9,3.2-1.3,2-1.5,4.5-.5,6.7l5.2,11.2c1.1,2.5,3.6,4.1,6.4,4.1h31.3c.6,0,1,.4,1,1v34.2c0,.6-.4,1-1,1h-40.6c0,0-.1,0-.2,0-22.6-3.1-39.6-22.1-39.6-44.1s17-41,39.6-44.1c0,0,.1,0,.2,0h59.8c3.9,0,7-3.1,7-7v-11.2c0-3.9-3.1-7-7-7h0Z"/>
  </g>
  <path class="cls-1" d="M189,63.9l12.9,23.2c.8,1.5.8,3.2,0,4.7l-28.6,51.7-.2.3c-.9,1.5-2.5,2.5-4.2,2.5h-25.7c-3.7,0-6-3.9-4.2-7.2l.6-1,41.1-74.2c1.8-3.3,6.6-3.3,8.4,0ZM286.6,146.2h-25.7c-1.8,0-3.4-1-4.2-2.5l-.2-.3-27.5-49.7-13.5-24.4-.5-1-18.4-33.1h0c0-.1,1.5-2.8,1.5-2.8l11.9-21.5c0-.1.1-.2.2-.3h0c.8-1.8,2.5-2.9,4.4-2.9h.8c1.9,0,3.6,1.1,4.4,2.9h0c0,.1.1.2.2.4l11.9,21.5,58.5,105.6.6,1c1.8,3.2-.5,7.2-4.2,7.2Z"/>
  <path class="cls-2" d="M249.1,63.9l12.9,23.2c.8,1.5.8,3.2,0,4.7l-28.6,51.7-.2.3c-.9,1.5-2.5,2.5-4.2,2.5h-25.7c-3.7,0-6-3.9-4.2-7.2l.6-1,41.1-74.2c1.8-3.3,6.6-3.3,8.4,0ZM346.7,146.2h-25.7c-1.8,0-3.4-1-4.2-2.5l-.2-.3-27.5-49.7-13.5-24.4-.5-1-18.4-33.1h0c0-.1,1.5-2.8,1.5-2.8l11.9-21.5c0-.1.1-.2.2-.3h0c.8-1.8,2.5-2.9,4.4-2.9h.8c1.9,0,3.6,1.1,4.4,2.9h0c0,.1.1.2.2.4l11.9,21.5,58.5,105.6.6,1c1.8,3.2-.5,7.2-4.2,7.2Z"/>
  <path class="cls-3" d="M309.3,63.9l12.9,23.2c.8,1.5.8,3.2,0,4.7l-28.6,51.7-.2.3c-.9,1.5-2.5,2.5-4.2,2.5h-25.7c-3.7,0-6-3.9-4.2-7.2l.6-1,41.1-74.2c1.8-3.3,6.6-3.3,8.4,0ZM406.9,146.2h-25.7c-1.8,0-3.4-1-4.2-2.5l-.2-.3-27.5-49.7-13.5-24.4-.5-1-18.4-33.1h0c0-.1,1.5-2.8,1.5-2.8l11.9-21.5c0-.1.1-.2.2-.3h0c.8-1.8,2.5-2.9,4.4-2.9h.8c1.9,0,3.6,1.1,4.4,2.9h0c0,.1.1.2.2.4l11.9,21.5,58.5,105.6.6,1c1.8,3.2-.5,7.2-4.2,7.2Z"/>
  <path class="cls-4" d="M539.3,104.3c0,7.1-1.8,14.2-5.3,20.4-7.4,13.3-21.5,21.6-36.7,21.6s-3.2,0-4.8-.3c-1.6.2-3.2.3-4.8.3h-67.7c-2.9,0-5.2-2.3-5.2-5.2v-73.8c0-2.9,2.3-5.2,5.2-5.2h70c0,0,.2,0,.3,0,5.8-1.2,10-6.3,10-12.3s-3.8-10.6-9.2-12.1c-.1,0-.2,0-.3,0h-46.7s-24.1,0-24.1,0c-2.9,0-5.2-2.3-5.2-5.2V12.9c0-2.9,2.3-5.2,5.2-5.2h68.3c15.1,0,29,8.3,36.1,21.7h0c3.4,6.2,5.2,13.2,5.2,20.3s-1.8,14.2-5.3,20.5c0,.1-.1.2-.2.3h0s0,0,0,0h0c-.2.4-.4.7-.6,1,.5.4,1,.8,1.5,1.3,3.5,3.1,6.5,6.8,8.8,11,3.5,6.2,5.3,13.3,5.3,20.5ZM449.5,116.5h50.8c.1,0,.2,0,.3,0,5.4-1.5,9.3-6.5,9.3-12.2s-4-10.9-9.6-12.2-.2,0-.3,0h-50.6c-2.9,0-5.2,2.3-5.2,5.2v14c0,2.9,2.3,5.2,5.2,5.2Z"/>
</svg>