<svg version="1.2" xmlns="http://www.w3.org/2000/svg" viewBox="0 0 892 280" width="892" height="280">
	<title>logo-gg-full-2-ai</title>
	<style>
		.s0 { fill: #231f20;stroke: #231f20;stroke-miterlimit:10;stroke-width: 4 } 
		.s1 { fill: #231f20 } 
		.s2 { fill: #46c7ec } 
		.s3 { fill: #4690cc } 
		.s4 { fill: #c64d9c } 
	</style>
	<g id="Layer 1">
		<g id="&lt;Group&gt;">
			<g id="&lt;Group&gt;">
				<path id="&lt;Compound Path&gt;" class="s0" d="m262.4 264c0 4.4-3.6 8-8 8h-106.8c-37.2 0-71-14.7-95.5-38.4-24.9-24-40.4-57.3-40.4-94.2 0-36.9 15.5-70.3 40.4-94.3 24.5-23.7 58.3-38.3 95.5-38.3h106.8c4.4 0 8 3.6 8 8v22.3c0 4.4-3.6 8-8 8h-119.6q-0.6 0-1.2 0.1c-47.7 6.6-84.4 46.3-84.4 94.2 0 47.8 36.7 87.5 84.4 94.2q0.6 0 1.2 0h81.2c4.5 0 8-3.5 8-8v-68.4c0-4.4-3.5-8-8-8h-62.6c-3.1 0-5.9-1.8-7.2-4.7l-10.3-22.3c-2.5-5.3 1.4-11.3 7.2-11.3h111.3c4.4 0 8 3.6 8 8z"/>
			</g>
		</g>
		<g id="&lt;Group&gt;">
			<path id="&lt;Compound Path&gt;" class="s1" d="m324.5 49.5l9.9 17.8c0.6 1.1 0.6 2.5 0 3.6l-21.9 39.5-0.1 0.3c-0.7 1.2-1.9 1.9-3.3 1.9h-19.7c-2.8 0-4.6-3-3.2-5.5l0.4-0.7 31.4-56.8c1.4-2.6 5.1-2.6 6.5-0.1zm74.7 63.1h-19.7c-1.3 0-2.6-0.7-3.2-1.9l-0.2-0.3-21-38-10.4-18.7-0.4-0.7-14.1-25.4v-0.1l1.2-2 9.1-16.5q0.1-0.1 0.1-0.2l0.1-0.1c0.6-1.3 1.9-2.2 3.3-2.2h0.6c1.5 0 2.8 0.9 3.4 2.2q0.1 0.2 0.2 0.3l9.1 16.5 44.7 80.9 0.5 0.7c1.3 2.5-0.4 5.5-3.3 5.5z"/>
			<path id="&lt;Compound Path&gt;" fill-rule="evenodd" class="s1" d="m517.1 80.5c0 5.4-1.4 10.8-4.1 15.6-5.6 10.2-16.4 16.5-28.1 16.5q-1.8 0-3.6-0.2-1.8 0.2-3.6 0.2h-51.8c-2.2 0-4-1.8-4-4v-56.5c0-2.2 1.8-4 4-4h53.6q0.1 0 0.2 0c4.4-0.9 7.6-4.8 7.6-9.4 0-4.3-2.9-8.1-7-9.3q-0.1 0-0.3 0h-35.7-18.4c-2.2 0-4-1.8-4-4v-14.8c0-2.3 1.8-4 4-4h52.3c11.5 0 22.1 6.3 27.6 16.5 2.6 4.8 4 10.1 4 15.6 0 5.5-1.4 10.9-4.1 15.7q0 0.1-0.1 0.2l-0.1 0.1q-0.2 0.4-0.4 0.7 0.6 0.5 1.2 1c2.7 2.4 4.9 5.3 6.7 8.4 2.7 4.8 4.1 10.2 4.1 15.7zm-68.8 9.3h38.9q0.2 0 0.3 0c4.1-1.1 7.1-5 7.1-9.3 0-4.5-3.1-8.3-7.4-9.4q-0.1 0-0.2 0h-38.7c-2.2 0-4 1.8-4 4v10.7c0 2.2 1.8 4 4 4z"/>
			<path id="&lt;Compound Path&gt;" class="s1" d="m628.3 112.6h-16.9c-1.4 0-2.7-0.7-3.4-1.9l-0.1-0.1-27.2-44.6q-1 0.2-2 0.4-0.4 0.1-0.8 0.1-0.2 0.1-0.4 0.1h-0.1q-0.5 0.1-1 0.1-0.2 0.1-0.4 0.1-0.6 0.1-1.1 0.1-0.6 0.1-1.1 0.1h-0.2-0.2q-0.5 0.1-1.1 0.1-0.1 0-0.3 0-0.4 0-0.8 0l-0.3 0.1h-0.2-0.1q-0.5 0-1.1 0h-9.8c-2.2 0-4 1.8-4 4v37.4c0 2.2-1.8 4-4 4h-14.5c-2.2 0-4-1.8-4-4v-59.9c0-2.2 1.8-4 4-4h32.3c4.1 0 8.1-0.8 11.8-2.3q0.2-0.1 0.3-0.2c3.5-1.5 6.6-3.6 9.3-6.3q0.1 0 0.1-0.1c2.5-2.4 0.7-6.7-2.9-6.7h-6.8-44.1c-2.2 0-4-1.8-4-4v-14.5c0-2.2 1.8-4 4-4h81.1c2.1 0 3.9 1.7 4 3.7v0.2q0.2 1.9 0.2 3.8c0 3.9-0.5 7.7-1.3 11.5-2.2 9.9-7.2 19-14.5 26.1q-1 1.1-2 1.9-0.4 0.3-0.7 0.6-0.1 0.1-0.1 0.1-0.5 0.4-0.9 0.8-0.3 0.2-0.7 0.5-0.2 0.2-0.4 0.3l-0.1 0.1q-0.2 0.2-0.5 0.4l30.3 49.6 0.1 0.3c1.7 2.7-0.2 6.1-3.4 6.1z"/>
			<path id="&lt;Compound Path&gt;" class="s1" d="m673.9 10.7v97.9c0 2.2-1.8 4-4 4h-14.4c-2.2 0-4-1.8-4-4v-97.9c0-2.2 1.8-4 4-4h14.4c2.2 0 4 1.8 4 4z"/>
			<path id="&lt;Compound Path&gt;" class="s1" d="m784.3 10.9v14.5c0 2.2-1.8 4-4 4h-86.4c-2.3 0-4-1.8-4-4v-14.3-0.2c0-2.2 1.8-4 4-4h86.4c2.2 0 4 1.8 4 4zm-68 79.3h64c2.2 0 4 1.8 4 4v14.4c0 2.2-1.8 4-4 4h-86.4c-2.3 0-4-1.8-4-4v-14.2-4.2-41.3c0-2.2 1.8-4 4-4l18.4 0.1h58.6c2.2 0 4 1.8 4 4v14.5c0 2.2-1.8 4-4 4h-54.6c-2.2 0-4 1.8-4 4v14.7c0 2.2 1.8 4 4 4z"/>
			<path id="&lt;Compound Path&gt;" class="s1" d="m884.4 94.2v14.4c0 2.2-1.8 4-4 4h-76.1c-2.3 0-4-1.8-4-4v-98.5c0-2.2 1.7-4 4-4h14.4c2.2 0 4 1.8 4 4v76.1c0 2.2 1.8 4 4 4h53.7c2.2 0 4 1.8 4 4z"/>
			<path id="&lt;Compound Path&gt;" class="s1" d="m324.5 209.5l9.9 17.8c0.6 1.1 0.6 2.5 0 3.6l-21.9 39.5-0.1 0.3c-0.7 1.2-1.9 1.9-3.3 1.9h-19.7c-2.8 0-4.6-3-3.2-5.5l0.4-0.7 31.4-56.8c1.5-2.6 5.1-2.6 6.5-0.1zm74.7 63.1h-19.7c-1.3 0-2.6-0.7-3.2-1.9l-0.2-0.3-21-38-10.4-18.7-0.4-0.7-14.1-25.4v-0.1l1.2-2 9.1-16.5q0.1-0.1 0.1-0.2l0.1-0.1c0.6-1.3 1.9-2.2 3.3-2.2h0.6c1.5 0 2.8 0.9 3.4 2.2q0.1 0.2 0.2 0.3l9.1 16.5 44.7 80.9 0.5 0.7c1.3 2.5-0.4 5.5-3.3 5.5z"/>
			<path id="&lt;Compound Path&gt;" class="s1" d="m511.7 272.6h-16.9c-1.4 0-2.7-0.7-3.5-1.9v-0.1l-27.2-44.6q-1.1 0.2-2.1 0.4-0.3 0.1-0.8 0.1-0.2 0.1-0.4 0.1-0.5 0.1-1 0.1-0.2 0.1-0.5 0.1-0.5 0.1-1 0.1-0.6 0.1-1.2 0.1h-0.1-0.3q-0.5 0.1-1 0.1-0.1 0-0.3 0-0.4 0-0.8 0h-0.1l-0.2 0.1h-0.3q-0.6 0-1.1 0h-9.9c-2.2 0-4 1.8-4 4v37.4c0 2.2-1.8 4-4 4h-14.4c-2.2 0-4-1.8-4-4v-59.9c0-2.2 1.8-4 4-4h32.3c4.1 0 8.1-0.8 11.8-2.3q0.1-0.1 0.3-0.2c3.5-1.5 6.6-3.6 9.3-6.2q0-0.1 0.1-0.2c2.5-2.4 0.6-6.7-2.9-6.7h-6.8-44.1c-2.2 0-4-1.8-4-4v-14.5c0-2.2 1.8-4 4-4h81.1c2.1 0 3.8 1.7 4 3.7v0.2q0.1 1.9 0.1 3.8c0 3.9-0.4 7.7-1.2 11.5-2.2 9.9-7.3 19-14.5 26.1q-1.1 1.1-2.1 1.9-0.3 0.3-0.6 0.6-0.1 0.1-0.2 0.1-0.4 0.4-0.9 0.8-0.3 0.2-0.6 0.5-0.2 0.2-0.4 0.3l-0.1 0.1q-0.3 0.2-0.5 0.4l30.2 49.6 0.2 0.3c1.6 2.7-0.3 6.1-3.4 6.1z"/>
			<path id="&lt;Compound Path&gt;" class="s1" d="m613.5 230.5c2.7 0 4.6 2.6 3.8 5.2l-0.1 0.3c-3.4 10.5-10 19.6-19 26.3-9.2 6.7-20 10.3-31.5 10.3-12.8 0-25.1-4.6-34.8-13-9.5-8.3-15.8-19.8-17.6-32.2-0.4-2.6-0.6-5.2-0.6-7.8 0-2.5 0.2-5 0.5-7.5 1.8-12.5 8-24 17.6-32.4 9.7-8.5 22.1-13.1 34.9-13.1 11.8 0 22.9 3.7 32.2 10.8 9 6.9 15.7 16.6 18.8 27.4l0.1 0.3c0.7 2.6-1.2 5.1-3.9 5.1h-15.3c-1.6 0-3-0.9-3.7-2.4v-0.2c-4.8-11.3-15.9-18.6-28.2-18.6-14.5 0-27.1 10.3-29.9 24.5q-0.6 3-0.6 6.1c0 2.1 0.2 4.2 0.6 6.3 3 14 15.5 24.3 29.9 24.3 11.7 0 22.5-6.8 27.6-17.4v-0.1c0.7-1.4 2.1-2.2 3.6-2.2z"/>
			<path id="&lt;Compound Path&gt;" class="s1" d="m659.5 170.7v97.9c0 2.2-1.8 4-4 4h-14.4c-2.2 0-4-1.8-4-4v-97.9c0-2.2 1.8-4 4-4h14.4c2.2 0 4 1.8 4 4z"/>
			<path id="&lt;Compound Path&gt;" class="s1" d="m711.5 209.5l9.9 17.8c0.7 1.1 0.7 2.5 0 3.6l-21.9 39.5-0.1 0.3c-0.7 1.2-1.9 1.9-3.2 1.9h-19.8c-2.8 0-4.5-3-3.2-5.5l0.4-0.7 31.5-56.8c1.4-2.6 5-2.6 6.4-0.1zm74.8 63.1h-19.7c-1.4 0-2.6-0.7-3.3-1.9l-0.1-0.3-21.1-38-10.3-18.7-0.4-0.7-14.2-25.4 0.1-0.1 1.1-2 9.1-16.5q0.1-0.1 0.2-0.2v-0.1c0.6-1.3 1.9-2.2 3.3-2.2h0.7c1.4 0 2.8 0.9 3.4 2.2q0 0.2 0.1 0.3l9.1 16.5 44.8 80.9 0.4 0.7c1.4 2.5-0.4 5.5-3.2 5.5z"/>
		</g>
		<path id="&lt;Path&gt;" class="s2" d="m863.9 210.7h-43.1c-4.4 0-8-3.6-8-8v-51.4c0-4.4 3.6-8 8-8h43.1c4.4 0 8 3.6 8 8v51.4c0 4.4-3.6 8-8 8z"/>
		<path id="&lt;Path&gt;" class="s3" d="m863.9 249.7h-43.1c-4.4 0-8-3.6-8-8v-17.9c0-4.4 3.6-8 8-8h43.1c4.4 0 8 3.6 8 8v17.9c0 4.4-3.6 8-8 8z"/>
		<path id="&lt;Path&gt;" class="s4" d="m863.9 272h-43.1c-4.4 0-8-3.6-8-8v-1.2c0-4.4 3.6-8 8-8h43.1c4.4 0 8 3.6 8 8v1.2c0 4.4-3.6 8-8 8z"/>
	</g>
</svg>