<?xml version="1.0" encoding="UTF-8"?>
<svg id="Layer_1" data-name="Layer 1" xmlns="http://www.w3.org/2000/svg" xmlns:xlink="http://www.w3.org/1999/xlink" version="1.1" viewBox="0 0 717.6 342.4">
  <defs>
    <style>
      .cls-1 {
        fill: #ff9f3d;
      }

      .cls-1, .cls-2, .cls-3, .cls-4, .cls-5, .cls-6, .cls-7, .cls-8, .cls-9, .cls-10, .cls-11, .cls-12, .cls-13, .cls-14, .cls-15, .cls-16, .cls-17, .cls-18, .cls-19, .cls-20, .cls-21, .cls-22, .cls-23, .cls-24, .cls-25, .cls-26, .cls-27, .cls-28, .cls-29, .cls-30, .cls-31, .cls-32, .cls-33, .cls-34, .cls-35 {
        stroke-width: 0px;
      }

      .cls-2 {
        fill: #c7a495;
      }

      .cls-3 {
        fill: #211a1a;
      }

      .cls-4 {
        fill: #f4efe9;
      }

      .cls-5 {
        fill: #d18067;
      }

      .cls-6 {
        fill: #f59c72;
      }

      .cls-7 {
        fill: #706f6f;
      }

      .cls-8 {
        fill: #544540;
      }

      .cls-9 {
        fill: #853e2a;
      }

      .cls-10 {
        fill: #944e39;
      }

      .cls-11 {
        fill: #87523b;
      }

      .cls-12 {
        fill: #ff6b6e;
      }

      .cls-13 {
        fill: #ff9496;
      }

      .cls-14 {
        fill: #ffc654;
      }

      .cls-15 {
        fill: #9d9d9c;
      }

      .cls-16 {
        fill: #362c29;
      }

      .cls-17 {
        fill: #573711;
      }

      .cls-18 {
        fill: #d8d1c7;
      }

      .cls-19 {
        fill: #693121;
      }

      .cls-20 {
        fill: #e0dedc;
      }

      .cls-21, .cls-26 {
        fill: #000;
      }

      .cls-22 {
        fill: #f0c6b4;
      }

      .cls-23 {
        fill: #d1d1d1;
      }

      .cls-24 {
        fill: #b57355;
      }

      .cls-25 {
        fill: #f7dfaf;
      }

      .cls-26 {
        opacity: .3;
      }

      .cls-26, .cls-36, .cls-31 {
        isolation: isolate;
      }

      .cls-27 {
        fill: #878787;
      }

      .cls-28 {
        fill: #87511b;
      }

      .cls-29 {
        fill: #b87139;
      }

      .cls-30 {
        fill: #574943;
      }

      .cls-31 {
        fill: url(#radial-gradient);
        mix-blend-mode: lighten;
        opacity: .2;
      }

      .cls-32 {
        fill: #fff;
      }

      .cls-33 {
        fill: #baf3ff;
      }

      .cls-34 {
        fill: #7dd2e3;
      }

      .cls-35 {
        fill: #efc58b;
      }
    </style>
    <radialGradient id="radial-gradient" cx="395.4" cy="-733.6" fx="395.4" fy="-733.6" r="395.8" gradientTransform="translate(0 -552) scale(1 -1)" gradientUnits="userSpaceOnUse">
      <stop offset="0" stop-color="#fff"/>
      <stop offset=".3" stop-color="#fcfdff"/>
      <stop offset=".4" stop-color="#f4f6ff"/>
      <stop offset=".6" stop-color="#e5ebff"/>
      <stop offset=".7" stop-color="#d1dbff"/>
      <stop offset=".8" stop-color="#b7c7ff"/>
      <stop offset=".9" stop-color="#96aeff"/>
      <stop offset="1" stop-color="#7191ff"/>
      <stop offset="1" stop-color="#6a8cff"/>
    </radialGradient>
  </defs>
  <g class="cls-36">
    <g id="Layer_1-2" data-name="Layer 1-2">
      <g>
        <path class="cls-31" d="M790.7-44.7v-1.3l-5.6,3.2-18.5-10.7,18.5-10.7,5.6,3.2v-1.3l-4.5-2.6,4.5-2.6v-1.3l-5.6,3.2-18.5-10.7,18.5-10.7,5.6,3.2v-1.3l-4.5-2.6,4.5-2.6v-1.3l-5.6,3.2-18.5-10.7,18.5-10.7,5.6,3.2v-1.3l-4.5-2.6,4.5-2.6v-1.3l-5.6,3.2-18.5-10.7,18.5-10.7,5.6,3.2v-1.3l-4.5-2.6,4.5-2.6v-1.3l-5.6,3.2-18.5-10.7,18.5-10.7,5.6,3.2v-1.3l-4.5-2.6,4.5-2.6v-1.3l-5.6,3.2-18.5-10.7,18.5-10.7,5.6,3.2v-1.3l-4.5-2.6,4.5-2.6v-1.3l-5.6,3.2-18.5-10.7,18.5-10.7,5.6,3.2v-1.3l-4.5-2.6,4.5-2.6v-1.3l-5.6,3.2-18.5-10.7,2-1.2h-2.2l-.9.5-.9-.5h-2.2l2,1.2-18.5,10.7-18.5-10.7,2-1.2h-2.2l-.9.5-.9-.5h-2.2l2,1.2-18.5,10.7-18.5-10.7,2-1.2h-2.2l-.9.5-.9-.5h-2.2l2,1.2-18.5,10.7-18.5-10.7,2-1.2h-2.2l-.9.5-.9-.5h-2.2l2,1.2-18.5,10.7-18.5-10.7,2-1.2h-2.2l-.9.5-.9-.5h-2.2l2,1.2-18.5,10.7-18.5-10.7,2-1.2h-2.2l-.9.5-.9-.5h-2.2l2,1.2-18.5,10.7-18.5-10.7,2-1.2h-2.2l-.9.5-.9-.5h-2.2l2,1.2-18.5,10.7-20.5-11.8h-2.3l-18.5,10.7-18.5-10.7h-2.3l-18.5,10.7-18.5-10.7h-2.3l-18.5,10.7-18.5-10.7h-2.3l-18.5,10.7-18.5-10.7h-2.3l-20.5,11.8-18.5-10.7,2-1.2h-2.2l-.9.5-.9-.5h-2.2l2,1.2-18.5,10.7-18.5-10.7,2-1.2h-2.2l-.9.5-.9-.5h-2.2l2,1.2-18.5,10.7-18.5-10.7,2-1.2h-2.2l-.9.5-.9-.5h-2.2l2,1.2-18.5,10.7-18.5-10.7,2-1.2h-2.2l-.9.5-.9-.5h-2.2l2,1.2-18.5,10.7-18.5-10.7,2-1.2h-2.2l-.9.5-.9-.5h-2.2l2,1.2-18.5,10.7-18.5-10.7,2-1.2h-2.2l-.9.5-.9-.5h-2.2l2,1.2-18.5,10.7-18.5-10.7,2-1.2h-2.2l-.9.5-.9-.5h-2.2l2,1.2-18.5,10.7-18.5-10.7,2-1.2h-2.2l-.9.5-.9-.5h-2.2l2,1.2L-.2-202.6v1.3l16.9-9.8,18.5,10.7-18.5,10.7L-.2-199.5v1.3l15.8,9.1L-.2-180v1.3l16.9-9.8,18.5,10.7-18.5,10.7L-.2-176.9v1.3l15.8,9.1L-.2-157.3v1.3l16.9-9.8,18.5,10.7-18.5,10.7L-.2-154.3v1.3l15.8,9.1L-.2-134.7v1.3l16.9-9.8,18.5,10.7-18.5,10.7L-.2-131.6v1.3l15.8,9.1L-.2-112.1v1.3l16.9-9.8,18.5,10.7-18.5,10.7L-.2-109v1.3l15.8,9.1L-.2-89.4v1.3l16.9-9.8,18.5,10.7-18.5,10.7L-.2-86.4v1.3l15.8,9.1L-.2-66.8v1.3l16.9-9.8,18.5,10.7-18.5,10.7L-.2-63.7v1.3l15.8,9.1L-.2-44.2v1.3l16.9-9.8,18.5,10.7-18.5,10.7L-.2-41.1v1.3l15.8,9.1L-.2-21.5v1.3l16.9-9.8,18.5,10.7L15.4-7.9-.2-16.9v1.3L14.2-7.3-.2,1.1v1.3L15.4-6.6l18.5,10.7L15.4,14.7-.2,5.7v1.3l14.5,8.4L-.2,23.7v1.3l15.6-9,18.5,10.7-18.5,10.7L-.2,28.4v1.3l14.5,8.4L-.2,46.4v1.3l15.6-9,18.5,10.7-18.5,10.7L-.2,51v1.3l14.5,8.4L-.2,69v1.3l15.6-9,20.5,11.8-18.5,10.7L-.2,73.6v1.3l16.5,9.5L-.2,94v1.3l17.6-10.2,18.5,10.7-18.5,10.7L-.2,96.3v1.3l16.5,9.5L-.2,116.6v1.3l17.6-10.2,18.5,10.7-18.5,10.7L-.2,118.9v1.3l16.5,9.5L-.2,139.2v1.3l17.6-10.2,18.5,10.7-18.5,10.7L-.2,141.5v1.3l16.5,9.5L-.2,161.8v1.3l17.6-10.2,18.5,10.7-18.5,10.7L-.2,164.1v1.3l16.5,9.5L-.2,184.4v1.3l17.6-10.2,18.5,10.7-18.5,10.7L-.2,186.7v1.3l16.5,9.5L-.2,207v1.3l17.6-10.2,18.5,10.7-18.5,10.7L-.2,209.3v1.3l16.5,9.5L-.2,229.6v1.3l17.6-10.2,18.5,10.7-18.5,10.7L-.2,231.9v1.3l16.5,9.5L-.2,252.3v1.3l17.6-10.2,18.5,10.7-18.5,10.7L-.2,254.5v1.3l16.5,9.5L-.2,274.9v1.3l17.6-10.2,18.5,10.7-18.5,10.7L-.2,277.1v1.3l16.5,9.5L-.2,297.5v1.3l17.6-10.2,18.5,10.7-18.5,10.7L-.2,299.7v1.3l16.5,9.5L-.2,320.1v1.3l17.6-10.2,18.5,10.7-18.5,10.7L-.2,322.4v1.3l16.5,9.5L-.2,342.7v1.3l17.6-10.2,18.5,10.7-20.5,11.8L-.2,347.3v1.3l14.5,8.4L-.2,365.3v1.3l15.6-9,18.5,10.7-18.5,10.7L-.2,369.9v1.3l14.5,8.4L-.2,387.9v1.3l15.6-9,18.5,10.7-18.5,10.7L-.2,392.5v1.3l14.5,8.4L-.2,410.5v1.3l15.6-9,18.5,10.7-18.5,10.7L-.2,415.2v1.3l14.5,8.4L-.2,433.2v1.3l15.6-9,19.8,11.5-18.5,10.7L-.2,437.8v1.3l15.8,9.1L-.2,457.3v1.3l16.9-9.8,18.5,10.7-18.5,10.7L-.2,460.4v1.3l15.8,9.1L-.2,480v1.3l16.9-9.8,18.5,10.7-18.5,10.7L-.2,483v1.3l15.8,9.1L-.2,502.5v1.3l16.9-9.8,18.5,10.7-18.5,10.7L-.2,505.6v1.3l15.8,9.1-15.8,9.1v1.3l16.9-9.8,18.5,10.7-18.5,10.7L-.2,528.2v1.3l15.8,9.1-15.8,9.1v1.3l16.9-9.8,18.5,10.7-18.5,10.7L-.2,550.8v1.3l15.8,9.1-15.8,9.1v1.3l16.9-9.8,18.5,10.7-8.8,5.1h2.2l7.7-4.4,7.7,4.4h2.2l-8.8-5.1,18.5-10.7,18.5,10.7-8.8,5.1h2.2l7.7-4.4,7.7,4.4h2.2l-8.8-5.1,18.5-10.7,18.5,10.7-8.8,5.1h2.2l7.7-4.4,7.7,4.4h2.2l-8.8-5.1,18.5-10.7,18.5,10.7-8.8,5.1h2.2l7.7-4.4,7.7,4.4h2.2l-8.8-5.1,18.5-10.7,18.5,10.7-8.8,5.1h2.2l7.7-4.4,7.7,4.4h2.2l-8.8-5.1,18.5-10.7,18.5,10.7-8.8,5.1h2.2l7.7-4.4,7.7,4.4h2.2l-8.8-5.1,18.5-10.7,18.5,10.7-8.8,5.1h2.2l7.7-4.4,7.7,4.4h2.2l-8.8-5.1,18.5-10.7,18.5,10.7-8.8,5.1h2.2l7.7-4.4,7.7,4.4h2.2l-8.8-5.1,18.5-10.7,18.5,10.7-8.8,5.1h2.2l7.7-4.4,7.7,4.4h2.2l-8.8-5.1,18.5-10.7,18.5,10.7-8.8,5.1h2.2l7.7-4.4,7.7,4.4h2.2l-8.8-5.1,20.5-11.8,20.5,11.8-8.8,5.1h2.2l7.7-4.4,7.7,4.4h2.2l-8.8-5.1,18.5-10.7,18.5,10.7-8.8,5.1h2.2l7.7-4.4,7.7,4.4h2.2l-8.8-5.1,18.5-10.7,18.5,10.7-8.8,5.1h2.2l7.7-4.4,7.7,4.4h2.2l-8.8-5.1,18.5-10.7,18.5,10.7-8.8,5.1h2.2l7.7-4.4,7.7,4.4h2.2l-8.8-5.1,18.5-10.7,18.5,10.7-8.8,5.1h2.2l7.7-4.4,7.7,4.4h2.2l-8.8-5.1,18.5-10.7,18.5,10.7-8.8,5.1h2.2l7.7-4.4,7.7,4.4h2.2l-8.8-5.1,18.5-10.7,18.5,10.7-8.8,5.1h2.2l7.7-4.4,7.7,4.4h2.2l-8.8-5.1,18.5-10.7,18.5,10.7-8.8,5.1h2.2l7.7-4.4,7.7,4.4h2.2l-8.8-5.1,18.5-10.7,18.5,10.7-8.8,5.1h2.2l7.7-4.4,7.7,4.4h2.2l-8.8-5.1,18.5-10.7,18.5,10.7-8.8,5.1h2.2l7.7-4.4,5.6,3.2v-1.3l-4.5-2.6,4.5-2.6v-1.3l-5.6,3.2-18.5-10.7,18.5-10.7,5.6,3.2v-1.3l-4.5-2.6,4.5-2.6v-1.3l-5.6,3.2-18.5-10.7,18.5-10.7,5.6,3.2v-1.3l-4.5-2.6,4.5-2.6v-1.3l-5.6,3.2-18.5-10.7,18.5-10.7,5.6,3.2v-1.3l-4.5-2.6,4.5-2.6v-1.3l-5.6,3.2-18.5-10.7,18.5-10.7,5.6,3.2v-1.3l-4.5-2.6,4.5-2.6v-1.3l-5.6,3.2-18.5-10.7,18.5-10.7,5.6,3.2v-1.3l-4.5-2.6,4.5-2.6v-1.3l-5.6,3.2-18.5-10.7,18.5-10.7,5.6,3.2v-1.3l-4.5-2.6,4.5-2.6v-1.3l-5.6,3.2-18.5-10.7,19.8-11.5,4.2,2.4v-1.3l-3.1-1.8,3.1-1.8v-1.3l-4.2,2.4-18.5-10.7,18.5-10.7,4.2,2.4v-1.3l-3.1-1.8,3.1-1.8v-1.3l-4.2,2.4-18.5-10.7,18.5-10.7,4.2,2.4v-1.3l-3.1-1.8,3.1-1.8v-1.3l-4.2,2.4-20.5-11.8,18.5-10.7,6.3,3.6v-1.3l-5.2-3,5.2-3v-1.3l-6.3,3.6-18.5-10.7,18.5-10.7,6.3,3.6v-1.3l-5.2-3,5.2-3v-1.3l-6.3,3.6-18.5-10.7,18.5-10.7,6.3,3.6v-1.3l-5.2-3,5.2-3v-1.3l-6.3,3.6-18.5-10.7,18.5-10.7,6.3,3.6v-1.3l-5.2-3,5.2-3v-1.3l-6.3,3.6-18.5-10.7,18.5-10.7,6.3,3.6v-1.3l-5.2-3,5.2-3v-1.3l-6.3,3.6-18.5-10.7,18.5-10.7,6.3,3.6v-1.3l-5.2-3,5.2-3v-1.3l-6.3,3.6-18.5-10.7,18.5-10.7,6.3,3.6v-1.3l-5.2-3,5.2-3v-1.3l-6.3,3.6-18.5-10.7,18.5-10.7,6.3,3.6v-1.3l-5.2-3,5.2-3v-1.3l-6.3,3.6-18.5-10.7,18.5-10.7,6.3,3.6v-1.3l-5.2-3,5.2-3v-1.3l-6.3,3.6-18.5-10.7,18.5-10.7,6.3,3.6v-1.3l-5.2-3,5.2-3v-1.3l-6.3,3.6-18.5-10.7,18.5-10.7,6.3,3.6v-1.3l-5.2-3,5.2-3v-1.3l-6.3,3.6-18.5-10.7,18.5-10.7,6.3,3.6v-1.3l-5.2-3,5.2-3v-1.3l-6.3,3.6-18.5-10.7,18.5-10.7,6.3,3.6v-1.3l-5.2-3,5.2-3v-1.3l-6.3,3.6-18.5-10.7,20.5-11.8,4.2,2.4v-1.3l-3.1-1.8,3.1-1.8v-1.3l-4.2,2.4-18.5-10.7,18.5-10.7,4.2,2.4v-1.3l-3.1-1.8,3.1-1.8v-1.3l-4.2,2.4-18.5-10.7L786.4.2l4.2,2.4v-1.3l-3.1-1.8,3.1-1.8V.9l-4.2,2.4-19.8-11.5,18.5-10.7,5.6,3.2v-1.3l-4.5-2.6,4.5-2.6v-1.3l-5.6,3.2-18.5-10.7,18.5-10.7,5.6,3.2v-1.3l-4.5-2.6,4.5-2.6h.3s-.3.3-.3.3ZM784-64.7l-18.5,10.7-18.5-10.7,18.5-10.7,18.5,10.7ZM686-98.7l-18.5,10.7-18.5-10.7,18.5-10.7,18.5,10.7ZM668.6-110l18.5-10.7,18.5,10.7-18.5,10.7-18.5-10.7ZM410.7,173.4l-18.5-10.7,18.5-10.7,18.5,10.7-18.5,10.7ZM430.3,163.4l18.5,10.7-18.5,10.7-18.5-10.7,18.5-10.7ZM409.6,174l-18.5,10.7-18.5-10.7,18.5-10.7,18.5,10.7ZM371.5,173.4l-18.5-10.7,18.5-10.7,18.5,10.7-18.5,10.7ZM370.4,174l-19.8,11.5-18.5-10.7,19.8-11.5,18.5,10.7h0ZM369,197.5l-18.5,10.7-18.5-10.7,18.5-10.7,18.5,10.7ZM351.7,186.1l19.8-11.5,18.5,10.7-19.8,11.5-18.5-10.7h0ZM391.1,186l18.5,10.7-19.8,11.5-18.5-10.7,19.8-11.5ZM392.2,185.3l18.5-10.7,18.5,10.7-18.5,10.7-18.5-10.7ZM430.3,186l19.8,11.5-18.5,10.7-19.8-11.5,18.5-10.7h0ZM431.4,185.3l18.5-10.7,19.8,11.5-18.5,10.7-19.8-11.5ZM431.4,162.7l18.5-10.7,18.5,10.7-18.5,10.7-18.5-10.7ZM431.4,140.1l18.5-10.7,18.5,10.7-18.5,10.7-18.5-10.7ZM448.8,151.4l-18.5,10.7-18.5-10.7,18.5-10.7,18.5,10.7ZM410.7,150.8l-18.5-10.7,18.5-10.7,18.5,10.7-18.5,10.7ZM409.6,151.4l-18.5,10.7-18.5-10.7,18.5-10.7,18.5,10.7ZM371.5,150.8l-18.5-10.7,18.5-10.7,18.5,10.7-18.5,10.7ZM370.4,151.4l-18.5,10.7-18.5-10.7,18.5-10.7,18.5,10.7ZM332.3,150.8l-18.5-10.7,18.5-10.7,18.5,10.7-18.5,10.7ZM350.8,162.7l-19.8,11.5-18.5-10.7,19.8-11.5,18.5,10.7ZM349.5,186.1l-18.5,10.7-18.5-10.7,18.5-10.7,18.5,10.7ZM349.5,208.8l-18.5,10.7-18.5-10.7,18.5-10.7,18.5,10.7ZM350.6,209.4l18.5,10.7-18.5,10.7-18.5-10.7,18.5-10.7ZM351.7,208.8l18.5-10.7,18.5,10.7-18.5,10.7-18.5-10.7ZM389.8,209.4l19.8,11.5-18.5,10.7-19.8-11.5,18.5-10.7ZM390.9,208.8l19.8-11.5,19.8,11.5-19.8,11.5-19.8-11.5ZM431.7,209.4l18.5,10.7-19.8,11.5-18.5-10.7,19.8-11.5h0ZM432.8,208.8l18.5-10.7,18.5,10.7-18.5,10.7-18.5-10.7ZM470.9,209.4l18.5,10.7-18.5,10.7-18.5-10.7,18.5-10.7ZM452.4,197.5l18.5-10.7,18.5,10.7-18.5,10.7-18.5-10.7ZM451,174l18.5-10.7,19.8,11.5-18.5,10.7-19.8-11.5ZM451,151.4l18.5-10.7,18.5,10.7-18.5,10.7-18.5-10.7ZM451,128.8l18.5-10.7,18.5,10.7-18.5,10.7-18.5-10.7ZM449.9,128.1l-18.5-10.7,18.5-10.7,18.5,10.7-18.5,10.7ZM448.8,128.8l-18.5,10.7-18.5-10.7,18.5-10.7,18.5,10.7ZM410.7,128.1l-18.5-10.7,18.5-10.7,18.5,10.7-18.5,10.7ZM409.6,128.8l-18.5,10.7-18.5-10.7,18.5-10.7,18.5,10.7ZM371.5,128.1l-18.5-10.7,18.5-10.7,18.5,10.7-18.5,10.7ZM370.4,128.8l-18.5,10.7-18.5-10.7,18.5-10.7,18.5,10.7ZM332.3,128.1l-18.5-10.7,18.5-10.7,18.5,10.7-18.5,10.7ZM331.2,128.8l-18.5,10.7-18.5-10.7,18.5-10.7,18.5,10.7ZM331.2,151.4l-19.8,11.5-18.5-10.7,19.8-11.5,18.5,10.7ZM329.8,174.8l-18.5,10.7-18.5-10.7,18.5-10.7,18.5,10.7ZM329.8,197.5l-18.5,10.7-18.5-10.7,18.5-10.7,18.5,10.7ZM329.8,220.1l-18.5,10.7-18.5-10.7,18.5-10.7,18.5,10.7ZM329.8,242.7l-18.5,10.7-18.5-10.7,18.5-10.7,18.5,10.7ZM312.5,231.4l18.5-10.7,18.5,10.7-18.5,10.7-18.5-10.7ZM350.6,232l19.8,11.5-18.5,10.7-19.8-11.5,18.5-10.7ZM351.7,231.4l18.5-10.7,19.8,11.5-18.5,10.7-19.8-11.5h0ZM391.1,232.8l18.5,10.7-18.5,10.7-18.5-10.7,18.5-10.7ZM392.2,232.2l18.5-10.7,18.5,10.7-18.5,10.7-18.5-10.7ZM430.3,232.8l18.5,10.7-18.5,10.7-18.5-10.7,18.5-10.7ZM431.4,232.2l19.8-11.5,18.5,10.7-19.8,11.5-18.5-10.7ZM470.9,232l18.5,10.7-19.8,11.5-18.5-10.7,19.8-11.5ZM472,231.4l18.5-10.7,18.5,10.7-18.5,10.7-18.5-10.7ZM472,208.8l18.5-10.7,18.5,10.7-18.5,10.7-18.5-10.7ZM472,186.1l18.5-10.7,18.5,10.7-18.5,10.7-18.5-10.7ZM470.6,162.7l18.5-10.7,19.8,11.5-18.5,10.7-19.8-11.5ZM470.6,140.1l18.5-10.7,18.5,10.7-18.5,10.7-18.5-10.7ZM470.6,117.5l18.5-10.7,18.5,10.7-18.5,10.7-18.5-10.7ZM470.6,94.8l18.5-10.7,18.5,10.7-18.5,10.7-18.5-10.7ZM488,106.2l-18.5,10.7-18.5-10.7,18.5-10.7,18.5,10.7ZM449.9,105.5l-18.5-10.7,18.5-10.7,18.5,10.7-18.5,10.7ZM448.8,106.2l-18.5,10.7-18.5-10.7,18.5-10.7,18.5,10.7ZM410.7,105.5l-18.5-10.7,18.5-10.7,18.5,10.7-18.5,10.7ZM409.6,106.2l-18.5,10.7-18.5-10.7,18.5-10.7,18.5,10.7ZM371.5,105.5l-18.5-10.7,18.5-10.7,18.5,10.7-18.5,10.7ZM370.4,106.2l-18.5,10.7-18.5-10.7,18.5-10.7,18.5,10.7ZM332.3,105.5l-18.5-10.7,18.5-10.7,18.5,10.7-18.5,10.7ZM331.2,106.2l-18.5,10.7-18.5-10.7,18.5-10.7,18.5,10.7ZM293.1,105.5l-18.5-10.7,18.5-10.7,18.5,10.7-18.5,10.7ZM311.6,117.5l-18.5,10.7-18.5-10.7,18.5-10.7,18.5,10.7ZM311.6,140.1l-19.8,11.5-18.5-10.7,19.8-11.5,18.5,10.7ZM310.3,163.5l-18.5,10.7-18.5-10.7,18.5-10.7,18.5,10.7ZM310.3,186.1l-18.5,10.7-18.5-10.7,18.5-10.7,18.5,10.7ZM310.3,208.8l-18.5,10.7-18.5-10.7,18.5-10.7,18.5,10.7ZM310.3,231.4l-18.5,10.7-18.5-10.7,18.5-10.7,18.5,10.7ZM310.3,254l-18.5,10.7-18.5-10.7,18.5-10.7,18.5,10.7h0ZM311.4,254.7l19.8,11.5-18.5,10.7-19.8-11.5,18.5-10.7h0ZM312.5,254l18.5-10.7,19.8,11.5-18.5,10.7-19.8-11.5h0ZM351.9,255.4l18.5,10.7-18.5,10.7-18.5-10.7,18.5-10.7h0ZM353,254.8l18.5-10.7,18.5,10.7-18.5,10.7-18.5-10.7ZM391.1,255.4l18.5,10.7-18.5,10.7-18.5-10.7,18.5-10.7h0ZM392.2,254.8l18.5-10.7,18.5,10.7-18.5,10.7-18.5-10.7ZM430.3,255.4l18.5,10.7-18.5,10.7-18.5-10.7,18.5-10.7h0ZM431.4,254.8l18.5-10.7,18.5,10.7-18.5,10.7-18.5-10.7ZM469.5,255.4l18.5,10.7-18.5,10.7-18.5-10.7,18.5-10.7h0ZM470.6,254.8l19.8-11.5,18.5,10.7-19.8,11.5-18.5-10.7ZM510,254.7l18.5,10.7-19.8,11.5-18.5-10.7,19.8-11.5h0ZM491.6,242.7l18.5-10.7,18.5,10.7-18.5,10.7-18.5-10.7h0ZM491.6,220.1l18.5-10.7,18.5,10.7-18.5,10.7-18.5-10.7h0ZM491.6,197.5l18.5-10.7,18.5,10.7-18.5,10.7-18.5-10.7h0ZM491.6,174.8l18.5-10.7,18.5,10.7-18.5,10.7-18.5-10.7h0ZM490.2,151.4l18.5-10.7,19.8,11.5-18.5,10.7-19.8-11.5ZM490.2,128.8l18.5-10.7,18.5,10.7-18.5,10.7-18.5-10.7ZM490.2,106.2l18.5-10.7,18.5,10.7-18.5,10.7-18.5-10.7ZM490.2,83.5l18.5-10.7,18.5,10.7-18.5,10.7-18.5-10.7ZM489.1,82.9l-18.5-10.7,18.5-10.7,18.5,10.7-18.5,10.7ZM488,83.5l-18.5,10.7-18.5-10.7,18.5-10.7,18.5,10.7ZM449.9,82.9l-18.5-10.7,18.5-10.7,18.5,10.7-18.5,10.7ZM448.8,83.5l-18.5,10.7-18.5-10.7,18.5-10.7,18.5,10.7ZM410.7,82.9l-18.5-10.7,18.5-10.7,18.5,10.7-18.5,10.7ZM409.6,83.5l-18.5,10.7-18.5-10.7,18.5-10.7,18.5,10.7ZM371.5,82.9l-18.5-10.7,18.5-10.7,18.5,10.7-18.5,10.7ZM370.4,83.5l-18.5,10.7-18.5-10.7,18.5-10.7,18.5,10.7ZM332.3,82.9l-18.5-10.7,18.5-10.7,18.5,10.7-18.5,10.7ZM331.2,83.5l-18.5,10.7-18.5-10.7,18.5-10.7,18.5,10.7ZM293.1,82.9l-18.5-10.7,18.5-10.7,18.5,10.7-18.5,10.7ZM292,83.5l-18.5,10.7-18.5-10.7,18.5-10.7,18.5,10.7ZM292,106.2l-18.5,10.7-18.5-10.7,18.5-10.7,18.5,10.7ZM292,128.8l-19.8,11.5-18.5-10.7,19.8-11.5,18.5,10.7ZM290.7,152.2l-18.5,10.7-18.5-10.7,18.5-10.7,18.5,10.7ZM290.7,174.8l-18.5,10.7-18.5-10.7,18.5-10.7,18.5,10.7ZM290.7,197.5l-18.5,10.7-18.5-10.7,18.5-10.7,18.5,10.7ZM290.7,220.1l-18.5,10.7-18.5-10.7,18.5-10.7,18.5,10.7ZM290.7,242.7l-18.5,10.7-18.5-10.7,18.5-10.7,18.5,10.7ZM290.7,265.3l-18.5,10.7-18.5-10.7,18.5-10.7,18.5,10.7ZM292,288.7l-18.5,10.7-19.8-11.5,18.5-10.7,19.8,11.5ZM273.3,276.6l18.5-10.7,19.8,11.5-18.5,10.7-19.8-11.5ZM312.7,278.1l18.5,10.7-18.5,10.7-18.5-10.7,18.5-10.7ZM313.8,277.4l18.5-10.7,18.5,10.7-18.5,10.7-18.5-10.7ZM351.9,278.1l18.5,10.7-18.5,10.7-18.5-10.7,18.5-10.7ZM353,277.4l18.5-10.7,18.5,10.7-18.5,10.7-18.5-10.7ZM391.1,278.1l18.5,10.7-18.5,10.7-18.5-10.7,18.5-10.7ZM392.2,277.4l18.5-10.7,18.5,10.7-18.5,10.7-18.5-10.7ZM430.3,278.1l18.5,10.7-18.5,10.7-18.5-10.7,18.5-10.7ZM431.4,277.4l18.5-10.7,18.5,10.7-18.5,10.7-18.5-10.7ZM469.5,278.1l18.5,10.7-18.5,10.7-18.5-10.7,18.5-10.7ZM470.6,277.4l18.5-10.7,18.5,10.7-18.5,10.7-18.5-10.7ZM508.7,278.1l18.5,10.7-18.5,10.7-18.5-10.7,18.5-10.7ZM509.8,277.4l19.8-11.5,18.5,10.7-19.8,11.5-18.5-10.7ZM511.1,254l18.5-10.7,18.5,10.7-18.5,10.7-18.5-10.7h0ZM511.1,231.4l18.5-10.7,18.5,10.7-18.5,10.7-18.5-10.7h0ZM511.1,208.8l18.5-10.7,18.5,10.7-18.5,10.7-18.5-10.7h0ZM511.1,186.1l18.5-10.7,18.5,10.7-18.5,10.7-18.5-10.7h0ZM511.1,163.5l18.5-10.7,18.5,10.7-18.5,10.7-18.5-10.7h0ZM509.8,140.1l18.5-10.7,19.8,11.5-18.5,10.7-19.8-11.5ZM509.8,117.5l18.5-10.7,18.5,10.7-18.5,10.7-18.5-10.7ZM509.8,94.8l18.5-10.7,18.5,10.7-18.5,10.7-18.5-10.7ZM509.8,72.2l18.5-10.7,18.5,10.7-18.5,10.7-18.5-10.7ZM509.8,49.6l18.5-10.7,18.5,10.7-18.5,10.7-18.5-10.7ZM527.2,60.9l-18.5,10.7-18.5-10.7,18.5-10.7s18.5,10.7,18.5,10.7ZM489.1,60.3l-18.5-10.7,18.5-10.7,18.5,10.7-18.5,10.7ZM488,60.9l-18.5,10.7-18.5-10.7,18.5-10.7s18.5,10.7,18.5,10.7ZM449.9,60.3l-18.5-10.7,18.5-10.7,18.5,10.7-18.5,10.7ZM448.8,60.9l-18.5,10.7-18.5-10.7,18.5-10.7s18.5,10.7,18.5,10.7ZM410.7,60.3l-18.5-10.7,18.5-10.7,18.5,10.7-18.5,10.7ZM409.6,60.9l-18.5,10.7-18.5-10.7,18.5-10.7s18.5,10.7,18.5,10.7ZM371.5,60.3l-18.5-10.7,18.5-10.7,18.5,10.7-18.5,10.7ZM370.4,60.9l-18.5,10.7-18.5-10.7,18.5-10.7s18.5,10.7,18.5,10.7ZM332.3,60.3l-18.5-10.7,18.5-10.7,18.5,10.7-18.5,10.7ZM331.2,60.9l-18.5,10.7-18.5-10.7,18.5-10.7s18.5,10.7,18.5,10.7ZM293.1,60.3l-18.5-10.7,18.5-10.7,18.5,10.7-18.5,10.7ZM292,60.9l-18.5,10.7-18.5-10.7,18.5-10.7s18.5,10.7,18.5,10.7ZM254,60.3l-18.5-10.7,18.5-10.7,18.5,10.7-18.5,10.7ZM272.4,72.2l-18.5,10.7-18.5-10.7,18.5-10.7,18.5,10.7ZM272.4,94.8l-18.5,10.7-18.5-10.7,18.5-10.7,18.5,10.7ZM272.4,117.5l-19.8,11.5-18.5-10.7,19.8-11.5,18.5,10.7ZM271.1,140.9l-18.5,10.7-18.5-10.7,18.5-10.7,18.5,10.7ZM271.1,163.5l-18.5,10.7-18.5-10.7,18.5-10.7,18.5,10.7ZM271.1,186.1l-18.5,10.7-18.5-10.7,18.5-10.7,18.5,10.7ZM271.1,208.8l-18.5,10.7-18.5-10.7,18.5-10.7,18.5,10.7ZM271.1,231.4l-18.5,10.7-18.5-10.7,18.5-10.7,18.5,10.7ZM271.1,254l-18.5,10.7-18.5-10.7,18.5-10.7,18.5,10.7h0ZM271.1,276.6l-18.5,10.7-18.5-10.7,18.5-10.7,18.5,10.7ZM272.4,300.1l-18.5,10.7-19.8-11.5,18.5-10.7,19.8,11.5ZM273.5,300.7l18.5,10.7-18.5,10.7-18.5-10.7,18.5-10.7ZM274.6,300.1l18.5-10.7,18.5,10.7-18.5,10.7-18.5-10.7ZM312.7,300.7l18.5,10.7-18.5,10.7-18.5-10.7,18.5-10.7ZM313.8,300.1l18.5-10.7,18.5,10.7-18.5,10.7-18.5-10.7ZM351.9,300.7l18.5,10.7-18.5,10.7-18.5-10.7,18.5-10.7ZM353,300.1l18.5-10.7,18.5,10.7-18.5,10.7-18.5-10.7ZM391.1,300.7l18.5,10.7-18.5,10.7-18.5-10.7,18.5-10.7ZM392.2,300.1l18.5-10.7,18.5,10.7-18.5,10.7-18.5-10.7ZM430.3,300.7l18.5,10.7-18.5,10.7-18.5-10.7,18.5-10.7ZM431.4,300.1l18.5-10.7,18.5,10.7-18.5,10.7-18.5-10.7ZM469.5,300.7l18.5,10.7-18.5,10.7-18.5-10.7,18.5-10.7ZM470.6,300.1l18.5-10.7,18.5,10.7-18.5,10.7-18.5-10.7ZM508.7,300.7l18.5,10.7-18.5,10.7-18.5-10.7,18.5-10.7ZM509.8,300.1l18.5-10.7,18.5,10.7-18.5,10.7-18.5-10.7ZM547.9,300.7l18.5,10.7-18.5,10.7-18.5-10.7,18.5-10.7ZM529.4,288.7l19.8-11.5,18.5,10.7-19.8,11.5-18.5-10.7ZM530.8,265.3l18.5-10.7,18.5,10.7-18.5,10.7-18.5-10.7ZM530.8,242.7l18.5-10.7,18.5,10.7-18.5,10.7-18.5-10.7ZM530.8,220.1l18.5-10.7,18.5,10.7-18.5,10.7-18.5-10.7ZM530.8,197.5l18.5-10.7,18.5,10.7-18.5,10.7-18.5-10.7ZM530.8,174.8l18.5-10.7,18.5,10.7-18.5,10.7-18.5-10.7ZM530.8,152.2l18.5-10.7,18.5,10.7-18.5,10.7-18.5-10.7ZM529.4,128.8l18.5-10.7,19.8,11.5-18.5,10.7-19.8-11.5ZM529.4,106.2l18.5-10.7,18.5,10.7-18.5,10.7-18.5-10.7ZM529.4,83.5l18.5-10.7,18.5,10.7-18.5,10.7-18.5-10.7ZM529.4,60.9l18.5-10.7,18.5,10.7-18.5,10.7s-18.5-10.7-18.5-10.7ZM529.4,38.3l18.5-10.7,18.5,10.7-18.5,10.7-18.5-10.7ZM528.3,37.6l-18.5-10.7,18.5-10.7,18.5,10.7-18.5,10.7ZM527.2,38.3l-18.5,10.7-18.5-10.7,18.5-10.7,18.5,10.7ZM489.1,37.6l-18.5-10.7,18.5-10.7,18.5,10.7-18.5,10.7ZM488,38.3l-18.5,10.7-18.5-10.7,18.5-10.7,18.5,10.7ZM449.9,37.6l-18.5-10.7,18.5-10.7,18.5,10.7-18.5,10.7ZM448.8,38.3l-18.5,10.7-18.5-10.7,18.5-10.7,18.5,10.7ZM410.7,37.6l-18.5-10.7,18.5-10.7,18.5,10.7-18.5,10.7ZM409.6,38.3l-18.5,10.7-18.5-10.7,18.5-10.7,18.5,10.7ZM371.5,37.6l-18.5-10.7,18.5-10.7,18.5,10.7-18.5,10.7ZM370.4,38.3l-18.5,10.7-18.5-10.7,18.5-10.7,18.5,10.7ZM332.3,37.6l-18.5-10.7,18.5-10.7,18.5,10.7-18.5,10.7ZM331.2,38.3l-18.5,10.7-18.5-10.7,18.5-10.7,18.5,10.7ZM293.1,37.6l-18.5-10.7,18.5-10.7,18.5,10.7-18.5,10.7ZM292,38.3l-18.5,10.7-18.5-10.7,18.5-10.7,18.5,10.7ZM254,37.6l-18.5-10.7,18.5-10.7,18.5,10.7-18.5,10.7ZM252.8,38.3l-18.5,10.7-18.5-10.7,18.5-10.7,18.5,10.7ZM252.8,60.9l-18.5,10.7-18.5-10.7,18.5-10.7s18.5,10.7,18.5,10.7ZM252.8,83.5l-18.5,10.7-18.5-10.7,18.5-10.7,18.5,10.7ZM252.8,106.2l-19.8,11.5-18.5-10.7,19.8-11.5,18.5,10.7ZM251.5,129.6l-18.5,10.7-18.5-10.7,18.5-10.7,18.5,10.7ZM251.5,152.2l-18.5,10.7-18.5-10.7,18.5-10.7,18.5,10.7ZM251.5,174.8l-18.5,10.7-18.5-10.7,18.5-10.7,18.5,10.7ZM251.5,197.5l-18.5,10.7-18.5-10.7,18.5-10.7,18.5,10.7ZM251.5,220.1l-18.5,10.7-18.5-10.7,18.5-10.7,18.5,10.7ZM251.5,242.7l-18.5,10.7-18.5-10.7,18.5-10.7,18.5,10.7ZM251.5,265.3l-18.5,10.7-18.5-10.7,18.5-10.7,18.5,10.7ZM251.5,288l-18.5,10.7-18.5-10.7,18.5-10.7,18.5,10.7ZM252.8,311.4l-18.5,10.7-19.8-11.5,18.5-10.7,19.8,11.5ZM252.8,334l-18.5,10.7-18.5-10.7,18.5-10.7,18.5,10.7ZM235.5,322.7l18.5-10.7,18.5,10.7-18.5,10.7-18.5-10.7ZM273.5,323.3l18.5,10.7-18.5,10.7-18.5-10.7,18.5-10.7ZM274.6,322.7l18.5-10.7,18.5,10.7-18.5,10.7-18.5-10.7ZM312.7,323.3l18.5,10.7-18.5,10.7-18.5-10.7,18.5-10.7ZM313.8,322.7l18.5-10.7,18.5,10.7-18.5,10.7-18.5-10.7ZM351.9,323.3l18.5,10.7-18.5,10.7-18.5-10.7,18.5-10.7ZM353,322.7l18.5-10.7,18.5,10.7-18.5,10.7-18.5-10.7ZM391.1,323.3l18.5,10.7-18.5,10.7-18.5-10.7,18.5-10.7ZM392.2,322.7l18.5-10.7,18.5,10.7-18.5,10.7-18.5-10.7ZM430.3,323.3l18.5,10.7-18.5,10.7-18.5-10.7,18.5-10.7ZM431.4,322.7l18.5-10.7,18.5,10.7-18.5,10.7-18.5-10.7ZM469.5,323.3l18.5,10.7-18.5,10.7-18.5-10.7,18.5-10.7ZM470.6,322.7l18.5-10.7,18.5,10.7-18.5,10.7-18.5-10.7ZM508.7,323.3l18.5,10.7-18.5,10.7-18.5-10.7,18.5-10.7ZM509.8,322.7l18.5-10.7,18.5,10.7-18.5,10.7-18.5-10.7ZM547.9,323.3l18.5,10.7-18.5,10.7-18.5-10.7,18.5-10.7ZM549,322.7l18.5-10.7,18.5,10.7-18.5,10.7-18.5-10.7ZM549,300.1l19.8-11.5,18.5,10.7-19.8,11.5-18.5-10.7ZM550.3,276.6l18.5-10.7,18.5,10.7-18.5,10.7-18.5-10.7ZM550.3,254l18.5-10.7,18.5,10.7-18.5,10.7-18.5-10.7h0ZM550.3,231.4l18.5-10.7,18.5,10.7-18.5,10.7-18.5-10.7ZM550.3,208.8l18.5-10.7,18.5,10.7-18.5,10.7-18.5-10.7ZM550.3,186.1l18.5-10.7,18.5,10.7-18.5,10.7-18.5-10.7ZM550.3,163.5l18.5-10.7,18.5,10.7-18.5,10.7-18.5-10.7ZM550.3,140.9l18.5-10.7,18.5,10.7-18.5,10.7-18.5-10.7ZM549,117.5l18.5-10.7,19.8,11.5-18.5,10.7-19.8-11.5ZM549,94.8l18.5-10.7,18.5,10.7-18.5,10.7-18.5-10.7ZM549,72.2l18.5-10.7,18.5,10.7-18.5,10.7-18.5-10.7ZM549,49.6l18.5-10.7,18.5,10.7-18.5,10.7-18.5-10.7ZM549,27l18.5-10.7,18.5,10.7-18.5,10.7-18.5-10.7ZM549,4.3l18.5-10.7,18.5,10.7-18.5,10.7-18.5-10.7ZM566.4,15.6l-18.5,10.7-18.5-10.7,18.5-10.7s18.5,10.7,18.5,10.7ZM528.3,15l-18.5-10.7,18.5-10.7,18.5,10.7-18.5,10.7ZM527.2,15.6l-18.5,10.7-18.5-10.7,18.5-10.7s18.5,10.7,18.5,10.7ZM489.1,15l-18.5-10.7,18.5-10.7,18.5,10.7-18.5,10.7ZM488,15.6l-18.5,10.7-18.5-10.7,18.5-10.7s18.5,10.7,18.5,10.7ZM449.9,15l-18.5-10.7,18.5-10.7,18.5,10.7-18.5,10.7ZM448.8,15.6l-18.5,10.7-18.5-10.7,18.5-10.7s18.5,10.7,18.5,10.7ZM410.7,15l-18.5-10.7,18.5-10.7,18.5,10.7-18.5,10.7ZM409.6,15.6l-18.5,10.7-18.5-10.7,18.5-10.7s18.5,10.7,18.5,10.7ZM371.5,15l-18.5-10.7,18.5-10.7,18.5,10.7-18.5,10.7ZM370.4,15.6l-18.5,10.7-18.5-10.7,18.5-10.7s18.5,10.7,18.5,10.7ZM332.3,15l-18.5-10.7,18.5-10.7,18.5,10.7-18.5,10.7ZM331.2,15.6l-18.5,10.7-18.5-10.7,18.5-10.7s18.5,10.7,18.5,10.7ZM293.1,15l-18.5-10.7,18.5-10.7,18.5,10.7-18.5,10.7ZM292,15.6l-18.5,10.7-18.5-10.7,18.5-10.7s18.5,10.7,18.5,10.7ZM254,15l-18.5-10.7,18.5-10.7,18.5,10.7-18.5,10.7ZM252.8,15.6l-18.5,10.7-18.5-10.7,18.5-10.7s18.5,10.7,18.5,10.7ZM214.8,15l-18.5-10.7,18.5-10.7,18.5,10.7-18.5,10.7ZM233.2,27l-18.5,10.7-18.5-10.7,18.5-10.7,18.5,10.7ZM233.2,49.6l-18.5,10.7-18.5-10.7,18.5-10.7,18.5,10.7ZM233.2,72.2l-18.5,10.7-18.5-10.7,18.5-10.7,18.5,10.7ZM233.2,94.8l-19.8,11.5-18.5-10.7,19.8-11.5,18.5,10.7ZM231.9,118.3l-18.5,10.7-18.5-10.7,18.5-10.7,18.5,10.7ZM231.9,140.9l-18.5,10.7-18.5-10.7,18.5-10.7,18.5,10.7ZM231.9,163.5l-18.5,10.7-18.5-10.7,18.5-10.7,18.5,10.7h0ZM231.9,186.1l-18.5,10.7-18.5-10.7,18.5-10.7,18.5,10.7ZM231.9,208.8l-18.5,10.7-18.5-10.7,18.5-10.7,18.5,10.7ZM231.9,231.4l-18.5,10.7-18.5-10.7,18.5-10.7,18.5,10.7ZM231.9,254l-18.5,10.7-18.5-10.7,18.5-10.7,18.5,10.7h0ZM231.9,276.6l-18.5,10.7-18.5-10.7,18.5-10.7,18.5,10.7ZM231.9,299.3l-18.5,10.7-18.5-10.7,18.5-10.7,18.5,10.7ZM233.2,322.7l-18.5,10.7-19.8-11.5,18.5-10.7,19.8,11.5h0ZM233.2,345.3l-18.5,10.7-18.5-10.7,18.5-10.7,18.5,10.7ZM234.3,346l18.5,10.7-18.5,10.7-18.5-10.7,18.5-10.7ZM235.5,345.3l18.5-10.7,18.5,10.7-18.5,10.7-18.5-10.7ZM273.5,346l18.5,10.7-18.5,10.7-18.5-10.7,18.5-10.7ZM274.6,345.3l18.5-10.7,18.5,10.7-18.5,10.7-18.5-10.7ZM312.7,346l18.5,10.7-18.5,10.7-18.5-10.7,18.5-10.7ZM313.8,345.3l18.5-10.7,18.5,10.7-18.5,10.7-18.5-10.7ZM351.9,346l18.5,10.7-18.5,10.7-18.5-10.7,18.5-10.7ZM353,345.3l18.5-10.7,18.5,10.7-18.5,10.7-18.5-10.7ZM391.1,346l18.5,10.7-18.5,10.7-18.5-10.7,18.5-10.7ZM392.2,345.3l18.5-10.7,18.5,10.7-18.5,10.7-18.5-10.7ZM430.3,346l18.5,10.7-18.5,10.7-18.5-10.7,18.5-10.7ZM431.4,345.3l18.5-10.7,18.5,10.7-18.5,10.7-18.5-10.7ZM469.5,346l18.5,10.7-18.5,10.7-18.5-10.7,18.5-10.7ZM470.6,345.3l18.5-10.7,18.5,10.7-18.5,10.7-18.5-10.7ZM508.7,346l18.5,10.7-18.5,10.7-18.5-10.7,18.5-10.7ZM509.8,345.3l18.5-10.7,18.5,10.7-18.5,10.7-18.5-10.7ZM547.9,346l18.5,10.7-18.5,10.7-18.5-10.7,18.5-10.7ZM549,345.3l18.5-10.7,18.5,10.7-18.5,10.7-18.5-10.7ZM587.1,346l18.5,10.7-18.5,10.7-18.5-10.7,18.5-10.7ZM568.6,334l18.5-10.7,18.5,10.7-18.5,10.7-18.5-10.7ZM568.6,311.4l19.8-11.5,18.5,10.7-19.8,11.5-18.5-10.7ZM569.9,288l18.5-10.7,18.5,10.7-18.5,10.7-18.5-10.7ZM569.9,265.3l18.5-10.7,18.5,10.7-18.5,10.7-18.5-10.7ZM569.9,242.7l18.5-10.7,18.5,10.7-18.5,10.7-18.5-10.7ZM569.9,220.1l18.5-10.7,18.5,10.7-18.5,10.7-18.5-10.7ZM569.9,197.5l18.5-10.7,18.5,10.7-18.5,10.7-18.5-10.7ZM569.9,174.8l18.5-10.7,18.5,10.7-18.5,10.7-18.5-10.7ZM569.9,152.2l18.5-10.7,18.5,10.7-18.5,10.7-18.5-10.7ZM569.9,129.6l18.5-10.7,18.5,10.7-18.5,10.7-18.5-10.7ZM568.6,106.2l18.5-10.7,19.8,11.5-18.5,10.7-19.8-11.5ZM568.6,83.5l18.5-10.7,18.5,10.7-18.5,10.7-18.5-10.7ZM568.6,60.9l18.5-10.7,18.5,10.7-18.5,10.7s-18.5-10.7-18.5-10.7ZM568.6,38.3l18.5-10.7,18.5,10.7-18.5,10.7-18.5-10.7ZM568.6,15.6l18.5-10.7,18.5,10.7-18.5,10.7s-18.5-10.7-18.5-10.7ZM568.6-7l18.5-10.7,18.5,10.7-18.5,10.7s-18.5-10.7-18.5-10.7ZM567.5-7.6l-18.5-10.7,18.5-10.7,18.5,10.7s-18.5,10.7-18.5,10.7ZM566.4-7l-18.5,10.7-18.5-10.7,18.5-10.7s18.5,10.7,18.5,10.7ZM528.3-7.6l-18.5-10.7,18.5-10.7,18.5,10.7s-18.5,10.7-18.5,10.7ZM527.2-7l-18.5,10.7-18.5-10.7,18.5-10.7s18.5,10.7,18.5,10.7ZM489.1-7.6l-18.5-10.7,18.5-10.7,18.5,10.7s-18.5,10.7-18.5,10.7ZM488-7l-18.5,10.7-18.5-10.7,18.5-10.7s18.5,10.7,18.5,10.7ZM449.9-7.6l-18.5-10.7,18.5-10.7,18.5,10.7s-18.5,10.7-18.5,10.7ZM448.8-7l-18.5,10.7-18.5-10.7,18.5-10.7s18.5,10.7,18.5,10.7ZM410.7-7.6l-18.5-10.7,18.5-10.7,18.5,10.7s-18.5,10.7-18.5,10.7ZM409.6-7l-18.5,10.7-18.5-10.7,18.5-10.7s18.5,10.7,18.5,10.7ZM371.5-7.6l-18.5-10.7,18.5-10.7,18.5,10.7s-18.5,10.7-18.5,10.7ZM370.4-7l-18.5,10.7-18.5-10.7,18.5-10.7s18.5,10.7,18.5,10.7ZM332.3-7.6l-18.5-10.7,18.5-10.7,18.5,10.7s-18.5,10.7-18.5,10.7ZM331.2-7l-18.5,10.7-18.5-10.7,18.5-10.7s18.5,10.7,18.5,10.7ZM293.1-7.6l-18.5-10.7,18.5-10.7,18.5,10.7s-18.5,10.7-18.5,10.7ZM292-7l-18.5,10.7-18.5-10.7,18.5-10.7s18.5,10.7,18.5,10.7ZM254-7.6l-18.5-10.7,18.5-10.7,18.5,10.7s-18.5,10.7-18.5,10.7ZM252.8-7l-18.5,10.7-18.5-10.7,18.5-10.7s18.5,10.7,18.5,10.7ZM214.8-7.6l-18.5-10.7,18.5-10.7,18.5,10.7s-18.5,10.7-18.5,10.7ZM213.7-7l-18.5,10.7-18.5-10.7,18.5-10.7s18.5,10.7,18.5,10.7ZM213.7,15.6l-18.5,10.7-18.5-10.7,18.5-10.7s18.5,10.7,18.5,10.7ZM213.7,38.3l-18.5,10.7-18.5-10.7,18.5-10.7,18.5,10.7ZM213.7,60.9l-18.5,10.7-18.5-10.7,18.5-10.7s18.5,10.7,18.5,10.7ZM213.7,83.5l-19.8,11.5-18.5-10.7,19.8-11.5,18.5,10.7h0ZM212.3,106.9l-18.5,10.7-18.5-10.7,18.5-10.7,18.5,10.7ZM212.3,129.6l-18.5,10.7-18.5-10.7,18.5-10.7,18.5,10.7ZM212.3,152.2l-18.5,10.7-18.5-10.7,18.5-10.7,18.5,10.7ZM212.3,174.8l-18.5,10.7-18.5-10.7,18.5-10.7,18.5,10.7ZM212.3,197.5l-18.5,10.7-18.5-10.7,18.5-10.7,18.5,10.7ZM212.3,220.1l-18.5,10.7-18.5-10.7,18.5-10.7,18.5,10.7ZM212.3,242.7l-18.5,10.7-18.5-10.7,18.5-10.7,18.5,10.7ZM212.3,265.3l-18.5,10.7-18.5-10.7,18.5-10.7,18.5,10.7ZM212.3,288l-18.5,10.7-18.5-10.7,18.5-10.7,18.5,10.7ZM212.3,310.6l-18.5,10.7-18.5-10.7,18.5-10.7,18.5,10.7ZM213.7,334l-18.5,10.7-19.8-11.5,18.5-10.7,19.8,11.5h0ZM213.7,356.6l-18.5,10.7-18.5-10.7,18.5-10.7,18.5,10.7ZM213.7,379.3l-18.5,10.7-18.5-10.7,18.5-10.7,18.5,10.7ZM196.3,367.9l18.5-10.7,18.5,10.7-18.5,10.7-18.5-10.7ZM234.3,368.6l18.5,10.7-18.5,10.7-18.5-10.7,18.5-10.7ZM235.5,367.9l18.5-10.7,18.5,10.7-18.5,10.7-18.5-10.7ZM273.5,368.6l18.5,10.7-18.5,10.7-18.5-10.7,18.5-10.7ZM274.6,367.9l18.5-10.7,18.5,10.7-18.5,10.7-18.5-10.7ZM312.7,368.6l18.5,10.7-18.5,10.7-18.5-10.7,18.5-10.7ZM313.8,367.9l18.5-10.7,18.5,10.7-18.5,10.7-18.5-10.7ZM351.9,368.6l18.5,10.7-18.5,10.7-18.5-10.7,18.5-10.7ZM353,367.9l18.5-10.7,18.5,10.7-18.5,10.7-18.5-10.7ZM391.1,368.6l18.5,10.7-18.5,10.7-18.5-10.7,18.5-10.7ZM392.2,367.9l18.5-10.7,18.5,10.7-18.5,10.7-18.5-10.7ZM430.3,368.6l18.5,10.7-18.5,10.7-18.5-10.7,18.5-10.7ZM431.4,367.9l18.5-10.7,18.5,10.7-18.5,10.7-18.5-10.7ZM469.5,368.6l18.5,10.7-18.5,10.7-18.5-10.7,18.5-10.7ZM470.6,367.9l18.5-10.7,18.5,10.7-18.5,10.7-18.5-10.7ZM508.7,368.6l18.5,10.7-18.5,10.7-18.5-10.7,18.5-10.7ZM509.8,367.9l18.5-10.7,18.5,10.7-18.5,10.7-18.5-10.7ZM547.9,368.6l18.5,10.7-18.5,10.7-18.5-10.7,18.5-10.7ZM549,367.9l18.5-10.7,18.5,10.7-18.5,10.7-18.5-10.7ZM587.1,368.6l18.5,10.7-18.5,10.7-18.5-10.7,18.5-10.7ZM588.2,367.9l18.5-10.7,18.5,10.7-18.5,10.7-18.5-10.7ZM588.2,345.3l18.5-10.7,18.5,10.7-18.5,10.7-18.5-10.7ZM588.2,322.7l19.8-11.5,18.5,10.7-19.8,11.5-18.5-10.7ZM589.5,299.3l18.5-10.7,18.5,10.7-18.5,10.7-18.5-10.7ZM589.5,276.6l18.5-10.7,18.5,10.7-18.5,10.7-18.5-10.7ZM589.5,254l18.5-10.7,18.5,10.7-18.5,10.7-18.5-10.7h0ZM589.5,231.4l18.5-10.7,18.5,10.7-18.5,10.7-18.5-10.7ZM589.5,208.8l18.5-10.7,18.5,10.7-18.5,10.7-18.5-10.7ZM589.5,186.1l18.5-10.7,18.5,10.7-18.5,10.7-18.5-10.7ZM589.5,163.5l18.5-10.7,18.5,10.7-18.5,10.7-18.5-10.7ZM589.5,140.9l18.5-10.7,18.5,10.7-18.5,10.7-18.5-10.7ZM589.5,118.3l18.5-10.7,18.5,10.7-18.5,10.7-18.5-10.7ZM588.2,94.8l18.5-10.7,19.8,11.5-18.5,10.7-19.8-11.5ZM588.2,72.2l18.5-10.7,18.5,10.7-18.5,10.7-18.5-10.7ZM588.2,49.6l18.5-10.7,18.5,10.7-18.5,10.7-18.5-10.7ZM588.2,27l18.5-10.7,18.5,10.7-18.5,10.7-18.5-10.7ZM588.2,4.3l18.5-10.7,18.5,10.7-18.5,10.7-18.5-10.7ZM588.2-18.3l18.5-10.7,18.5,10.7-18.5,10.7-18.5-10.7ZM588.2-40.9l20.5-11.8,18.5,10.7-20.5,11.8-18.5-10.7ZM605.6-29.6l-18.5,10.7-18.5-10.7,18.5-10.7s18.5,10.7,18.5,10.7ZM567.5-30.2l-18.5-10.7,18.5-10.7,18.5,10.7-18.5,10.7ZM566.4-29.6l-18.5,10.7-18.5-10.7,18.5-10.7s18.5,10.7,18.5,10.7ZM528.3-30.2l-18.5-10.7,18.5-10.7,18.5,10.7-18.5,10.7ZM527.2-29.6l-18.5,10.7-18.5-10.7,18.5-10.7s18.5,10.7,18.5,10.7ZM489.1-30.2l-18.5-10.7,18.5-10.7,18.5,10.7-18.5,10.7ZM488-29.6l-18.5,10.7-18.5-10.7,18.5-10.7s18.5,10.7,18.5,10.7ZM449.9-30.2l-18.5-10.7,18.5-10.7,18.5,10.7-18.5,10.7ZM448.8-29.6l-18.5,10.7-18.5-10.7,18.5-10.7s18.5,10.7,18.5,10.7ZM410.7-30.2l-18.5-10.7,18.5-10.7,18.5,10.7-18.5,10.7ZM409.6-29.6l-18.5,10.7-18.5-10.7,18.5-10.7s18.5,10.7,18.5,10.7ZM371.5-30.2l-18.5-10.7,18.5-10.7,18.5,10.7-18.5,10.7ZM370.4-29.6l-18.5,10.7-18.5-10.7,18.5-10.7s18.5,10.7,18.5,10.7ZM332.3-30.2l-18.5-10.7,18.5-10.7,18.5,10.7-18.5,10.7ZM331.2-29.6l-18.5,10.7-18.5-10.7,18.5-10.7s18.5,10.7,18.5,10.7ZM293.1-30.2l-18.5-10.7,18.5-10.7,18.5,10.7-18.5,10.7ZM292-29.6l-18.5,10.7-18.5-10.7,18.5-10.7s18.5,10.7,18.5,10.7ZM254-30.2l-18.5-10.7,18.5-10.7,18.5,10.7-18.5,10.7ZM252.8-29.6l-18.5,10.7-18.5-10.7,18.5-10.7s18.5,10.7,18.5,10.7ZM214.8-30.2l-20.5-11.8,18.5-10.7,20.5,11.8-18.5,10.7ZM213.7-29.6l-18.5,10.7-20.5-11.8,18.5-10.7,20.5,11.8h0ZM173.5-31.4l-18.5-10.7,18.5-10.7,18.5,10.7s-18.5,10.7-18.5,10.7ZM194-18.3l-18.5,10.7-20.5-11.8,18.5-10.7,20.5,11.8ZM194,4.3l-18.5,10.7-18.5-10.7,18.5-10.7,18.5,10.7ZM194,27l-18.5,10.7-18.5-10.7,18.5-10.7,18.5,10.7ZM194,49.6l-18.5,10.7-18.5-10.7,18.5-10.7,18.5,10.7ZM194,72.2l-19.8,11.5-18.5-10.7,19.8-11.5,18.5,10.7ZM192.7,95.6l-18.5,10.7-18.5-10.7,18.5-10.7,18.5,10.7ZM192.7,118.3l-18.5,10.7-18.5-10.7,18.5-10.7,18.5,10.7ZM192.7,140.9l-18.5,10.7-18.5-10.7,18.5-10.7,18.5,10.7ZM192.7,163.5l-18.5,10.7-18.5-10.7,18.5-10.7,18.5,10.7ZM192.7,186.1l-18.5,10.7-18.5-10.7,18.5-10.7,18.5,10.7ZM192.7,208.8l-18.5,10.7-18.5-10.7,18.5-10.7,18.5,10.7ZM192.7,231.4l-18.5,10.7-18.5-10.7,18.5-10.7,18.5,10.7ZM192.7,254l-18.5,10.7-18.5-10.7,18.5-10.7,18.5,10.7h0ZM192.7,276.6l-18.5,10.7-18.5-10.7,18.5-10.7,18.5,10.7ZM192.7,299.3l-18.5,10.7-18.5-10.7,18.5-10.7,18.5,10.7ZM192.7,321.9l-18.5,10.7-18.5-10.7,18.5-10.7,18.5,10.7ZM194,345.3l-18.5,10.7-19.8-11.5,18.5-10.7,19.8,11.5ZM194,367.9l-18.5,10.7-18.5-10.7,18.5-10.7,18.5,10.7ZM194,390.6l-18.5,10.7-18.5-10.7,18.5-10.7,18.5,10.7ZM195.2,391.2l18.5,10.7-18.5,10.7-18.5-10.7,18.5-10.7ZM196.3,390.6l18.5-10.7,18.5,10.7-18.5,10.7-18.5-10.7ZM234.3,391.2l18.5,10.7-18.5,10.7-18.5-10.7,18.5-10.7ZM235.5,390.6l18.5-10.7,18.5,10.7-18.5,10.7-18.5-10.7ZM273.5,391.2l18.5,10.7-18.5,10.7-18.5-10.7,18.5-10.7ZM274.6,390.6l18.5-10.7,18.5,10.7-18.5,10.7-18.5-10.7ZM312.7,391.2l18.5,10.7-18.5,10.7-18.5-10.7,18.5-10.7ZM313.8,390.6l18.5-10.7,18.5,10.7-18.5,10.7-18.5-10.7ZM351.9,391.2l18.5,10.7-18.5,10.7-18.5-10.7,18.5-10.7ZM353,390.6l18.5-10.7,18.5,10.7-18.5,10.7-18.5-10.7ZM391.1,391.2l18.5,10.7-18.5,10.7-18.5-10.7,18.5-10.7ZM392.2,390.6l18.5-10.7,18.5,10.7-18.5,10.7-18.5-10.7ZM430.3,391.2l18.5,10.7-18.5,10.7-18.5-10.7,18.5-10.7ZM431.4,390.6l18.5-10.7,18.5,10.7-18.5,10.7-18.5-10.7ZM469.5,391.2l18.5,10.7-18.5,10.7-18.5-10.7,18.5-10.7ZM470.6,390.6l18.5-10.7,18.5,10.7-18.5,10.7-18.5-10.7ZM508.7,391.2l18.5,10.7-18.5,10.7-18.5-10.7,18.5-10.7ZM509.8,390.6l18.5-10.7,18.5,10.7-18.5,10.7-18.5-10.7ZM547.9,391.2l18.5,10.7-18.5,10.7-18.5-10.7,18.5-10.7ZM549,390.6l18.5-10.7,18.5,10.7-18.5,10.7-18.5-10.7ZM587.1,391.2l18.5,10.7-18.5,10.7-18.5-10.7,18.5-10.7ZM588.2,390.6l18.5-10.7,18.5,10.7-18.5,10.7-18.5-10.7ZM626.3,391.2l18.5,10.7-18.5,10.7-18.5-10.7,18.5-10.7ZM607.8,379.3l18.5-10.7,18.5,10.7-18.5,10.7-18.5-10.7ZM607.8,356.6l18.5-10.7,18.5,10.7-18.5,10.7-18.5-10.7ZM607.8,334l19.8-11.5,18.5,10.7-19.8,11.5-18.5-10.7h0ZM609.1,310.6l18.5-10.7,18.5,10.7-18.5,10.7-18.5-10.7ZM609.1,288l18.5-10.7,18.5,10.7-18.5,10.7-18.5-10.7ZM609.1,265.3l18.5-10.7,18.5,10.7-18.5,10.7-18.5-10.7ZM609.1,242.7l18.5-10.7,18.5,10.7-18.5,10.7-18.5-10.7ZM609.1,220.1l18.5-10.7,18.5,10.7-18.5,10.7-18.5-10.7ZM609.1,197.5l18.5-10.7,18.5,10.7-18.5,10.7-18.5-10.7ZM609.1,174.8l18.5-10.7,18.5,10.7-18.5,10.7-18.5-10.7ZM609.1,152.2l18.5-10.7,18.5,10.7-18.5,10.7-18.5-10.7ZM609.1,129.6l18.5-10.7,18.5,10.7-18.5,10.7-18.5-10.7ZM609.1,106.9l18.5-10.7,18.5,10.7-18.5,10.7-18.5-10.7ZM607.8,83.5l18.5-10.7,19.8,11.5-18.5,10.7-19.8-11.5h0ZM607.8,60.9l18.5-10.7,18.5,10.7-18.5,10.7s-18.5-10.7-18.5-10.7ZM607.8,38.3l18.5-10.7,18.5,10.7-18.5,10.7-18.5-10.7ZM607.8,15.6l18.5-10.7,18.5,10.7-18.5,10.7s-18.5-10.7-18.5-10.7ZM607.8-7l18.5-10.7,18.5,10.7-18.5,10.7s-18.5-10.7-18.5-10.7ZM607.8-29.6l20.5-11.8,18.5,10.7-20.5,11.8s-18.5-10.7-18.5-10.7ZM609.8-53.4l18.5-10.7,18.5,10.7-18.5,10.7s-18.5-10.7-18.5-10.7ZM608.7-54.1l-18.5-10.7,18.5-10.7,18.5,10.7s-18.5,10.7-18.5,10.7ZM607.6-53.4l-20.5,11.8-18.5-10.7,20.5-11.8s18.5,10.7,18.5,10.7ZM567.5-52.9l-18.5-10.7,20.5-11.8,18.5,10.7-20.5,11.8h0ZM566.4-52.2l-18.5,10.7-18.5-10.7,18.5-10.7,18.5,10.7ZM528.3-52.9l-18.5-10.7,18.5-10.7,18.5,10.7-18.5,10.7ZM527.2-52.2l-18.5,10.7-18.5-10.7,18.5-10.7,18.5,10.7ZM489.1-52.9l-18.5-10.7,18.5-10.7,18.5,10.7-18.5,10.7ZM488-52.2l-18.5,10.7-18.5-10.7,18.5-10.7,18.5,10.7ZM449.9-52.9l-18.5-10.7,18.5-10.7,18.5,10.7-18.5,10.7ZM448.8-52.2l-18.5,10.7-18.5-10.7,18.5-10.7,18.5,10.7ZM410.7-52.9l-18.5-10.7,18.5-10.7,18.5,10.7-18.5,10.7ZM409.6-52.2l-18.5,10.7-18.5-10.7,18.5-10.7,18.5,10.7ZM371.5-52.9l-18.5-10.7,18.5-10.7,18.5,10.7-18.5,10.7ZM370.4-52.2l-18.5,10.7-18.5-10.7,18.5-10.7,18.5,10.7ZM332.3-52.9l-18.5-10.7,18.5-10.7,18.5,10.7-18.5,10.7ZM331.2-52.2l-18.5,10.7-18.5-10.7,18.5-10.7,18.5,10.7ZM293.1-52.9l-18.5-10.7,18.5-10.7,18.5,10.7-18.5,10.7ZM292-52.2l-18.5,10.7-18.5-10.7,18.5-10.7,18.5,10.7ZM254-52.9l-20.5-11.8,18.5-10.7,20.5,11.8-18.5,10.7ZM252.8-52.2l-18.5,10.7-20.5-11.8,18.5-10.7,20.5,11.8h0ZM212.7-54.1l-18.5-10.7,18.5-10.7,18.5,10.7s-18.5,10.7-18.5,10.7ZM211.6-53.4l-18.5,10.7-18.5-10.7,18.5-10.7s18.5,10.7,18.5,10.7ZM173.5-54.1l-18.5-10.7,18.5-10.7,18.5,10.7s-18.5,10.7-18.5,10.7ZM172.4-53.4l-18.5,10.7-18.5-10.7,18.5-10.7s18.5,10.7,18.5,10.7ZM172.4-30.8l-18.5,10.7-18.5-10.7,18.5-10.7,18.5,10.7ZM174.5-7l-18.5,10.7-20.5-11.8,18.5-10.7s20.5,11.8,20.5,11.8ZM174.5,15.6l-18.5,10.7-18.5-10.7,18.5-10.7s18.5,10.7,18.5,10.7ZM174.5,38.3l-18.5,10.7-18.5-10.7,18.5-10.7,18.5,10.7ZM174.5,60.9l-19.8,11.5-18.5-10.7,19.8-11.5,18.5,10.7h0ZM173.1,84.3l-18.5,10.7-18.5-10.7,18.5-10.7,18.5,10.7ZM173.1,106.9l-18.5,10.7-18.5-10.7,18.5-10.7,18.5,10.7ZM173.1,129.6l-18.5,10.7-18.5-10.7,18.5-10.7,18.5,10.7ZM173.1,152.2l-18.5,10.7-18.5-10.7,18.5-10.7,18.5,10.7ZM173.1,174.8l-18.5,10.7-18.5-10.7,18.5-10.7,18.5,10.7ZM173.1,197.5l-18.5,10.7-18.5-10.7,18.5-10.7,18.5,10.7ZM173.1,220.1l-18.5,10.7-18.5-10.7,18.5-10.7,18.5,10.7ZM173.1,242.7l-18.5,10.7-18.5-10.7,18.5-10.7,18.5,10.7ZM173.1,265.3l-18.5,10.7-18.5-10.7,18.5-10.7,18.5,10.7ZM173.1,288l-18.5,10.7-18.5-10.7,18.5-10.7,18.5,10.7ZM173.1,310.6l-18.5,10.7-18.5-10.7,18.5-10.7,18.5,10.7ZM173.1,333.2l-18.5,10.7-18.5-10.7,18.5-10.7,18.5,10.7ZM174.5,356.6l-18.5,10.7-19.8-11.5,18.5-10.7,19.8,11.5h0ZM174.5,379.3l-18.5,10.7-18.5-10.7,18.5-10.7,18.5,10.7ZM174.5,401.9l-18.5,10.7-18.5-10.7,18.5-10.7,18.5,10.7ZM174.5,424.5l-20.5,11.8-18.5-10.7,20.5-11.8,18.5,10.7ZM157.1,413.2l18.5-10.7,18.5,10.7-18.5,10.7-18.5-10.7ZM195.2,413.8l18.5,10.7-18.5,10.7-18.5-10.7,18.5-10.7ZM196.3,413.2l18.5-10.7,18.5,10.7-18.5,10.7-18.5-10.7ZM234.3,413.8l18.5,10.7-18.5,10.7-18.5-10.7,18.5-10.7ZM235.5,413.2l18.5-10.7,18.5,10.7-18.5,10.7-18.5-10.7ZM273.5,413.8l18.5,10.7-18.5,10.7-18.5-10.7,18.5-10.7ZM274.6,413.2l18.5-10.7,18.5,10.7-18.5,10.7-18.5-10.7ZM312.7,413.8l18.5,10.7-18.5,10.7-18.5-10.7,18.5-10.7ZM313.8,413.2l18.5-10.7,18.5,10.7-18.5,10.7-18.5-10.7ZM351.9,413.8l18.5,10.7-18.5,10.7-18.5-10.7,18.5-10.7ZM353,413.2l18.5-10.7,18.5,10.7-18.5,10.7-18.5-10.7ZM391.1,413.8l18.5,10.7-18.5,10.7-18.5-10.7,18.5-10.7ZM392.2,413.2l18.5-10.7,18.5,10.7-18.5,10.7-18.5-10.7ZM430.3,413.8l18.5,10.7-18.5,10.7-18.5-10.7,18.5-10.7ZM431.4,413.2l18.5-10.7,18.5,10.7-18.5,10.7-18.5-10.7ZM469.5,413.8l18.5,10.7-18.5,10.7-18.5-10.7,18.5-10.7ZM470.6,413.2l18.5-10.7,18.5,10.7-18.5,10.7-18.5-10.7ZM508.7,413.8l18.5,10.7-18.5,10.7-18.5-10.7,18.5-10.7ZM509.8,413.2l18.5-10.7,18.5,10.7-18.5,10.7-18.5-10.7ZM547.9,413.8l18.5,10.7-18.5,10.7-18.5-10.7,18.5-10.7ZM549,413.2l18.5-10.7,18.5,10.7-18.5,10.7-18.5-10.7ZM587.1,413.8l18.5,10.7-18.5,10.7-18.5-10.7,18.5-10.7ZM588.2,413.2l18.5-10.7,18.5,10.7-18.5,10.7-18.5-10.7ZM626.3,413.8l18.5,10.7-18.5,10.7-18.5-10.7,18.5-10.7ZM627.4,413.2l18.5-10.7,18.5,10.7-18.5,10.7-18.5-10.7ZM627.4,390.6l18.5-10.7,18.5,10.7-18.5,10.7-18.5-10.7ZM627.4,367.9l18.5-10.7,18.5,10.7-18.5,10.7-18.5-10.7ZM627.4,345.3l19.8-11.5,18.5,10.7-19.8,11.5-18.5-10.7ZM628.7,321.9l18.5-10.7,18.5,10.7-18.5,10.7-18.5-10.7ZM628.7,299.3l18.5-10.7,18.5,10.7-18.5,10.7-18.5-10.7ZM628.7,276.6l18.5-10.7,18.5,10.7-18.5,10.7-18.5-10.7ZM628.7,254l18.5-10.7,18.5,10.7-18.5,10.7-18.5-10.7h0ZM628.7,231.4l18.5-10.7,18.5,10.7-18.5,10.7-18.5-10.7ZM628.7,208.8l18.5-10.7,18.5,10.7-18.5,10.7-18.5-10.7ZM628.7,186.1l18.5-10.7,18.5,10.7-18.5,10.7-18.5-10.7ZM628.7,163.5l18.5-10.7,18.5,10.7-18.5,10.7-18.5-10.7ZM628.7,140.9l18.5-10.7,18.5,10.7-18.5,10.7-18.5-10.7ZM628.7,118.3l18.5-10.7,18.5,10.7-18.5,10.7-18.5-10.7ZM628.7,95.6l18.5-10.7,18.5,10.7-18.5,10.7-18.5-10.7ZM627.4,72.2l18.5-10.7,19.8,11.5-18.5,10.7-19.8-11.5ZM627.4,49.6l18.5-10.7,18.5,10.7-18.5,10.7-18.5-10.7ZM627.4,27l18.5-10.7,18.5,10.7-18.5,10.7-18.5-10.7ZM627.4,4.3l18.5-10.7,18.5,10.7-18.5,10.7-18.5-10.7ZM627.4-18.3l20.5-11.8,18.5,10.7-20.5,11.8-18.5-10.7h0ZM629.4-42.1l18.5-10.7,18.5,10.7-18.5,10.7-18.5-10.7ZM629.4-64.7l18.5-10.7,18.5,10.7-18.5,10.7-18.5-10.7ZM629.4-87.4l18.5-10.7,18.5,10.7-18.5,10.7-18.5-10.7ZM646.8-76l-18.5,10.7-18.5-10.7,18.5-10.7,18.5,10.7ZM608.7-76.7l-18.5-10.7,18.5-10.7,18.5,10.7-18.5,10.7ZM607.6-76l-18.5,10.7-18.5-10.7,18.5-10.7,18.5,10.7ZM569.5-76.7l-18.5-10.7,18.5-10.7,18.5,10.7-18.5,10.7ZM568.4-76l-20.5,11.8-18.5-10.7,20.5-11.8,18.5,10.7ZM528.3-75.5l-18.5-10.7,20.5-11.8,18.5,10.7-20.5,11.8ZM527.2-74.9l-18.5,10.7-18.5-10.7,18.5-10.7,18.5,10.7ZM489.1-75.5l-18.5-10.7,18.5-10.7,18.5,10.7-18.5,10.7ZM488-74.9l-18.5,10.7-18.5-10.7,18.5-10.7,18.5,10.7ZM449.9-75.5l-18.5-10.7,18.5-10.7,18.5,10.7-18.5,10.7ZM448.8-74.9l-18.5,10.7-18.5-10.7,18.5-10.7,18.5,10.7ZM410.7-75.5l-18.5-10.7,18.5-10.7,18.5,10.7-18.5,10.7ZM409.6-74.9l-18.5,10.7-18.5-10.7,18.5-10.7,18.5,10.7ZM371.5-75.5l-18.5-10.7,18.5-10.7,18.5,10.7-18.5,10.7ZM370.4-74.9l-18.5,10.7-18.5-10.7,18.5-10.7,18.5,10.7ZM332.3-75.5l-18.5-10.7,18.5-10.7,18.5,10.7-18.5,10.7ZM331.2-74.9l-18.5,10.7-18.5-10.7,18.5-10.7,18.5,10.7ZM293.1-75.5l-20.5-11.8,18.5-10.7,20.5,11.8-18.5,10.7ZM292-74.9l-18.5,10.7-20.5-11.8,18.5-10.7,20.5,11.8h0ZM251.9-76.7l-18.5-10.7,18.5-10.7,18.5,10.7-18.5,10.7ZM250.8-76l-18.5,10.7-18.5-10.7,18.5-10.7,18.5,10.7ZM212.7-76.7l-18.5-10.7,18.5-10.7,18.5,10.7-18.5,10.7ZM211.6-76l-18.5,10.7-18.5-10.7,18.5-10.7,18.5,10.7ZM173.5-76.7l-18.5-10.7,18.5-10.7,18.5,10.7-18.5,10.7ZM172.4-76l-18.5,10.7-18.5-10.7,18.5-10.7,18.5,10.7ZM134.3-76.7l-18.5-10.7,18.5-10.7,18.5,10.7-18.5,10.7ZM152.8-64.7l-18.5,10.7-18.5-10.7,18.5-10.7,18.5,10.7ZM152.8-42.1l-18.5,10.7-18.5-10.7,18.5-10.7,18.5,10.7ZM152.8-19.5l-18.5,10.7-18.5-10.7,18.5-10.7,18.5,10.7ZM154.9,4.3l-18.5,10.7-20.5-11.8,18.5-10.7,20.5,11.8ZM154.9,27l-18.5,10.7-18.5-10.7,18.5-10.7,18.5,10.7ZM154.9,49.6l-19.8,11.5-18.5-10.7,19.8-11.5,18.5,10.7ZM153.5,73l-18.5,10.7-18.5-10.7,18.5-10.7,18.5,10.7ZM153.5,95.6l-18.5,10.7-18.5-10.7,18.5-10.7,18.5,10.7ZM153.5,118.3l-18.5,10.7-18.5-10.7,18.5-10.7,18.5,10.7ZM153.5,140.9l-18.5,10.7-18.5-10.7,18.5-10.7,18.5,10.7ZM153.5,163.5l-18.5,10.7-18.5-10.7,18.5-10.7,18.5,10.7ZM153.5,186.1l-18.5,10.7-18.5-10.7,18.5-10.7,18.5,10.7ZM153.5,208.8l-18.5,10.7-18.5-10.7,18.5-10.7,18.5,10.7ZM153.5,231.4l-18.5,10.7-18.5-10.7,18.5-10.7,18.5,10.7ZM153.5,254l-18.5,10.7-18.5-10.7,18.5-10.7,18.5,10.7h0ZM153.5,276.6l-18.5,10.7-18.5-10.7,18.5-10.7,18.5,10.7ZM153.5,299.3l-18.5,10.7-18.5-10.7,18.5-10.7,18.5,10.7ZM153.5,321.9l-18.5,10.7-18.5-10.7,18.5-10.7,18.5,10.7ZM153.5,344.5l-18.5,10.7-18.5-10.7,18.5-10.7,18.5,10.7ZM154.9,367.9l-18.5,10.7-19.8-11.5,18.5-10.7,19.8,11.5ZM154.9,390.6l-18.5,10.7-18.5-10.7,18.5-10.7,18.5,10.7ZM154.9,413.2l-20.5,11.8-18.5-10.7,20.5-11.8,18.5,10.7ZM152.8,437l-18.5,10.7-18.5-10.7,18.5-10.7,18.5,10.7ZM153.9,437.6l18.5,10.7-18.5,10.7-18.5-10.7,18.5-10.7ZM155,437l20.5-11.8,18.5,10.7-20.5,11.8-18.5-10.7ZM195.2,436.5l18.5,10.7-20.5,11.8-18.5-10.7,20.5-11.8h0ZM196.3,435.8l18.5-10.7,18.5,10.7-18.5,10.7-18.5-10.7ZM234.3,436.5l18.5,10.7-18.5,10.7-18.5-10.7,18.5-10.7ZM235.5,435.8l18.5-10.7,18.5,10.7-18.5,10.7-18.5-10.7ZM273.5,436.5l18.5,10.7-18.5,10.7-18.5-10.7,18.5-10.7ZM274.6,435.8l18.5-10.7,18.5,10.7-18.5,10.7-18.5-10.7ZM312.7,436.5l18.5,10.7-18.5,10.7-18.5-10.7,18.5-10.7ZM313.8,435.8l18.5-10.7,18.5,10.7-18.5,10.7-18.5-10.7ZM351.9,436.5l18.5,10.7-18.5,10.7-18.5-10.7,18.5-10.7ZM353,435.8l18.5-10.7,18.5,10.7-18.5,10.7-18.5-10.7ZM391.1,436.5l18.5,10.7-18.5,10.7-18.5-10.7,18.5-10.7ZM392.2,435.8l18.5-10.7,18.5,10.7-18.5,10.7-18.5-10.7ZM430.3,436.5l18.5,10.7-18.5,10.7-18.5-10.7,18.5-10.7ZM431.4,435.8l18.5-10.7,18.5,10.7-18.5,10.7-18.5-10.7ZM469.5,436.5l18.5,10.7-18.5,10.7-18.5-10.7,18.5-10.7ZM470.6,435.8l18.5-10.7,18.5,10.7-18.5,10.7-18.5-10.7ZM508.7,436.5l18.5,10.7-18.5,10.7-18.5-10.7,18.5-10.7ZM509.8,435.8l18.5-10.7,18.5,10.7-18.5,10.7-18.5-10.7ZM547.9,436.5l18.5,10.7-18.5,10.7-18.5-10.7,18.5-10.7ZM549,435.8l18.5-10.7,18.5,10.7-18.5,10.7-18.5-10.7ZM587.1,436.5l18.5,10.7-18.5,10.7-18.5-10.7,18.5-10.7ZM588.2,435.8l18.5-10.7,18.5,10.7-18.5,10.7-18.5-10.7ZM626.3,436.5l20.5,11.8-18.5,10.7-20.5-11.8,18.5-10.7ZM627.4,435.8l18.5-10.7,20.5,11.8-18.5,10.7-20.5-11.8h0ZM667.5,437.6l18.5,10.7-18.5,10.7-18.5-10.7,18.5-10.7ZM647,424.5l18.5-10.7,20.5,11.8-18.5,10.7-20.5-11.8h0ZM647,401.9l18.5-10.7,18.5,10.7-18.5,10.7-18.5-10.7ZM647,379.3l18.5-10.7,18.5,10.7-18.5,10.7-18.5-10.7ZM647,356.6l19.8-11.5,18.5,10.7-19.8,11.5-18.5-10.7h0ZM648.3,333.2l18.5-10.7,18.5,10.7-18.5,10.7-18.5-10.7h0ZM648.3,310.6l18.5-10.7,18.5,10.7-18.5,10.7-18.5-10.7h0ZM648.3,288l18.5-10.7,18.5,10.7-18.5,10.7-18.5-10.7h0ZM648.3,265.3l18.5-10.7,18.5,10.7-18.5,10.7-18.5-10.7h0ZM648.3,242.7l18.5-10.7,18.5,10.7-18.5,10.7-18.5-10.7h0ZM648.3,220.1l18.5-10.7,18.5,10.7-18.5,10.7-18.5-10.7h0ZM648.3,197.5l18.5-10.7,18.5,10.7-18.5,10.7-18.5-10.7h0ZM648.3,174.8l18.5-10.7,18.5,10.7-18.5,10.7-18.5-10.7h0ZM648.3,152.2l18.5-10.7,18.5,10.7-18.5,10.7-18.5-10.7h0ZM648.3,129.6l18.5-10.7,18.5,10.7-18.5,10.7-18.5-10.7h0ZM648.3,106.9l18.5-10.7,18.5,10.7-18.5,10.7-18.5-10.7h0ZM648.3,84.3l18.5-10.7,18.5,10.7-18.5,10.7-18.5-10.7h0ZM647,60.9l18.5-10.7,19.8,11.5-18.5,10.7-19.8-11.5h0ZM647,38.3l18.5-10.7,18.5,10.7-18.5,10.7-18.5-10.7ZM647,15.6l18.5-10.7,18.5,10.7-18.5,10.7s-18.5-10.7-18.5-10.7ZM647-7l20.5-11.8,18.5,10.7-20.5,11.8-18.5-10.7h0ZM649-30.8l18.5-10.7,18.5,10.7-18.5,10.7-18.5-10.7ZM649-53.4l18.5-10.7,18.5,10.7-18.5,10.7s-18.5-10.7-18.5-10.7ZM649-76l18.5-10.7,18.5,10.7-18.5,10.7-18.5-10.7ZM647.9-99.3l-18.5-10.7,18.5-10.7,18.5,10.7-18.5,10.7ZM646.8-98.7l-18.5,10.7-18.5-10.7,18.5-10.7,18.5,10.7ZM608.7-99.3l-18.5-10.7,18.5-10.7,18.5,10.7-18.5,10.7ZM607.6-98.7l-18.5,10.7-18.5-10.7,18.5-10.7,18.5,10.7ZM569.5-99.3l-18.5-10.7,18.5-10.7,18.5,10.7-18.5,10.7ZM568.4-98.7l-18.5,10.7-18.5-10.7,18.5-10.7,18.5,10.7ZM530.3-99.3l-18.5-10.7,18.5-10.7,18.5,10.7-18.5,10.7ZM529.2-98.7l-20.5,11.8-18.5-10.7,20.5-11.8,18.5,10.7ZM489.1-98.1l-18.5-10.7,20.5-11.8,18.5,10.7-20.5,11.8ZM488-97.5l-18.5,10.7-18.5-10.7,18.5-10.7,18.5,10.7ZM449.9-98.1l-18.5-10.7,18.5-10.7,18.5,10.7-18.5,10.7ZM448.8-97.5l-18.5,10.7-18.5-10.7,18.5-10.7,18.5,10.7ZM410.7-98.1l-18.5-10.7,18.5-10.7,18.5,10.7-18.5,10.7ZM409.6-97.5l-18.5,10.7-18.5-10.7,18.5-10.7,18.5,10.7ZM371.5-98.1l-18.5-10.7,18.5-10.7,18.5,10.7-18.5,10.7ZM370.4-97.5l-18.5,10.7-18.5-10.7,18.5-10.7,18.5,10.7ZM332.3-98.1l-20.5-11.8,18.5-10.7,20.5,11.8-18.5,10.7h0ZM331.2-97.5l-18.5,10.7-20.5-11.8,18.5-10.7,20.5,11.8h0ZM291.1-99.3l-18.5-10.7,18.5-10.7,18.5,10.7-18.5,10.7ZM290-98.7l-18.5,10.7-18.5-10.7,18.5-10.7,18.5,10.7ZM251.9-99.3l-18.5-10.7,18.5-10.7,18.5,10.7-18.5,10.7ZM250.8-98.7l-18.5,10.7-18.5-10.7,18.5-10.7,18.5,10.7ZM212.7-99.3l-18.5-10.7,18.5-10.7,18.5,10.7-18.5,10.7ZM211.6-98.7l-18.5,10.7-18.5-10.7,18.5-10.7,18.5,10.7ZM173.5-99.3l-18.5-10.7,18.5-10.7,18.5,10.7-18.5,10.7ZM172.4-98.7l-18.5,10.7-18.5-10.7,18.5-10.7,18.5,10.7ZM134.3-99.3l-18.5-10.7,18.5-10.7,18.5,10.7-18.5,10.7ZM133.2-98.7l-18.5,10.7-18.5-10.7,18.5-10.7,18.5,10.7ZM133.2-76l-18.5,10.7-18.5-10.7,18.5-10.7,18.5,10.7ZM133.2-53.4l-18.5,10.7-18.5-10.7,18.5-10.7s18.5,10.7,18.5,10.7ZM133.2-30.8l-18.5,10.7-18.5-10.7,18.5-10.7,18.5,10.7ZM133.2-8.2l-18.5,10.7-18.5-10.7,18.5-10.7,18.5,10.7ZM135.3,15.6l-18.5,10.7-20.5-11.8,18.5-10.7,20.5,11.8h0ZM135.3,38.3l-19.8,11.5-18.5-10.7,19.8-11.5,18.5,10.7ZM133.9,61.7l-18.5,10.7-18.5-10.7,18.5-10.7,18.5,10.7ZM133.9,84.3l-18.5,10.7-18.5-10.7,18.5-10.7,18.5,10.7ZM133.9,106.9l-18.5,10.7-18.5-10.7,18.5-10.7,18.5,10.7ZM133.9,129.6l-18.5,10.7-18.5-10.7,18.5-10.7,18.5,10.7ZM133.9,152.2l-18.5,10.7-18.5-10.7,18.5-10.7,18.5,10.7ZM133.9,174.8l-18.5,10.7-18.5-10.7,18.5-10.7,18.5,10.7ZM133.9,197.5l-18.5,10.7-18.5-10.7,18.5-10.7,18.5,10.7ZM133.9,220.1l-18.5,10.7-18.5-10.7,18.5-10.7,18.5,10.7ZM133.9,242.7l-18.5,10.7-18.5-10.7,18.5-10.7,18.5,10.7ZM133.9,265.3l-18.5,10.7-18.5-10.7,18.5-10.7,18.5,10.7ZM133.9,288l-18.5,10.7-18.5-10.7,18.5-10.7,18.5,10.7ZM133.9,310.6l-18.5,10.7-18.5-10.7,18.5-10.7,18.5,10.7ZM133.9,333.2l-18.5,10.7-18.5-10.7,18.5-10.7,18.5,10.7ZM133.9,355.8l-18.5,10.7-18.5-10.7,18.5-10.7,18.5,10.7ZM135.3,379.3l-18.5,10.7-19.8-11.5,18.5-10.7,19.8,11.5ZM135.3,401.9l-20.5,11.8-18.5-10.7,20.5-11.8,18.5,10.7h0ZM133.2,425.7l-18.5,10.7-18.5-10.7,18.5-10.7,18.5,10.7ZM133.2,448.3l-18.5,10.7-18.5-10.7,18.5-10.7,18.5,10.7ZM133.2,470.9l-18.5,10.7-18.5-10.7,18.5-10.7,18.5,10.7ZM115.8,459.6l18.5-10.7,18.5,10.7-18.5,10.7-18.5-10.7ZM153.9,460.3l18.5,10.7-18.5,10.7-18.5-10.7,18.5-10.7ZM155,459.6l18.5-10.7,18.5,10.7-18.5,10.7-18.5-10.7ZM193.1,460.3l18.5,10.7-18.5,10.7-18.5-10.7,18.5-10.7ZM194.2,459.6l20.5-11.8,18.5,10.7-20.5,11.8-18.5-10.7ZM234.3,459.1l18.5,10.7-20.5,11.8-18.5-10.7,20.5-11.8h0ZM235.5,458.5l18.5-10.7,18.5,10.7-18.5,10.7-18.5-10.7ZM273.5,459.1l18.5,10.7-18.5,10.7-18.5-10.7,18.5-10.7ZM274.6,458.5l18.5-10.7,18.5,10.7-18.5,10.7-18.5-10.7ZM312.7,459.1l18.5,10.7-18.5,10.7-18.5-10.7,18.5-10.7ZM313.8,458.5l18.5-10.7,18.5,10.7-18.5,10.7-18.5-10.7ZM351.9,459.1l18.5,10.7-18.5,10.7-18.5-10.7,18.5-10.7ZM353,458.5l18.5-10.7,18.5,10.7-18.5,10.7-18.5-10.7ZM391.1,459.1l18.5,10.7-18.5,10.7-18.5-10.7,18.5-10.7ZM392.2,458.5l18.5-10.7,18.5,10.7-18.5,10.7-18.5-10.7ZM430.3,459.1l18.5,10.7-18.5,10.7-18.5-10.7,18.5-10.7ZM431.4,458.5l18.5-10.7,18.5,10.7-18.5,10.7-18.5-10.7ZM469.5,459.1l18.5,10.7-18.5,10.7-18.5-10.7,18.5-10.7ZM470.6,458.5l18.5-10.7,18.5,10.7-18.5,10.7-18.5-10.7ZM508.7,459.1l18.5,10.7-18.5,10.7-18.5-10.7,18.5-10.7ZM509.8,458.5l18.5-10.7,18.5,10.7-18.5,10.7-18.5-10.7ZM547.9,459.1l18.5,10.7-18.5,10.7-18.5-10.7,18.5-10.7ZM549,458.5l18.5-10.7,18.5,10.7-18.5,10.7-18.5-10.7ZM587.1,459.1l20.5,11.8-18.5,10.7-20.5-11.8,18.5-10.7h0ZM588.2,458.5l18.5-10.7,20.5,11.8-18.5,10.7-20.5-11.8ZM628.3,460.3l18.5,10.7-18.5,10.7-18.5-10.7,18.5-10.7ZM629.4,459.6l18.5-10.7,18.5,10.7-18.5,10.7-18.5-10.7ZM667.5,460.3l18.5,10.7-18.5,10.7-18.5-10.7,18.5-10.7ZM668.6,459.6l18.5-10.7,18.5,10.7-18.5,10.7-18.5-10.7ZM668.6,437l18.5-10.7,18.5,10.7-18.5,10.7-18.5-10.7ZM666.6,413.2l18.5-10.7,20.5,11.8-18.5,10.7-20.5-11.8h0ZM666.6,390.6l18.5-10.7,18.5,10.7-18.5,10.7-18.5-10.7h0ZM666.6,367.9l19.8-11.5,18.5,10.7-19.8,11.5-18.5-10.7h0ZM667.9,344.5l18.5-10.7,18.5,10.7-18.5,10.7-18.5-10.7ZM667.9,321.9l18.5-10.7,18.5,10.7-18.5,10.7-18.5-10.7ZM667.9,299.3l18.5-10.7,18.5,10.7-18.5,10.7-18.5-10.7ZM667.9,276.6l18.5-10.7,18.5,10.7-18.5,10.7-18.5-10.7ZM667.9,254l18.5-10.7,18.5,10.7-18.5,10.7-18.5-10.7h0ZM667.9,231.4l18.5-10.7,18.5,10.7-18.5,10.7-18.5-10.7ZM667.9,208.8l18.5-10.7,18.5,10.7-18.5,10.7-18.5-10.7ZM667.9,186.1l18.5-10.7,18.5,10.7-18.5,10.7-18.5-10.7ZM667.9,163.5l18.5-10.7,18.5,10.7-18.5,10.7-18.5-10.7ZM667.9,140.9l18.5-10.7,18.5,10.7-18.5,10.7-18.5-10.7ZM667.9,118.3l18.5-10.7,18.5,10.7-18.5,10.7-18.5-10.7ZM667.9,95.6l18.5-10.7,18.5,10.7-18.5,10.7-18.5-10.7ZM667.9,73l18.5-10.7,18.5,10.7-18.5,10.7-18.5-10.7ZM666.6,49.6l18.5-10.7,19.8,11.5-18.5,10.7-19.8-11.5ZM666.6,27l18.5-10.7,18.5,10.7-18.5,10.7-18.5-10.7h0ZM666.6,4.3l20.5-11.8,18.5,10.7-20.5,11.8-18.5-10.7h0ZM668.6-19.5l18.5-10.7,18.5,10.7-18.5,10.7-18.5-10.7ZM668.6-42.1l18.5-10.7,18.5,10.7-18.5,10.7-18.5-10.7ZM668.6-64.7l18.5-10.7,18.5,10.7-18.5,10.7-18.5-10.7ZM668.6-87.4l18.5-10.7,18.5,10.7-18.5,10.7-18.5-10.7ZM688.2-98.7l18.5-10.7,18.5,10.7-18.5,10.7-18.5-10.7ZM688.2-121.3l18.5-10.7,18.5,10.7-18.5,10.7-18.5-10.7ZM687.1-121.9l-18.5-10.7,18.5-10.7,18.5,10.7s-18.5,10.7-18.5,10.7ZM686-121.3l-18.5,10.7-18.5-10.7,18.5-10.7,18.5,10.7ZM647.9-121.9l-18.5-10.7,18.5-10.7,18.5,10.7s-18.5,10.7-18.5,10.7ZM646.8-121.3l-18.5,10.7-18.5-10.7,18.5-10.7,18.5,10.7ZM608.7-121.9l-18.5-10.7,18.5-10.7,18.5,10.7s-18.5,10.7-18.5,10.7ZM607.6-121.3l-18.5,10.7-18.5-10.7,18.5-10.7,18.5,10.7ZM569.5-121.9l-18.5-10.7,18.5-10.7,18.5,10.7s-18.5,10.7-18.5,10.7ZM568.4-121.3l-18.5,10.7-18.5-10.7,18.5-10.7,18.5,10.7ZM530.3-121.9l-18.5-10.7,18.5-10.7,18.5,10.7s-18.5,10.7-18.5,10.7ZM529.2-121.3l-18.5,10.7-18.5-10.7,18.5-10.7,18.5,10.7ZM491.1-121.9l-18.5-10.7,18.5-10.7,18.5,10.7s-18.5,10.7-18.5,10.7ZM490-121.3l-20.5,11.8-18.5-10.7,20.5-11.8,18.5,10.7ZM449.9-120.8l-18.5-10.7,20.5-11.8,18.5,10.7-20.5,11.8ZM448.8-120.1l-18.5,10.7-18.5-10.7,18.5-10.7s18.5,10.7,18.5,10.7ZM410.7-120.8l-18.5-10.7,18.5-10.7,18.5,10.7-18.5,10.7ZM409.6-120.1l-18.5,10.7-18.5-10.7,18.5-10.7s18.5,10.7,18.5,10.7ZM371.5-120.8l-20.5-11.8,18.5-10.7,20.5,11.8-18.5,10.7ZM370.4-120.1l-18.5,10.7-20.5-11.8,18.5-10.7,20.5,11.8h0ZM330.3-121.9l-18.5-10.7,18.5-10.7,18.5,10.7s-18.5,10.7-18.5,10.7ZM329.2-121.3l-18.5,10.7-18.5-10.7,18.5-10.7,18.5,10.7ZM291.1-121.9l-18.5-10.7,18.5-10.7,18.5,10.7s-18.5,10.7-18.5,10.7ZM290-121.3l-18.5,10.7-18.5-10.7,18.5-10.7,18.5,10.7ZM251.9-121.9l-18.5-10.7,18.5-10.7,18.5,10.7s-18.5,10.7-18.5,10.7ZM250.8-121.3l-18.5,10.7-18.5-10.7,18.5-10.7,18.5,10.7ZM212.7-121.9l-18.5-10.7,18.5-10.7,18.5,10.7s-18.5,10.7-18.5,10.7ZM211.6-121.3l-18.5,10.7-18.5-10.7,18.5-10.7,18.5,10.7ZM173.5-121.9l-18.5-10.7,18.5-10.7,18.5,10.7s-18.5,10.7-18.5,10.7ZM172.4-121.3l-18.5,10.7-18.5-10.7,18.5-10.7,18.5,10.7ZM134.3-121.9l-18.5-10.7,18.5-10.7,18.5,10.7s-18.5,10.7-18.5,10.7ZM133.2-121.3l-18.5,10.7-18.5-10.7,18.5-10.7,18.5,10.7ZM95.1-121.9l-18.5-10.7,18.5-10.7,18.5,10.7s-18.5,10.7-18.5,10.7ZM113.6-110l-18.5,10.7-18.5-10.7,18.5-10.7,18.5,10.7ZM113.6-87.4l-18.5,10.7-18.5-10.7,18.5-10.7,18.5,10.7ZM113.6-64.7l-18.5,10.7-18.5-10.7,18.5-10.7,18.5,10.7ZM113.6-42.1l-18.5,10.7-18.5-10.7,18.5-10.7,18.5,10.7ZM113.6-19.5l-18.5,10.7-18.5-10.7,18.5-10.7,18.5,10.7ZM113.6,3.1l-18.5,10.7-18.5-10.7,18.5-10.7s18.5,10.7,18.5,10.7ZM115.7,27l-19.8,11.5-20.5-11.8,19.8-11.5,20.5,11.8h0ZM114.3,50.4l-18.5,10.7-18.5-10.7,18.5-10.7,18.5,10.7ZM114.3,73l-18.5,10.7-18.5-10.7,18.5-10.7,18.5,10.7ZM114.3,95.6l-18.5,10.7-18.5-10.7,18.5-10.7,18.5,10.7ZM114.3,118.3l-18.5,10.7-18.5-10.7,18.5-10.7,18.5,10.7ZM114.3,140.9l-18.5,10.7-18.5-10.7,18.5-10.7,18.5,10.7ZM114.3,163.5l-18.5,10.7-18.5-10.7,18.5-10.7,18.5,10.7ZM114.3,186.1l-18.5,10.7-18.5-10.7,18.5-10.7,18.5,10.7ZM114.3,208.8l-18.5,10.7-18.5-10.7,18.5-10.7,18.5,10.7ZM114.3,231.4l-18.5,10.7-18.5-10.7,18.5-10.7,18.5,10.7ZM114.3,254l-18.5,10.7-18.5-10.7,18.5-10.7,18.5,10.7h0ZM114.3,276.6l-18.5,10.7-18.5-10.7,18.5-10.7,18.5,10.7ZM114.3,299.3l-18.5,10.7-18.5-10.7,18.5-10.7,18.5,10.7ZM114.3,321.9l-18.5,10.7-18.5-10.7,18.5-10.7,18.5,10.7ZM114.3,344.5l-18.5,10.7-18.5-10.7,18.5-10.7,18.5,10.7ZM114.3,367.2l-18.5,10.7-18.5-10.7,18.5-10.7,18.5,10.7ZM115.7,390.6l-20.5,11.8-19.8-11.5,20.5-11.8,19.8,11.5ZM113.6,414.4l-18.5,10.7-18.5-10.7,18.5-10.7,18.5,10.7ZM113.6,437l-18.5,10.7-18.5-10.7,18.5-10.7,18.5,10.7ZM113.6,459.6l-18.5,10.7-18.5-10.7,18.5-10.7,18.5,10.7ZM113.6,482.3l-18.5,10.7-18.5-10.7,18.5-10.7,18.5,10.7ZM114.7,482.9l18.5,10.7-18.5,10.7-18.5-10.7,18.5-10.7ZM115.8,482.3l18.5-10.7,18.5,10.7-18.5,10.7-18.5-10.7ZM153.9,482.9l18.5,10.7-18.5,10.7-18.5-10.7,18.5-10.7ZM155,482.3l18.5-10.7,18.5,10.7-18.5,10.7-18.5-10.7ZM193.1,482.9l18.5,10.7-18.5,10.7-18.5-10.7,18.5-10.7ZM194.2,482.3l18.5-10.7,18.5,10.7-18.5,10.7-18.5-10.7ZM232.3,482.9l18.5,10.7-18.5,10.7-18.5-10.7,18.5-10.7ZM233.4,482.3l20.5-11.8,18.5,10.7-20.5,11.8-18.5-10.7ZM273.5,481.7l18.5,10.7-20.5,11.8-18.5-10.7,20.5-11.8h0ZM274.6,481.1l18.5-10.7,18.5,10.7-18.5,10.7-18.5-10.7ZM312.7,481.7l18.5,10.7-18.5,10.7-18.5-10.7,18.5-10.7ZM313.8,481.1l18.5-10.7,18.5,10.7-18.5,10.7-18.5-10.7ZM351.9,481.7l18.5,10.7-18.5,10.7-18.5-10.7,18.5-10.7ZM353,481.1l18.5-10.7,18.5,10.7-18.5,10.7-18.5-10.7ZM391.1,481.7l18.5,10.7-18.5,10.7-18.5-10.7,18.5-10.7ZM392.2,481.1l18.5-10.7,18.5,10.7-18.5,10.7-18.5-10.7ZM430.3,481.7l18.5,10.7-18.5,10.7-18.5-10.7,18.5-10.7ZM431.4,481.1l18.5-10.7,18.5,10.7-18.5,10.7-18.5-10.7ZM469.5,481.7l18.5,10.7-18.5,10.7-18.5-10.7,18.5-10.7ZM470.6,481.1l18.5-10.7,18.5,10.7-18.5,10.7-18.5-10.7ZM508.7,481.7l18.5,10.7-18.5,10.7-18.5-10.7,18.5-10.7ZM509.8,481.1l18.5-10.7,18.5,10.7-18.5,10.7-18.5-10.7ZM547.9,481.7l20.5,11.8-18.5,10.7-20.5-11.8,18.5-10.7ZM549,481.1l18.5-10.7,20.5,11.8-18.5,10.7-20.5-11.8h0ZM589.1,482.9l18.5,10.7-18.5,10.7-18.5-10.7,18.5-10.7ZM590.2,482.3l18.5-10.7,18.5,10.7-18.5,10.7-18.5-10.7ZM628.3,482.9l18.5,10.7-18.5,10.7-18.5-10.7,18.5-10.7ZM629.4,482.3l18.5-10.7,18.5,10.7-18.5,10.7-18.5-10.7ZM667.5,482.9l18.5,10.7-18.5,10.7-18.5-10.7,18.5-10.7ZM668.6,482.3l18.5-10.7,18.5,10.7-18.5,10.7-18.5-10.7ZM706.7,482.9l18.5,10.7-18.5,10.7-18.5-10.7,18.5-10.7ZM688.2,470.9l18.5-10.7,18.5,10.7-18.5,10.7-18.5-10.7ZM688.2,448.3l18.5-10.7,18.5,10.7-18.5,10.7-18.5-10.7ZM688.2,425.7l18.5-10.7,18.5,10.7-18.5,10.7-18.5-10.7ZM686.2,401.9l18.5-10.7,20.5,11.8-18.5,10.7-20.5-11.8ZM686.2,379.3l19.8-11.5,18.5,10.7-19.8,11.5-18.5-10.7h0ZM687.5,355.8l18.5-10.7,18.5,10.7-18.5,10.7-18.5-10.7ZM687.5,333.2l18.5-10.7,18.5,10.7-18.5,10.7-18.5-10.7ZM687.5,310.6l18.5-10.7,18.5,10.7-18.5,10.7-18.5-10.7ZM687.5,288l18.5-10.7,18.5,10.7-18.5,10.7-18.5-10.7ZM687.5,265.3l18.5-10.7,18.5,10.7-18.5,10.7-18.5-10.7ZM687.5,242.7l18.5-10.7,18.5,10.7-18.5,10.7-18.5-10.7ZM687.5,220.1l18.5-10.7,18.5,10.7-18.5,10.7-18.5-10.7ZM687.5,197.5l18.5-10.7,18.5,10.7-18.5,10.7-18.5-10.7ZM687.5,174.8l18.5-10.7,18.5,10.7-18.5,10.7-18.5-10.7ZM687.5,152.2l18.5-10.7,18.5,10.7-18.5,10.7-18.5-10.7ZM687.5,129.6l18.5-10.7,18.5,10.7-18.5,10.7-18.5-10.7ZM687.5,106.9l18.5-10.7,18.5,10.7-18.5,10.7-18.5-10.7ZM687.5,84.3l18.5-10.7,18.5,10.7-18.5,10.7-18.5-10.7ZM687.5,61.7l18.5-10.7,18.5,10.7-18.5,10.7-18.5-10.7ZM686.2,38.3l18.5-10.7,19.8,11.5-18.5,10.7-19.8-11.5h0ZM686.2,15.6l20.5-11.8,18.5,10.7-20.5,11.8s-18.5-10.7-18.5-10.7ZM688.2-8.2l18.5-10.7,18.5,10.7-18.5,10.7-18.5-10.7ZM688.2-30.8l18.5-10.7,18.5,10.7-18.5,10.7-18.5-10.7ZM688.2-53.4l18.5-10.7,18.5,10.7-18.5,10.7s-18.5-10.7-18.5-10.7ZM688.2-76l18.5-10.7,18.5,10.7-18.5,10.7-18.5-10.7ZM707.8-87.4l18.5-10.7,18.5,10.7-18.5,10.7-18.5-10.7ZM707.8-110l18.5-10.7,18.5,10.7-18.5,10.7-18.5-10.7ZM707.8-132.6l18.5-10.7,18.5,10.7-18.5,10.7-18.5-10.7ZM707.8-155.2l18.5-10.7,18.5,10.7-18.5,10.7-18.5-10.7ZM725.2-143.9l-18.5,10.7-18.5-10.7,18.5-10.7,18.5,10.7ZM687.1-144.6l-18.5-10.7,18.5-10.7,18.5,10.7-18.5,10.7ZM686-143.9l-18.5,10.7-18.5-10.7,18.5-10.7,18.5,10.7ZM647.9-144.6l-18.5-10.7,18.5-10.7,18.5,10.7-18.5,10.7ZM646.8-143.9l-18.5,10.7-18.5-10.7,18.5-10.7,18.5,10.7ZM608.7-144.6l-18.5-10.7,18.5-10.7,18.5,10.7-18.5,10.7ZM607.6-143.9l-18.5,10.7-18.5-10.7,18.5-10.7,18.5,10.7ZM569.5-144.6l-18.5-10.7,18.5-10.7,18.5,10.7-18.5,10.7ZM568.4-143.9l-18.5,10.7-18.5-10.7,18.5-10.7,18.5,10.7ZM530.3-144.6l-18.5-10.7,18.5-10.7,18.5,10.7-18.5,10.7ZM529.2-143.9l-18.5,10.7-18.5-10.7,18.5-10.7,18.5,10.7ZM491.1-144.6l-18.5-10.7,18.5-10.7,18.5,10.7-18.5,10.7ZM490-143.9l-18.5,10.7-18.5-10.7,18.5-10.7,18.5,10.7ZM452-144.6l-18.5-10.7,18.5-10.7,18.5,10.7-18.5,10.7ZM450.8-143.9l-20.5,11.8-18.5-10.7,20.5-11.8,18.5,10.7h0ZM410.7-143.4l-20.5-11.8,20.5-11.8,20.5,11.8-20.5,11.8ZM409.6-142.7l-18.5,10.7-20.5-11.8,18.5-10.7,20.5,11.8ZM369.5-144.6l-18.5-10.7,18.5-10.7,18.5,10.7-18.5,10.7ZM368.4-143.9l-18.5,10.7-18.5-10.7,18.5-10.7,18.5,10.7ZM330.3-144.6l-18.5-10.7,18.5-10.7,18.5,10.7-18.5,10.7ZM329.2-143.9l-18.5,10.7-18.5-10.7,18.5-10.7,18.5,10.7ZM291.1-144.6l-18.5-10.7,18.5-10.7,18.5,10.7-18.5,10.7ZM290-143.9l-18.5,10.7-18.5-10.7,18.5-10.7,18.5,10.7ZM251.9-144.6l-18.5-10.7,18.5-10.7,18.5,10.7-18.5,10.7ZM250.8-143.9l-18.5,10.7-18.5-10.7,18.5-10.7,18.5,10.7ZM212.7-144.6l-18.5-10.7,18.5-10.7,18.5,10.7-18.5,10.7ZM211.6-143.9l-18.5,10.7-18.5-10.7,18.5-10.7,18.5,10.7ZM173.5-144.6l-18.5-10.7,18.5-10.7,18.5,10.7-18.5,10.7ZM172.4-143.9l-18.5,10.7-18.5-10.7,18.5-10.7,18.5,10.7ZM134.3-144.6l-18.5-10.7,18.5-10.7,18.5,10.7-18.5,10.7ZM133.2-143.9l-18.5,10.7-18.5-10.7,18.5-10.7,18.5,10.7ZM95.1-144.6l-18.5-10.7,18.5-10.7,18.5,10.7-18.5,10.7ZM94-143.9l-18.5,10.7-18.5-10.7,18.5-10.7,18.5,10.7ZM94-121.3l-18.5,10.7-18.5-10.7,18.5-10.7,18.5,10.7ZM94-98.7l-18.5,10.7-18.5-10.7,18.5-10.7,18.5,10.7ZM94-76l-18.5,10.7-18.5-10.7,18.5-10.7,18.5,10.7ZM94-53.4l-18.5,10.7-18.5-10.7,18.5-10.7s18.5,10.7,18.5,10.7ZM94-30.8l-18.5,10.7-18.5-10.7,18.5-10.7,18.5,10.7ZM94-8.2l-18.5,10.7-18.5-10.7,18.5-10.7,18.5,10.7ZM94,14.5l-19.8,11.5-18.5-10.7,19.8-11.5,18.5,10.7ZM94.7,39.1l-18.5,10.7-20.5-11.8,18.5-10.7,20.5,11.8ZM94.7,61.7l-18.5,10.7-18.5-10.7,18.5-10.7,18.5,10.7ZM94.7,84.3l-18.5,10.7-18.5-10.7,18.5-10.7,18.5,10.7ZM94.7,106.9l-18.5,10.7-18.5-10.7,18.5-10.7,18.5,10.7ZM94.7,129.6l-18.5,10.7-18.5-10.7,18.5-10.7,18.5,10.7ZM94.7,152.2l-18.5,10.7-18.5-10.7,18.5-10.7,18.5,10.7ZM94.7,174.8l-18.5,10.7-18.5-10.7,18.5-10.7,18.5,10.7ZM94.7,197.5l-18.5,10.7-18.5-10.7,18.5-10.7,18.5,10.7ZM94.7,220.1l-18.5,10.7-18.5-10.7,18.5-10.7,18.5,10.7ZM94.7,242.7l-18.5,10.7-18.5-10.7,18.5-10.7,18.5,10.7ZM94.7,265.3l-18.5,10.7-18.5-10.7,18.5-10.7,18.5,10.7ZM94.7,288l-18.5,10.7-18.5-10.7,18.5-10.7,18.5,10.7ZM94.7,310.6l-18.5,10.7-18.5-10.7,18.5-10.7,18.5,10.7ZM94.7,333.2l-18.5,10.7-18.5-10.7,18.5-10.7,18.5,10.7ZM94.7,355.8l-18.5,10.7-18.5-10.7,18.5-10.7,18.5,10.7ZM94.7,378.5l-20.5,11.8-18.5-10.7,20.5-11.8,18.5,10.7ZM94,403.1l-18.5,10.7-19.8-11.5,18.5-10.7,19.8,11.5ZM94,425.7l-18.5,10.7-18.5-10.7,18.5-10.7,18.5,10.7ZM94,448.3l-18.5,10.7-18.5-10.7,18.5-10.7,18.5,10.7ZM94,470.9l-18.5,10.7-18.5-10.7,18.5-10.7,18.5,10.7ZM94,493.6l-18.5,10.7-18.5-10.7,18.5-10.7,18.5,10.7ZM94,516.2l-18.5,10.7-18.5-10.7,18.5-10.7,18.5,10.7ZM76.6,504.9l18.5-10.7,18.5,10.7-18.5,10.7-18.5-10.7h0ZM114.7,505.5l18.5,10.7-18.5,10.7-18.5-10.7,18.5-10.7ZM115.8,504.9l18.5-10.7,18.5,10.7-18.5,10.7-18.5-10.7h0ZM153.9,505.5l18.5,10.7-18.5,10.7-18.5-10.7,18.5-10.7ZM155,504.9l18.5-10.7,18.5,10.7-18.5,10.7-18.5-10.7h0ZM193.1,505.5l18.5,10.7-18.5,10.7-18.5-10.7,18.5-10.7ZM194.2,504.9l18.5-10.7,18.5,10.7-18.5,10.7-18.5-10.7h0ZM232.3,505.5l18.5,10.7-18.5,10.7-18.5-10.7,18.5-10.7ZM233.4,504.9l18.5-10.7,18.5,10.7-18.5,10.7-18.5-10.7h0ZM271.5,505.5l18.5,10.7-18.5,10.7-18.5-10.7,18.5-10.7ZM272.6,504.9l20.5-11.8,18.5,10.7-20.5,11.8-18.5-10.7h0ZM312.7,504.3l18.5,10.7-20.5,11.8-18.5-10.7,20.5-11.8ZM313.8,503.7l18.5-10.7,18.5,10.7-18.5,10.7-18.5-10.7ZM351.9,504.3l18.5,10.7-18.5,10.7-18.5-10.7,18.5-10.7ZM353,503.7l18.5-10.7,18.5,10.7-18.5,10.7-18.5-10.7ZM391.1,504.3l18.5,10.7-18.5,10.7-18.5-10.7,18.5-10.7ZM392.2,503.7l18.5-10.7,18.5,10.7-18.5,10.7-18.5-10.7ZM430.3,504.3l18.5,10.7-18.5,10.7-18.5-10.7,18.5-10.7ZM431.4,503.7l18.5-10.7,18.5,10.7-18.5,10.7-18.5-10.7ZM469.5,504.3l18.5,10.7-18.5,10.7-18.5-10.7,18.5-10.7ZM470.6,503.7l18.5-10.7,18.5,10.7-18.5,10.7-18.5-10.7ZM508.7,504.3l20.5,11.8-18.5,10.7-20.5-11.8,18.5-10.7ZM509.8,503.7l18.5-10.7,20.5,11.8-18.5,10.7-20.5-11.8ZM549.9,505.5l18.5,10.7-18.5,10.7-18.5-10.7,18.5-10.7ZM551,504.9l18.5-10.7,18.5,10.7-18.5,10.7-18.5-10.7h0ZM589.1,505.5l18.5,10.7-18.5,10.7-18.5-10.7,18.5-10.7ZM590.2,504.9l18.5-10.7,18.5,10.7-18.5,10.7-18.5-10.7h0ZM628.3,505.5l18.5,10.7-18.5,10.7-18.5-10.7,18.5-10.7ZM629.4,504.9l18.5-10.7,18.5,10.7-18.5,10.7-18.5-10.7h0ZM667.5,505.5l18.5,10.7-18.5,10.7-18.5-10.7,18.5-10.7ZM668.6,504.9l18.5-10.7,18.5,10.7-18.5,10.7-18.5-10.7h0ZM706.7,505.5l18.5,10.7-18.5,10.7-18.5-10.7,18.5-10.7ZM707.8,504.9l18.5-10.7,18.5,10.7-18.5,10.7-18.5-10.7h0ZM707.8,482.3l18.5-10.7,18.5,10.7-18.5,10.7-18.5-10.7ZM707.8,459.6l18.5-10.7,18.5,10.7-18.5,10.7-18.5-10.7ZM707.8,437l18.5-10.7,18.5,10.7-18.5,10.7-18.5-10.7ZM707.8,414.4l18.5-10.7,18.5,10.7-18.5,10.7-18.5-10.7ZM705.8,390.6l19.8-11.5,20.5,11.8-19.8,11.5-20.5-11.8ZM707.1,367.2l18.5-10.7,18.5,10.7-18.5,10.7-18.5-10.7ZM707.1,344.5l18.5-10.7,18.5,10.7-18.5,10.7-18.5-10.7ZM707.1,321.9l18.5-10.7,18.5,10.7-18.5,10.7-18.5-10.7ZM707.1,299.3l18.5-10.7,18.5,10.7-18.5,10.7-18.5-10.7ZM707.1,276.6l18.5-10.7,18.5,10.7-18.5,10.7-18.5-10.7ZM707.1,254l18.5-10.7,18.5,10.7-18.5,10.7-18.5-10.7h0ZM707.1,231.4l18.5-10.7,18.5,10.7-18.5,10.7-18.5-10.7ZM707.1,208.8l18.5-10.7,18.5,10.7-18.5,10.7-18.5-10.7ZM707.1,186.1l18.5-10.7,18.5,10.7-18.5,10.7-18.5-10.7ZM707.1,163.5l18.5-10.7,18.5,10.7-18.5,10.7-18.5-10.7ZM707.1,140.9l18.5-10.7,18.5,10.7-18.5,10.7-18.5-10.7ZM707.1,118.3l18.5-10.7,18.5,10.7-18.5,10.7-18.5-10.7ZM707.1,95.6l18.5-10.7,18.5,10.7-18.5,10.7-18.5-10.7ZM707.1,73l18.5-10.7,18.5,10.7-18.5,10.7-18.5-10.7ZM707.1,50.4l18.5-10.7,18.5,10.7-18.5,10.7-18.5-10.7ZM705.8,27l20.5-11.8,19.8,11.5-20.5,11.8-19.8-11.5ZM707.8,3.1l18.5-10.7,18.5,10.7-18.5,10.7s-18.5-10.7-18.5-10.7ZM707.8-19.5l18.5-10.7,18.5,10.7-18.5,10.7-18.5-10.7ZM707.8-42.1l18.5-10.7,18.5,10.7-18.5,10.7-18.5-10.7ZM707.8-64.7l18.5-10.7,18.5,10.7-18.5,10.7-18.5-10.7ZM727.4-76l18.5-10.7,18.5,10.7-18.5,10.7-18.5-10.7ZM727.4-98.7l18.5-10.7,18.5,10.7-18.5,10.7-18.5-10.7ZM727.4-121.3l18.5-10.7,18.5,10.7-18.5,10.7-18.5-10.7ZM727.4-143.9l18.5-10.7,18.5,10.7-18.5,10.7-18.5-10.7ZM727.4-166.6l18.5-10.7,18.5,10.7-18.5,10.7-18.5-10.7ZM726.3-167.2l-18.5-10.7,18.5-10.7,18.5,10.7-18.5,10.7ZM725.2-166.6l-18.5,10.7-18.5-10.7,18.5-10.7,18.5,10.7ZM687.1-167.2l-18.5-10.7,18.5-10.7,18.5,10.7-18.5,10.7ZM686-166.6l-18.5,10.7-18.5-10.7,18.5-10.7,18.5,10.7ZM647.9-167.2l-18.5-10.7,18.5-10.7,18.5,10.7-18.5,10.7ZM646.8-166.6l-18.5,10.7-18.5-10.7,18.5-10.7,18.5,10.7ZM608.7-167.2l-18.5-10.7,18.5-10.7,18.5,10.7-18.5,10.7ZM607.6-166.6l-18.5,10.7-18.5-10.7,18.5-10.7,18.5,10.7ZM569.5-167.2l-18.5-10.7,18.5-10.7,18.5,10.7-18.5,10.7ZM568.4-166.6l-18.5,10.7-18.5-10.7,18.5-10.7,18.5,10.7ZM530.3-167.2l-18.5-10.7,18.5-10.7,18.5,10.7-18.5,10.7ZM529.2-166.6l-18.5,10.7-18.5-10.7,18.5-10.7,18.5,10.7ZM491.1-167.2l-18.5-10.7,18.5-10.7,18.5,10.7-18.5,10.7ZM490-166.6l-18.5,10.7-18.5-10.7,18.5-10.7,18.5,10.7ZM452-167.2l-20.5-11.8,18.5-10.7,20.5,11.8-18.5,10.7ZM450.8-166.6l-18.5,10.7-20.5-11.8,18.5-10.7,20.5,11.8h0ZM410.7-168.4l-18.5-10.7,18.5-10.7,18.5,10.7-18.5,10.7ZM409.6-167.7l-20.5,11.8-18.5-10.7,20.5-11.8,18.5,10.7ZM369.5-167.2l-18.5-10.7,20.5-11.8,18.5,10.7-20.5,11.8ZM368.4-166.6l-18.5,10.7-18.5-10.7,18.5-10.7,18.5,10.7ZM330.3-167.2l-18.5-10.7,18.5-10.7,18.5,10.7-18.5,10.7ZM329.2-166.6l-18.5,10.7-18.5-10.7,18.5-10.7,18.5,10.7ZM291.1-167.2l-18.5-10.7,18.5-10.7,18.5,10.7-18.5,10.7ZM290-166.6l-18.5,10.7-18.5-10.7,18.5-10.7,18.5,10.7ZM251.9-167.2l-18.5-10.7,18.5-10.7,18.5,10.7-18.5,10.7ZM250.8-166.6l-18.5,10.7-18.5-10.7,18.5-10.7,18.5,10.7ZM212.7-167.2l-18.5-10.7,18.5-10.7,18.5,10.7-18.5,10.7ZM211.6-166.6l-18.5,10.7-18.5-10.7,18.5-10.7,18.5,10.7ZM173.5-167.2l-18.5-10.7,18.5-10.7,18.5,10.7-18.5,10.7ZM172.4-166.6l-18.5,10.7-18.5-10.7,18.5-10.7,18.5,10.7ZM134.3-167.2l-18.5-10.7,18.5-10.7,18.5,10.7-18.5,10.7ZM133.2-166.6l-18.5,10.7-18.5-10.7,18.5-10.7,18.5,10.7ZM95.1-167.2l-18.5-10.7,18.5-10.7,18.5,10.7-18.5,10.7ZM94-166.6l-18.5,10.7-18.5-10.7,18.5-10.7,18.5,10.7ZM56-167.2l-18.5-10.7,18.5-10.7,18.5,10.7-18.5,10.7ZM74.4-155.2l-18.5,10.7-18.5-10.7,18.5-10.7,18.5,10.7ZM74.4-132.6l-18.5,10.7-18.5-10.7,18.5-10.7,18.5,10.7ZM74.4-110l-18.5,10.7-18.5-10.7,18.5-10.7,18.5,10.7ZM74.4-87.4l-18.5,10.7-18.5-10.7,18.5-10.7,18.5,10.7ZM74.4-64.7l-18.5,10.7-18.5-10.7,18.5-10.7,18.5,10.7ZM74.4-42.1l-18.5,10.7-18.5-10.7,18.5-10.7,18.5,10.7ZM74.4-19.5l-18.5,10.7-18.5-10.7,18.5-10.7,18.5,10.7ZM74.4,3.1l-19.8,11.5L36.1,3.9l19.8-11.5,18.5,10.7h0ZM73.1,26.6l-18.5,10.7-18.5-10.7,18.5-10.7s18.5,10.7,18.5,10.7ZM75.1,50.4l-18.5,10.7-20.5-11.8,18.5-10.7,20.5,11.8h0ZM75.1,73l-18.5,10.7-18.5-10.7,18.5-10.7,18.5,10.7ZM75.1,95.6l-18.5,10.7-18.5-10.7,18.5-10.7,18.5,10.7ZM75.1,118.3l-18.5,10.7-18.5-10.7,18.5-10.7,18.5,10.7ZM75.1,140.9l-18.5,10.7-18.5-10.7,18.5-10.7,18.5,10.7ZM75.1,163.5l-18.5,10.7-18.5-10.7,18.5-10.7,18.5,10.7ZM75.1,186.1l-18.5,10.7-18.5-10.7,18.5-10.7,18.5,10.7ZM75.1,208.8l-18.5,10.7-18.5-10.7,18.5-10.7,18.5,10.7ZM75.1,231.4l-18.5,10.7-18.5-10.7,18.5-10.7,18.5,10.7ZM75.1,254l-18.5,10.7-18.5-10.7,18.5-10.7,18.5,10.7h0ZM75.1,276.6l-18.5,10.7-18.5-10.7,18.5-10.7,18.5,10.7ZM75.1,299.3l-18.5,10.7-18.5-10.7,18.5-10.7,18.5,10.7ZM75.1,321.9l-18.5,10.7-18.5-10.7,18.5-10.7,18.5,10.7ZM75.1,344.5l-18.5,10.7-18.5-10.7,18.5-10.7,18.5,10.7ZM75.1,367.2l-20.5,11.8-18.5-10.7,20.5-11.8,18.5,10.7h0ZM73.1,391l-18.5,10.7-18.5-10.7,18.5-10.7,18.5,10.7ZM74.4,414.4l-18.5,10.7-19.8-11.5,18.5-10.7,19.8,11.5h0ZM74.4,437l-18.5,10.7-18.5-10.7,18.5-10.7,18.5,10.7ZM74.4,459.6l-18.5,10.7-18.5-10.7,18.5-10.7,18.5,10.7ZM74.4,482.3l-18.5,10.7-18.5-10.7,18.5-10.7,18.5,10.7ZM74.4,504.9l-18.5,10.7-18.5-10.7,18.5-10.7,18.5,10.7h0ZM74.4,527.5l-18.5,10.7-18.5-10.7,18.5-10.7,18.5,10.7h0ZM75.5,528.2l18.5,10.7-18.5,10.7-18.5-10.7,18.5-10.7h0ZM76.6,527.5l18.5-10.7,18.5,10.7-18.5,10.7-18.5-10.7ZM114.7,528.2l18.5,10.7-18.5,10.7-18.5-10.7,18.5-10.7ZM115.8,527.5l18.5-10.7,18.5,10.7-18.5,10.7-18.5-10.7ZM153.9,528.2l18.5,10.7-18.5,10.7-18.5-10.7,18.5-10.7ZM155,527.5l18.5-10.7,18.5,10.7-18.5,10.7-18.5-10.7ZM193.1,528.2l18.5,10.7-18.5,10.7-18.5-10.7,18.5-10.7ZM194.2,527.5l18.5-10.7,18.5,10.7-18.5,10.7-18.5-10.7ZM232.3,528.2l18.5,10.7-18.5,10.7-18.5-10.7,18.5-10.7ZM233.4,527.5l18.5-10.7,18.5,10.7-18.5,10.7-18.5-10.7ZM271.5,528.2l18.5,10.7-18.5,10.7-18.5-10.7,18.5-10.7ZM272.6,527.5l18.5-10.7,18.5,10.7-18.5,10.7-18.5-10.7ZM310.7,528.2l18.5,10.7-18.5,10.7-18.5-10.7,18.5-10.7ZM311.8,527.5l20.5-11.8,18.5,10.7-20.5,11.8-18.5-10.7h0ZM351.9,527l18.5,10.7-20.5,11.8-18.5-10.7,20.5-11.8h0ZM353,526.3l18.5-10.7,18.5,10.7-18.5,10.7-18.5-10.7ZM391.1,527l18.5,10.7-18.5,10.7-18.5-10.7,18.5-10.7ZM392.2,526.3l18.5-10.7,18.5,10.7-18.5,10.7-18.5-10.7ZM430.3,527l18.5,10.7-18.5,10.7-18.5-10.7,18.5-10.7ZM431.4,526.3l18.5-10.7,18.5,10.7-18.5,10.7-18.5-10.7ZM469.5,527l20.5,11.8-18.5,10.7-20.5-11.8,18.5-10.7ZM470.6,526.3l18.5-10.7,20.5,11.8-18.5,10.7-20.5-11.8ZM510.7,528.2l18.5,10.7-18.5,10.7-18.5-10.7,18.5-10.7ZM511.8,527.5l18.5-10.7,18.5,10.7-18.5,10.7-18.5-10.7ZM549.9,528.2l18.5,10.7-18.5,10.7-18.5-10.7,18.5-10.7ZM551,527.5l18.5-10.7,18.5,10.7-18.5,10.7-18.5-10.7ZM589.1,528.2l18.5,10.7-18.5,10.7-18.5-10.7,18.5-10.7ZM590.2,527.5l18.5-10.7,18.5,10.7-18.5,10.7-18.5-10.7ZM628.3,528.2l18.5,10.7-18.5,10.7-18.5-10.7,18.5-10.7ZM629.4,527.5l18.5-10.7,18.5,10.7-18.5,10.7-18.5-10.7ZM667.5,528.2l18.5,10.7-18.5,10.7-18.5-10.7,18.5-10.7ZM668.6,527.5l18.5-10.7,18.5,10.7-18.5,10.7-18.5-10.7ZM706.7,528.2l18.5,10.7-18.5,10.7-18.5-10.7,18.5-10.7ZM707.8,527.5l18.5-10.7,18.5,10.7-18.5,10.7-18.5-10.7ZM745.9,528.2l18.5,10.7-18.5,10.7-18.5-10.7,18.5-10.7ZM727.4,516.2l18.5-10.7,18.5,10.7-18.5,10.7-18.5-10.7ZM727.4,493.6l18.5-10.7,18.5,10.7-18.5,10.7-18.5-10.7ZM727.4,470.9l18.5-10.7,18.5,10.7-18.5,10.7-18.5-10.7ZM727.4,448.3l18.5-10.7,18.5,10.7-18.5,10.7-18.5-10.7ZM727.4,425.7l18.5-10.7,18.5,10.7-18.5,10.7-18.5-10.7ZM727.4,403.1l19.8-11.5,18.5,10.7-19.8,11.5-18.5-10.7ZM726.7,378.5l18.5-10.7,20.5,11.8-18.5,10.7-20.5-11.8ZM726.7,355.8l18.5-10.7,18.5,10.7-18.5,10.7-18.5-10.7ZM726.7,333.2l18.5-10.7,18.5,10.7-18.5,10.7-18.5-10.7ZM726.7,310.6l18.5-10.7,18.5,10.7-18.5,10.7-18.5-10.7ZM726.7,288l18.5-10.7,18.5,10.7-18.5,10.7-18.5-10.7ZM726.7,265.3l18.5-10.7,18.5,10.7-18.5,10.7-18.5-10.7ZM726.7,242.7l18.5-10.7,18.5,10.7-18.5,10.7-18.5-10.7ZM726.7,220.1l18.5-10.7,18.5,10.7-18.5,10.7-18.5-10.7ZM726.7,197.5l18.5-10.7,18.5,10.7-18.5,10.7-18.5-10.7ZM726.7,174.8l18.5-10.7,18.5,10.7-18.5,10.7-18.5-10.7ZM726.7,152.2l18.5-10.7,18.5,10.7-18.5,10.7-18.5-10.7ZM726.7,129.6l18.5-10.7,18.5,10.7-18.5,10.7-18.5-10.7ZM726.7,106.9l18.5-10.7,18.5,10.7-18.5,10.7-18.5-10.7ZM726.7,84.3l18.5-10.7,18.5,10.7-18.5,10.7-18.5-10.7ZM726.7,61.7l18.5-10.7,18.5,10.7-18.5,10.7-18.5-10.7ZM726.7,39.1l20.5-11.8,18.5,10.7-20.5,11.8-18.5-10.7ZM727.4,14.5l18.5-10.7,19.8,11.5-18.5,10.7-19.8-11.5ZM727.4-8.2l18.5-10.7,18.5,10.7-18.5,10.7-18.5-10.7ZM727.4-30.8l18.5-10.7,18.5,10.7-18.5,10.7-18.5-10.7ZM727.4-53.4l18.5-10.7,18.5,10.7-18.5,10.7s-18.5-10.7-18.5-10.7ZM784-87.4l-18.5,10.7-18.5-10.7,18.5-10.7,18.5,10.7ZM784-110l-18.5,10.7-18.5-10.7,18.5-10.7,18.5,10.7ZM784-132.6l-18.5,10.7-18.5-10.7,18.5-10.7,18.5,10.7ZM784-155.2l-18.5,10.7-18.5-10.7,18.5-10.7,18.5,10.7ZM784-177.9l-18.5,10.7-18.5-10.7,18.5-10.7,18.5,10.7ZM765.5-211.2l18.5,10.7-18.5,10.7-18.5-10.7,18.5-10.7ZM764.4-189.2l-18.5,10.7-18.5-10.7,18.5-10.7,18.5,10.7ZM726.3-211.2l18.5,10.7-18.5,10.7-18.5-10.7,18.5-10.7ZM725.2-189.2l-18.5,10.7-18.5-10.7,18.5-10.7,18.5,10.7ZM687.1-211.2l18.5,10.7-18.5,10.7-18.5-10.7,18.5-10.7ZM686-189.2l-18.5,10.7-18.5-10.7,18.5-10.7,18.5,10.7ZM647.9-211.2l18.5,10.7-18.5,10.7-18.5-10.7,18.5-10.7ZM646.8-189.2l-18.5,10.7-18.5-10.7,18.5-10.7,18.5,10.7ZM608.7-211.2l18.5,10.7-18.5,10.7-18.5-10.7,18.5-10.7ZM607.6-189.2l-18.5,10.7-18.5-10.7,18.5-10.7,18.5,10.7ZM569.5-211.2l18.5,10.7-18.5,10.7-18.5-10.7,18.5-10.7ZM568.4-189.2l-18.5,10.7-18.5-10.7,18.5-10.7,18.5,10.7ZM530.3-211.2l18.5,10.7-18.5,10.7-18.5-10.7,18.5-10.7ZM529.2-189.2l-18.5,10.7-18.5-10.7,18.5-10.7,18.5,10.7ZM489.1-212.4l20.5,11.8-18.5,10.7-20.5-11.8,18.5-10.7ZM490-189.2l-18.5,10.7-20.5-11.8,18.5-10.7,20.5,11.8ZM449.9-212.4l18.5,10.7-18.5,10.7-18.5-10.7,18.5-10.7ZM448.8-190.4l-18.5,10.7-18.5-10.7,18.5-10.7,18.5,10.7ZM410.7-212.4l18.5,10.7-18.5,10.7-18.5-10.7,18.5-10.7ZM409.6-190.4l-18.5,10.7-18.5-10.7,18.5-10.7,18.5,10.7ZM371.5-212.4l18.5,10.7-18.5,10.7-18.5-10.7,18.5-10.7ZM370.4-190.4l-20.5,11.8-18.5-10.7,20.5-11.8,18.5,10.7h0ZM332.3-212.4l18.5,10.7-20.5,11.8-18.5-10.7,20.5-11.8h0ZM329.2-189.2l-18.5,10.7-18.5-10.7,18.5-10.7,18.5,10.7ZM291.1-211.2l18.5,10.7-18.5,10.7-18.5-10.7,18.5-10.7ZM290-189.2l-18.5,10.7-18.5-10.7,18.5-10.7,18.5,10.7ZM251.9-211.2l18.5,10.7-18.5,10.7-18.5-10.7,18.5-10.7ZM250.8-189.2l-18.5,10.7-18.5-10.7,18.5-10.7,18.5,10.7ZM212.7-211.2l18.5,10.7-18.5,10.7-18.5-10.7,18.5-10.7ZM211.6-189.2l-18.5,10.7-18.5-10.7,18.5-10.7,18.5,10.7ZM173.5-211.2l18.5,10.7-18.5,10.7-18.5-10.7,18.5-10.7ZM172.4-189.2l-18.5,10.7-18.5-10.7,18.5-10.7,18.5,10.7ZM134.3-211.2l18.5,10.7-18.5,10.7-18.5-10.7,18.5-10.7ZM133.2-189.2l-18.5,10.7-18.5-10.7,18.5-10.7,18.5,10.7ZM95.1-211.2l18.5,10.7-18.5,10.7-18.5-10.7,18.5-10.7ZM94-189.2l-18.5,10.7-18.5-10.7,18.5-10.7,18.5,10.7ZM56-211.2l18.5,10.7-18.5,10.7-18.5-10.7,18.5-10.7ZM17.9-189.2l18.5-10.7,18.5,10.7-18.5,10.7s-18.5-10.7-18.5-10.7ZM17.9-166.6l18.5-10.7,18.5,10.7-18.5,10.7s-18.5-10.7-18.5-10.7ZM17.9-143.9l18.5-10.7,18.5,10.7-18.5,10.7s-18.5-10.7-18.5-10.7ZM17.9-121.3l18.5-10.7,18.5,10.7-18.5,10.7s-18.5-10.7-18.5-10.7ZM17.9-98.7l18.5-10.7,18.5,10.7-18.5,10.7s-18.5-10.7-18.5-10.7ZM17.9-76l18.5-10.7,18.5,10.7-18.5,10.7s-18.5-10.7-18.5-10.7ZM17.9-53.4l18.5-10.7,18.5,10.7-18.5,10.7s-18.5-10.7-18.5-10.7ZM17.9-30.8l18.5-10.7,18.5,10.7-18.5,10.7s-18.5-10.7-18.5-10.7ZM16.5-7.4l19.8-11.5,18.5,10.7L35,3.3,16.5-7.4ZM16.5,15.3l18.5-10.7,18.5,10.7-18.5,10.7-18.5-10.7ZM16.5,37.9l18.5-10.7,18.5,10.7-18.5,10.7-18.5-10.7ZM16.5,60.5l18.5-10.7,20.5,11.8-18.5,10.7s-20.5-11.8-20.5-11.8ZM18.5,84.3l18.5-10.7,18.5,10.7-18.5,10.7-18.5-10.7ZM18.5,106.9l18.5-10.7,18.5,10.7-18.5,10.7-18.5-10.7ZM18.5,129.6l18.5-10.7,18.5,10.7-18.5,10.7-18.5-10.7ZM18.5,152.2l18.5-10.7,18.5,10.7-18.5,10.7-18.5-10.7ZM18.5,174.8l18.5-10.7,18.5,10.7-18.5,10.7-18.5-10.7ZM18.5,197.5l18.5-10.7,18.5,10.7-18.5,10.7-18.5-10.7ZM18.5,220.1l18.5-10.7,18.5,10.7-18.5,10.7-18.5-10.7ZM18.5,242.7l18.5-10.7,18.5,10.7-18.5,10.7-18.5-10.7ZM18.5,265.3l18.5-10.7,18.5,10.7-18.5,10.7-18.5-10.7ZM18.5,288l18.5-10.7,18.5,10.7-18.5,10.7-18.5-10.7ZM18.5,310.6l18.5-10.7,18.5,10.7-18.5,10.7-18.5-10.7ZM18.5,333.2l18.5-10.7,18.5,10.7-18.5,10.7-18.5-10.7ZM16.5,357l20.5-11.8,18.5,10.7-20.5,11.8-18.5-10.7ZM16.5,379.7l18.5-10.7,18.5,10.7-18.5,10.7-18.5-10.7ZM16.5,402.3l18.5-10.7,18.5,10.7-18.5,10.7-18.5-10.7ZM16.5,424.9l18.5-10.7,19.8,11.5-18.5,10.7-19.8-11.5ZM17.9,448.3l18.5-10.7,18.5,10.7-18.5,10.7s-18.5-10.7-18.5-10.7ZM17.9,470.9l18.5-10.7,18.5,10.7-18.5,10.7s-18.5-10.7-18.5-10.7ZM17.9,493.6l18.5-10.7,18.5,10.7-18.5,10.7s-18.5-10.7-18.5-10.7ZM17.9,516.2l18.5-10.7,18.5,10.7-18.5,10.7s-18.5-10.7-18.5-10.7ZM17.9,538.8l18.5-10.7,18.5,10.7-18.5,10.7s-18.5-10.7-18.5-10.7ZM36.3,572.1l-18.5-10.7,18.5-10.7,18.5,10.7-18.5,10.7ZM37.5,550.1l18.5-10.7,18.5,10.7-18.5,10.7-18.5-10.7ZM75.5,572.1l-18.5-10.7,18.5-10.7,18.5,10.7-18.5,10.7h0ZM76.6,550.1l18.5-10.7,18.5,10.7-18.5,10.7-18.5-10.7ZM114.7,572.1l-18.5-10.7,18.5-10.7,18.5,10.7-18.5,10.7ZM115.8,550.1l18.5-10.7,18.5,10.7-18.5,10.7-18.5-10.7ZM153.9,572.1l-18.5-10.7,18.5-10.7,18.5,10.7-18.5,10.7ZM155,550.1l18.5-10.7,18.5,10.7-18.5,10.7-18.5-10.7ZM193.1,572.1l-18.5-10.7,18.5-10.7,18.5,10.7-18.5,10.7ZM194.2,550.1l18.5-10.7,18.5,10.7-18.5,10.7-18.5-10.7ZM232.3,572.1l-18.5-10.7,18.5-10.7,18.5,10.7-18.5,10.7ZM233.4,550.1l18.5-10.7,18.5,10.7-18.5,10.7-18.5-10.7ZM271.5,572.1l-18.5-10.7,18.5-10.7,18.5,10.7-18.5,10.7ZM272.6,550.1l18.5-10.7,18.5,10.7-18.5,10.7-18.5-10.7ZM310.7,572.1l-18.5-10.7,18.5-10.7,18.5,10.7-18.5,10.7ZM311.8,550.1l18.5-10.7,18.5,10.7-18.5,10.7-18.5-10.7ZM349.9,572.1l-18.5-10.7,18.5-10.7,18.5,10.7-18.5,10.7ZM351,550.1l20.5-11.8,18.5,10.7-20.5,11.8-18.5-10.7ZM389.1,572.1l-18.5-10.7,20.5-11.8,18.5,10.7-20.5,11.8ZM392.2,549l18.5-10.7,18.5,10.7-18.5,10.7-18.5-10.7ZM432.3,572.1l-20.5-11.8,18.5-10.7,20.5,11.8-18.5,10.7h0ZM431.4,549l18.5-10.7,20.5,11.8-18.5,10.7-20.5-11.8ZM471.5,572.1l-18.5-10.7,18.5-10.7,18.5,10.7-18.5,10.7ZM472.6,550.1l18.5-10.7,18.5,10.7-18.5,10.7-18.5-10.7ZM510.7,572.1l-18.5-10.7,18.5-10.7,18.5,10.7-18.5,10.7ZM511.8,550.1l18.5-10.7,18.5,10.7-18.5,10.7-18.5-10.7ZM549.9,572.1l-18.5-10.7,18.5-10.7,18.5,10.7-18.5,10.7ZM551,550.1l18.5-10.7,18.5,10.7-18.5,10.7-18.5-10.7ZM589.1,572.1l-18.5-10.7,18.5-10.7,18.5,10.7-18.5,10.7ZM590.2,550.1l18.5-10.7,18.5,10.7-18.5,10.7-18.5-10.7ZM628.3,572.1l-18.5-10.7,18.5-10.7,18.5,10.7-18.5,10.7ZM629.4,550.1l18.5-10.7,18.5,10.7-18.5,10.7-18.5-10.7ZM667.5,572.1l-18.5-10.7,18.5-10.7,18.5,10.7-18.5,10.7ZM668.6,550.1l18.5-10.7,18.5,10.7-18.5,10.7-18.5-10.7ZM706.7,572.1l-18.5-10.7,18.5-10.7,18.5,10.7-18.5,10.7ZM707.8,550.1l18.5-10.7,18.5,10.7-18.5,10.7-18.5-10.7ZM745.9,572.1l-18.5-10.7,18.5-10.7,18.5,10.7-18.5,10.7ZM784,550.1l-18.5,10.7-18.5-10.7,18.5-10.7,18.5,10.7ZM784,527.5l-18.5,10.7-18.5-10.7,18.5-10.7,18.5,10.7ZM784,504.9l-18.5,10.7-18.5-10.7,18.5-10.7,18.5,10.7h0ZM784,482.3l-18.5,10.7-18.5-10.7,18.5-10.7,18.5,10.7ZM784,459.6l-18.5,10.7-18.5-10.7,18.5-10.7,18.5,10.7ZM784,437l-18.5,10.7-18.5-10.7,18.5-10.7,18.5,10.7ZM785.3,413.6l-19.8,11.5-18.5-10.7,19.8-11.5,18.5,10.7ZM785.3,391l-18.5,10.7-18.5-10.7,18.5-10.7,18.5,10.7ZM785.3,368.3l-18.5,10.7-20.5-11.8,18.5-10.7,20.5,11.8h0ZM783.3,344.5l-18.5,10.7-18.5-10.7,18.5-10.7,18.5,10.7ZM783.3,321.9l-18.5,10.7-18.5-10.7,18.5-10.7,18.5,10.7ZM783.3,299.3l-18.5,10.7-18.5-10.7,18.5-10.7,18.5,10.7ZM783.3,276.6l-18.5,10.7-18.5-10.7,18.5-10.7,18.5,10.7ZM783.3,254l-18.5,10.7-18.5-10.7,18.5-10.7,18.5,10.7h0ZM783.3,231.4l-18.5,10.7-18.5-10.7,18.5-10.7,18.5,10.7ZM783.3,208.8l-18.5,10.7-18.5-10.7,18.5-10.7,18.5,10.7ZM783.3,186.1l-18.5,10.7-18.5-10.7,18.5-10.7,18.5,10.7ZM783.3,163.5l-18.5,10.7-18.5-10.7,18.5-10.7,18.5,10.7ZM783.3,140.9l-18.5,10.7-18.5-10.7,18.5-10.7,18.5,10.7ZM783.3,118.3l-18.5,10.7-18.5-10.7,18.5-10.7,18.5,10.7ZM783.3,95.6l-18.5,10.7-18.5-10.7,18.5-10.7,18.5,10.7ZM783.3,73l-18.5,10.7-18.5-10.7,18.5-10.7,18.5,10.7ZM785.3,49.2l-20.5,11.8-18.5-10.7,20.5-11.8,18.5,10.7ZM785.3,26.6l-18.5,10.7-18.5-10.7,18.5-10.7s18.5,10.7,18.5,10.7ZM785.3,3.9l-18.5,10.7-19.8-11.5,18.5-10.7s19.8,11.5,19.8,11.5ZM784-19.5l-18.5,10.7-18.5-10.7,18.5-10.7,18.5,10.7ZM765.5-31.4l-18.5-10.7,18.5-10.7,18.5,10.7s-18.5,10.7-18.5,10.7Z"/>
        <g>
          <g>
            <path class="cls-21" d="M305.3,264.1v7l-23.7,13.7-42.7-24.6,23.7-13.7h12.3l30.5,17.6ZM297,266.1l-25.7-14.9h-5.3l-15.5,9,31.1,17.9,15.5-9v-3.1h0Z"/>
            <path class="cls-21" d="M324.5,260l-5.8,3.4-42.7-24.6,5.8-3.4,42.7,24.6Z"/>
            <path class="cls-21" d="M356.6,234.5v7l-19.4,11.2h-12.1v-4.7h8.6l14.8-8.6v-2.9l-7.3-4.2h-5.2l-17,9.9h-12.1l-12.5-7.1v-7l19.4-11.2h12.1v4.7h-8.6l-14.8,8.6v2.9l7.7,4.4h5.2l17-9.8h12.2l11.9,6.8h0Z"/>
            <path class="cls-21" d="M404.2,214l-6.1,3.5-16.3-4.4-16.3,9.4,7.6,9.4-6.2,3.6-27.2-33.6,6.2-3.6,58.2,15.7h0ZM373.9,211l-22.5-6.1,10.5,13,12-6.9h0Z"/>
            <path class="cls-21" d="M433,190.3v7l-23.7,13.7-42.7-24.6,23.7-13.7h12.3l10.5,6.1v4.7h8.1l11.9,6.8ZM404.9,180.7l-5.7-3.3h-5.3l-15.5,9,12.9,7.5,13.7-7.9v-5.2h0ZM424.8,192.3l-7-4.1h-5.1l-15.7,9,12.3,7.1,15.5-9v-3.1h0Z"/>
            <path class="cls-21" d="M452.2,186.3l-5.8,3.4-42.7-24.6,5.8-3.4,42.7,24.6Z"/>
            <path class="cls-21" d="M480.1,170.1l-21.4,12.3-42.7-24.6,5.8-3.4,36.9,21.3,15.5-9,5.8,3.4h0Z"/>
            <path class="cls-21" d="M491,163.9l-5.8,3.4-42.7-24.6,5.8-3.4,42.7,24.6Z"/>
            <path class="cls-21" d="M485.8,124.3l-9.7,5.6,36.8,21.3-5.8,3.4-36.8-21.3-9.7,5.6-5.8-3.4,25.3-14.6,5.8,3.4h0Z"/>
            <path class="cls-21" d="M514.8,100.8l9.1,19.5,21.2,12.3-5.8,3.4-21.1-12.2-34.1-5.3,6.6-3.8,23.7,3.6-6.4-13.6,6.6-3.8h0Z"/>
            <path class="cls-21" d="M350.8,288.8v7l-6.5,3.8,31.3,4.9-5.9,3.4-31.3-4.9-7.3,4.2,19.9,11.5-5.8,3.4-42.7-24.6,25.5-14.7h12.2l10.7,6.2h0ZM342.5,290.8l-5.9-3.4h-5.2l-17.3,10,11.2,6.4,17.4-10.1v-2.9h-.1Z"/>
            <path class="cls-21" d="M389.3,296.5l-5.8,3.4-42.7-24.6,5.8-3.4,42.7,24.6Z"/>
            <path class="cls-21" d="M425.3,268.7v7l-22.6,13h-12.1l-30.6-17.7v-7l22.6-13h12.1v4.7h-8.6l-17.9,10.3v2.9l25.9,14.9h5.2l17.9-10.3v-2.9l-7.7-4.4-6.6,3.8-5.8-3.4,12.4-7.1,15.8,9.1h0Z"/>
            <path class="cls-21" d="M473.1,248.1l-5.8,3.4-18.3-10.5-24.1,13.9,18.3,10.5-5.8,3.4-42.7-24.6,5.8-3.4,18.5,10.7,24.1-13.9-18.5-10.7,5.8-3.4,42.7,24.6Z"/>
            <path class="cls-21" d="M467.8,208.6l-9.7,5.6,36.9,21.3-5.8,3.4-36.9-21.3-9.7,5.6-5.8-3.4,25.3-14.6,5.8,3.4h0Z"/>
            <path class="cls-21" d="M535,205.4v7l-19.4,11.2h-12.1v-4.7h8.6l14.8-8.6v-2.9l-7.3-4.2h-5.2l-17,9.9h-12.1l-12.5-7.1v-7l19.4-11.2h12.1v4.7h-8.6l-14.8,8.6v2.9l7.7,4.4h5.2l17-9.8h12.2l11.9,6.8h0Z"/>
          </g>
          <path class="cls-21" d="M345,393.1c-.3,0-.7,0-1.1-.3L53.8,226.2c-1-.6-1.4-1.9-.8-2.9s1.9-1.4,2.9-.8l290.1,166.6c1,.6,1.4,1.9.8,2.9-.4.7-1.1,1.1-1.8,1.1Z"/>
          <path class="cls-21" d="M345,393.1c-.7,0-1.5-.4-1.8-1.1-.6-1-.3-2.4.8-2.9l229.6-132.6c1-.6,2.4-.3,2.9.8.6,1,.3,2.3-.8,2.9l-229.6,132.6c-.3.2-.7.3-1.1.3Z"/>
          <polygon class="cls-21" points="579.3 248.8 567.9 248.8 559.8 253.4 559.8 260 567.9 264.7 579.3 264.7 587.4 260 587.4 253.4 579.3 248.8"/>
        </g>
        <g>
          <g>
            <g>
              <polygon class="cls-19" points="441.2 31.5 279.9 122.5 287.5 129.1 369 82 450.4 35 450.4 31.8 441.2 31.5"/>
              <polygon class="cls-10" points="171 67.5 171 64.3 226.6 92.4 281.5 124.8 277.6 129.1 171 67.5"/>
              <polygon class="cls-9" points="277.6 129.1 277.6 125.9 281.5 122.5 287.5 125.9 287.5 129.1 277.6 129.1"/>
              <polygon class="cls-5" points="343.7 -35.4 333.9 -35.5 252.4 11.6 171 58.7 171 64.3 277.6 125.9 287.5 125.9 369 78.9 450.4 31.8 450.4 26.2 343.7 -35.4"/>
            </g>
            <g>
              <polygon class="cls-23" points="369 78.9 450.4 31.8 450.4 23.4 359.8 73.6 369 78.9"/>
              <polygon class="cls-23" points="322.7 96 284 120 287.5 125.9 369 78.9 369 75 322.7 96"/>
              <polygon class="cls-20" points="287.5 122 275.5 120 277.6 125.9 287.5 125.9 287.5 122"/>
              <polygon class="cls-4" points="171 60.4 171 64.3 277.6 125.9 277.6 122 231.3 83.1 171 60.4"/>
              <polygon class="cls-32" points="171 54.8 171 60.4 277.6 122 287.5 122 369 75 320.8 41.9 252.4 7.7 171 54.8"/>
              <polygon class="cls-4" points="256.1 1 252.4 7.7 369 75 372.6 68.3 324.5 31.9 256.1 1"/>
              <polygon class="cls-32" points="372.6 68.3 450.4 23.4 450.4 17.7 343.7 -43.9 333.9 -43.9 256.1 1 372.6 68.3"/>
            </g>
            <g>
              <g>
                <polygon class="cls-18" points="269.4 26.2 203 64.5 206.7 66.7 273.1 28.3 269.4 26.2"/>
                <polygon class="cls-18" points="278.4 31.4 211.9 69.7 215.7 71.9 282.1 33.5 278.4 31.4"/>
                <polygon class="cls-18" points="287.3 36.5 220.9 74.9 224.7 77 291.1 38.7 287.3 36.5"/>
                <polygon class="cls-18" points="273.1 55.1 229.9 80.1 233.6 82.2 276.9 57.2 273.1 55.1"/>
                <polygon class="cls-18" points="305.3 46.9 238.8 85.2 242.6 87.4 309 49.1 305.3 46.9"/>
                <polygon class="cls-18" points="314.2 52.1 247.8 90.4 251.6 92.6 318 54.2 314.2 52.1"/>
                <polygon class="cls-18" points="341.1 67.6 274.7 106 278.5 108.1 344.9 69.8 341.1 67.6"/>
                <polygon class="cls-18" points="350.1 72.8 283.7 111.1 287.5 113.3 353.9 74.9 350.1 72.8"/>
              </g>
              <polygon class="cls-27" points="227 34.7 224.4 33.2 215.4 38.5 217.9 39.9 221.5 37.9 229 42.2 225.4 44.3 228 45.8 237 40.5 234.5 39 230.9 41.1 223.4 36.8 227 34.7"/>
              <path class="cls-27" d="M297.2,75.3l-2.5-1.5-9.1,5.2,2.5,1.5,1.5-.9,7.5,4.3-1.5.9,2.5,1.5,9.1-5.2-2.6-1.5-1.5.9-7.5-4.3,1.5-.9ZM301.2,81.7l-2.2,1.2-7.5-4.3,2.2-1.2,7.5,4.3Z"/>
              <path class="cls-27" d="M357.4,4.9l-2.6-1.5-12.6,7.2,2.5,1.5,1.5-.9,7.5,4.3-1.5.9,2.5,1.5,12.6-7.2-2.5-1.5-1.5.9-7.5-4.3,1.5-.9h0ZM348.3,10.2l1.8-1,7.5,4.3-1.8,1.1-7.5-4.4ZM361.5,11.3l-1.8,1.1-7.5-4.3,1.8-1.1,7.5,4.3Z"/>
              <g>
                <polygon class="cls-18" points="336.8 -38 270.4 .4 274.2 2.5 340.6 -35.8 336.8 -38"/>
                <polygon class="cls-18" points="297.9 -5.1 279.4 5.6 283.1 7.7 301.6 -2.9 297.9 -5.1"/>
                <polygon class="cls-18" points="354.7 -27.6 288.4 10.7 292.1 12.9 358.5 -25.4 354.7 -27.6"/>
                <polygon class="cls-18" points="363.7 -22.4 297.3 15.9 301.1 18.1 367.5 -20.3 363.7 -22.4"/>
                <polygon class="cls-18" points="347.3 -2.6 306.3 21.1 310 23.3 351.1 -.4 347.3 -2.6"/>
                <polygon class="cls-18" points="399.6 -1.7 333.2 36.6 336.9 38.8 403.4 .4 399.6 -1.7"/>
                <polygon class="cls-18" points="408.6 3.5 342.2 41.8 345.9 44 412.3 5.6 408.6 3.5"/>
                <polygon class="cls-18" points="417.5 8.6 351.1 47 354.9 49.2 421.3 10.8 417.5 8.6"/>
                <polygon class="cls-18" points="405.1 26.2 360.1 52.2 363.9 54.3 408.8 28.4 405.1 26.2"/>
                <polygon class="cls-18" points="435.5 19 369.1 57.3 372.8 59.5 439.2 21.2 435.5 19"/>
              </g>
            </g>
          </g>
          <g>
            <polygon class="cls-26" points="626.6 232.4 542.9 184.1 588.7 157.6 672.4 205.9 626.6 232.4"/>
            <polygon class="cls-32" points="626.6 193.6 542.9 145.3 565.9 125 622.8 147.2 649.5 173.3 626.6 193.6"/>
            <polygon class="cls-32" points="649.5 54.6 607.7 46.5 565.9 6.3 588.8 -13.9 672.5 34.4 649.5 54.6"/>
            <polygon class="cls-4" points="649.5 173.3 565.9 125 565.9 6.4 649.5 54.6 649.5 173.3"/>
            <g>
              <polygon class="cls-18" points="576.8 108.9 601.1 122.9 601.1 118.8 576.8 104.8 576.8 108.9"/>
              <polygon class="cls-18" points="576.8 99.3 638.6 134.9 638.6 130.9 576.8 95.2 576.8 99.3"/>
              <polygon class="cls-18" points="576.8 89.6 638.6 125.3 638.6 121.2 576.8 85.6 576.8 89.6"/>
              <polygon class="cls-18" points="576.8 60.7 638.6 96.4 638.6 92.3 576.8 56.7 576.8 60.7"/>
              <polygon class="cls-15" points="592 38.3 623.4 56.4 623.4 50.6 592 32.5 592 38.3"/>
              <polygon class="cls-18" points="576.8 51.1 603.8 66.7 603.8 62.7 576.8 47 576.8 51.1"/>
              <polygon class="cls-18" points="576.8 41.5 638.6 77.1 638.6 73.1 576.8 37.4 576.8 41.5"/>
              <polygon class="cls-18" points="576.8 80 617 103.2 617 99.2 576.8 75.9 576.8 80"/>
              <polygon class="cls-18" points="576.8 70.3 638.6 106 638.6 102 576.8 66.3 576.8 70.3"/>
            </g>
          </g>
          <g>
            <g>
              <polygon class="cls-11" points="214.7 208.3 222.1 217.3 315.1 163.5 315.1 159.9 301.7 140.9 214.7 208.3"/>
              <polygon class="cls-24" points="89 140.5 89 136.8 146.7 163.8 222.1 213.6 222.1 217.3 89 140.5"/>
              <polygon class="cls-6" points="89 136.8 222.1 213.6 315.1 159.9 315.1 153.5 193.3 67.5 182.1 67.5 89 136.8"/>
            </g>
            <polygon class="cls-23" points="223.8 183.9 223.8 211.4 314 159.3 314 131.9 311.4 131.9 226.8 180.6 223.8 183.9"/>
            <g>
              <polygon class="cls-11" points="224.9 212 223.5 213.6 222.1 213.6 220.2 206.9 222.1 186.2 223.3 184.8 224.9 184.6 224.9 212"/>
              <polygon class="cls-24" points="89 136.8 89 109.4 161.3 149.5 222.1 186.2 222.1 213.6 154.6 177 89 136.8"/>
              <polygon class="cls-11" points="214.7 177.2 222.1 186.2 315.1 132.5 315.1 128.9 301.7 125.5 214.7 177.2"/>
              <polygon class="cls-24" points="89 109.4 89 105.8 146.7 132.7 222.1 182.6 222.1 186.2 89 109.4"/>
              <polygon class="cls-6" points="89 105.8 222.1 182.6 315.1 128.9 315.1 122.4 193.3 52.1 182.1 52.1 89 105.8"/>
            </g>
          </g>
          <g>
            <g>
              <polygon class="cls-17" points="214.7 170 222.1 179 315.1 125.3 315.1 121.7 301.7 118.3 214.7 170"/>
              <polygon class="cls-28" points="89 102.2 89 98.6 146.7 125.6 222.1 175.4 222.1 179 89 102.2"/>
              <polygon class="cls-29" points="89 98.6 222.1 175.4 315.1 121.7 315.1 115.2 193.3 44.8 182.1 44.8 89 98.6"/>
            </g>
            <polygon class="cls-23" points="223.8 161.3 223.8 173.1 314 121.1 314 109.2 311.4 109.2 226.8 158 223.8 161.3"/>
            <g>
              <polygon class="cls-17" points="224.9 173.8 223.5 175.4 222.1 175.4 220.2 168.7 222.1 163.6 223.3 162.2 224.9 161.9 224.9 173.8"/>
              <polygon class="cls-28" points="89 98.6 89 86.8 161.3 126.9 222.1 163.6 222.1 175.4 154.6 138.8 89 98.6"/>
              <polygon class="cls-17" points="214.7 154.6 222.1 163.6 315.1 109.9 315.1 106.2 301.7 102.9 214.7 154.6"/>
              <polygon class="cls-28" points="89 86.8 89 83.2 146.7 110.1 222.1 160 222.1 163.6 89 86.8"/>
              <polygon class="cls-29" points="89 83.2 222.1 160 315.1 106.2 315.1 99.8 193.3 29.4 182.1 29.4 89 83.2"/>
              <polygon class="cls-25" points="206.7 63.4 208.9 62.1 190.7 51.6 188.5 52.9 182.3 52.9 180.1 51.6 132.6 79 134.8 80.3 134.8 83.9 132.6 85.2 150.8 95.7 153 94.4 159.2 94.4 161.4 95.7 208.9 68.3 206.7 67 206.7 63.4"/>
              <g>
                <path class="cls-17" d="M165.5,85.8l-7.9,4.5-15.7-9.1,2.2-1.2,13.6,7.9,5.7-3.3,2.2,1.2h0Z"/>
                <path class="cls-17" d="M180.3,77.3l-2.2,1.3-6-1.6-6,3.5,2.8,3.5-2.3,1.3-10-12.4,2.3-1.3,21.4,5.8h0ZM169.1,76.2l-8.3-2.2,3.9,4.8,4.4-2.5h0Z"/>
                <path class="cls-17" d="M185.1,56.3l11.5,11.5-2.2,1.3-14.8-4.9,8.5,8.5-2.2,1.3-20-6.6,2.2-1.3,14.7,4.9-8.5-8.5,2.2-1.3,14.7,4.9-8.5-8.5,2.2-1.3h0Z"/>
              </g>
            </g>
          </g>
          <g>
            <polygon class="cls-26" points="411.1 120.5 403.9 120.5 398.9 123.4 398.9 127.5 412.1 135.1 419.2 135.1 424.3 132.2 424.3 128.1 411.1 120.5"/>
            <polygon class="cls-22" points="396.3 75.7 395.4 79.4 395.9 82.3 398.1 84.3 399.2 83 398.7 79.9 399.2 77.4 399.1 75.9 396.3 75.7"/>
            <polygon class="cls-4" points="408.4 45.1 405.7 46.8 401.5 61.1 400.4 63.5 396.3 75.7 398 76.7 399.1 75.9 404.8 64.6 405.6 59.4 410 46 408.4 45.1"/>
            <polygon class="cls-3" points="411.7 123 401 125.6 400.2 125.3 400.2 125.7 400.4 127.1 404.5 126.8 408.3 125 412.9 124.8 413.5 124.1 413.5 123.7 411.7 123"/>
            <polygon class="cls-3" points="420.2 125.8 416.1 132.5 413 133.2 413 133.7 414.8 134.8 417.4 134.4 419.6 130.8 419.6 128.4 420.2 126.1 420.2 125.8"/>
            <polygon class="cls-10" points="407.4 120 404.8 122.3 400.5 124.2 400.2 125.3 400.4 126.8 404.5 126.5 408.3 124.6 412.9 124.5 413.5 123.7 413.2 120.1 407.4 120"/>
            <polygon class="cls-3" points="404.8 74.4 405.9 88.4 407.8 101 405.9 119.8 410.4 121.4 414.9 120.1 413.6 101.6 414.3 77.8 404.8 74.4"/>
            <polygon class="cls-10" points="415.9 125.8 415.2 128 413.2 131.9 413 133.2 414.8 134.4 417.4 134 419.6 130.4 419.6 128 420.2 125.8 415.9 125.8"/>
            <polygon class="cls-16" points="404.8 74.4 407.8 81.1 411.7 84.1 414.3 102.5 414.3 125.3 417.4 126.9 421.6 125.5 420.5 102.3 423.2 82.4 421.8 76.1 413.6 73.1 404.8 74.4"/>
            <polygon class="cls-2" points="418.3 41.1 417.4 44 418.1 46.8 418.1 47.5 415.6 49.7 411 50 410.4 43.4 413.3 40.3 418.3 41.1"/>
            <polygon class="cls-32" points="421.5 50.8 418.1 46.8 415.5 48.9 411.3 49.3 411 45.5 408.9 45.5 406.3 51.1 403.7 56.6 403.7 58.8 405.2 61.4 405.6 67.4 404.8 74.4 409 77.4 417.8 78 421.8 76.1 419.1 69.4 420.7 62.8 421.5 50.8"/>
            <polygon class="cls-4" points="411 64 413.8 63.6 416.2 61.9 414.2 64.4 411 64"/>
            <polygon class="cls-11" points="410.3 36.7 405.8 38.6 405.8 38.2 411.4 35.7 410.3 36.7"/>
            <polygon class="cls-22" points="407.5 34.3 407.2 36 407.2 40 407.9 46.2 409.7 47.1 415.3 44.2 416.2 42.5 418.1 41.7 419.1 38.7 416.3 34.1 407.5 34.3"/>
            <polygon class="cls-8" points="419.6 39.1 418.5 40.3 418.5 41.9 419.6 43 421.3 43 422.4 41.9 422.4 40.3 421.3 39.1 419.6 39.1"/>
            <polygon class="cls-32" points="418.9 39.4 418.1 40.1 418.1 41.2 418.9 41.9 419.9 41.9 420.7 41.2 420.7 40.1 419.9 39.4 418.9 39.4"/>
            <polygon class="cls-8" points="407.8 35.2 408.9 36.3 411.4 36.4 413.2 38.4 414.8 39.6 415.2 42.2 415.8 39.9 417 38.9 417.9 40 417.4 42.5 417.4 44 418.9 43 419.9 40.5 419.5 36.7 418.3 33 415.4 31.1 410.8 31.3 408.8 32.8 407.7 33.3 406.8 34.4 407.2 36 407.8 35.2"/>
            <g>
              <polygon class="cls-16" points="407.9 40.1 407.9 39.4 407.6 38.7 406.1 37.8 405.8 38.2 405.8 38.9 406.1 39.6 407.6 40.5 407.9 40.1"/>
              <polygon class="cls-5" points="409.2 40.7 407.9 40 407.9 39.5 409.2 40.3 409.2 40.7"/>
              <polygon class="cls-16" points="411.1 40.7 409.5 39.8 409.2 40.2 409.2 40.8 409.5 41.6 411.1 42.5 411.4 42.1 411.4 41.4 411.1 40.7"/>
              <polygon class="cls-11" points="415.8 39.9 411.4 41.8 411.4 41.4 417 38.9 415.8 39.9"/>
            </g>
            <polygon class="cls-22" points="421.4 85 420.2 87.5 420.2 89.5 420.8 90.2 420.2 93 421 93.3 422.8 91.4 424.1 88.2 424 84.6 421.4 85"/>
            <polygon class="cls-4" points="421.5 50.8 419.1 54 420.8 70.5 421.4 85 422.9 85.7 424.1 84.5 425.3 71.6 424.5 52.9 421.5 50.8"/>
            <path class="cls-7" d="M399,76.7c-.2,0-.5,0-.5.3l-13.6,53.3c0,.2,0,.4.3.5h.1c.2,0,.4-.1.4-.3l13.6-53.3c0-.2,0-.4-.3-.5h0Z"/>
            <polygon class="cls-22" points="396.1 78.9 396.5 80.8 398 82.3 398.4 81.8 397.7 80.3 397.9 78 396.1 78.9"/>
          </g>
          <g>
            <polygon class="cls-26" points="129.2 182.5 121.8 182.5 116.6 185.5 116.6 189.8 133.3 199.4 140.6 199.4 145.8 196.4 145.8 192.1 129.2 182.5"/>
            <polygon class="cls-3" points="119.3 188.4 117.7 189.5 117.7 190 122.5 190.3 127.5 188.7 130.6 188.9 133.4 188.6 133.4 188.1 132.4 186.6 119.3 188.4"/>
            <polygon class="cls-35" points="125.9 183.3 123 185.3 118 187.3 117.7 189.5 122.5 189.7 127.5 188.2 130.6 188.4 133.4 188.1 133.4 185.2 132.3 183.2 125.9 183.3"/>
            <polygon class="cls-3" points="138.5 195.2 136 196.3 136 196.8 136.2 198 138.8 198.9 142.2 196.4 142.2 195.9 138.5 195.2"/>
            <polygon class="cls-35" points="136.8 187.7 136.7 190.5 136 196.3 136.2 197.5 138.8 198.4 142.2 195.9 141.8 191.1 141.2 187.1 136.8 187.7"/>
            <polygon class="cls-16" points="123.5 134.5 125.9 183.3 129.6 184.8 132.3 183.2 134 144.8 130.5 137.8 123.5 134.5"/>
            <polygon class="cls-30" points="123.5 134.5 126.8 142.1 131 146.3 136.6 188.1 139.2 189.9 141.8 187.8 142.9 139 142.5 135.9 123.5 134.5"/>
            <polygon class="cls-1" points="126.2 102.5 129.8 102.3 131.5 105.7 128.4 111.9 125.1 112.5 122.5 109.7 126.2 102.5"/>
            <polygon class="cls-2" points="139.4 105 138.4 103.1 138.7 100.2 129.1 102.3 129.4 110.6 139.4 108.8 139.4 105"/>
            <polygon class="cls-14" points="144.4 109.9 139.4 105 135.6 107.8 130.4 109.4 130.4 105.4 130.9 104 129.8 102.5 124.8 108.1 123.5 117.3 123.5 134.5 128.5 138 138.5 138.5 142.5 135.9 141.6 126.2 143.8 118.2 144.4 109.9"/>
            <polygon class="cls-22" points="128.1 92.9 127.4 97.3 128.1 105 130.5 106.2 136.6 102.9 137.1 101.4 138.3 100.8 139.4 98.8 139.2 95.8 128.1 92.9"/>
            <polygon class="cls-3" points="127 93.7 129.1 95.8 128.5 94 132 96.4 131.5 95 133.8 95.8 135.6 98.3 135.5 100.5 136.4 100.4 136.8 98 138.7 97.3 139 99 138.3 100.8 138.4 103.1 140.4 97.1 139.6 91.7 134.9 88.7 130.1 89.4 127.6 91.8 127 93.7"/>
            <polygon class="cls-1" points="139.4 111 142.2 109.4 145.5 110.2 147 117 144.8 119.5 141 118.9 139.4 111"/>
          </g>
          <g>
            <polygon class="cls-22" points="308.9 134.2 307.1 138 307.3 141.8 308.7 144.3 311 143.9 311.1 140.2 312.1 137 311.9 134.5 308.9 134.2"/>
            <polygon class="cls-12" points="312.2 104.3 316.2 101.9 319.6 105 316 121.6 312.3 134.9 310.6 135.3 308.9 134.2 310.6 119.9 312.2 104.3"/>
            <polygon class="cls-26" points="317.3 181.9 309.9 181.9 304.7 184.9 304.7 189.2 321.3 198.8 328.7 198.8 334 195.8 334 191.5 317.3 181.9"/>
            <polygon class="cls-7" points="313.9 182.7 317.3 181.6 320.4 182.5 320.3 184.7 315.1 185.1 313.9 182.7"/>
            <polygon class="cls-3" points="326.6 194.5 324.1 195.7 324.1 196.2 324.3 197.4 326.9 198.3 330.2 195.8 330.2 195.3 326.6 194.5"/>
            <polygon class="cls-32" points="324.9 187.1 324.7 189.9 324.1 195.7 324.3 196.9 326.9 197.7 330.2 195.3 329.9 190.5 329.3 186.5 324.9 187.1"/>
            <polygon class="cls-15" points="316.1 181.6 314.6 183.2 314.6 185.4 316.1 187 318.3 187 319.9 185.4 319.9 183.2 318.3 181.6 316.1 181.6"/>
            <polygon class="cls-3" points="307.3 187.7 305.7 188.9 305.7 189.4 310.6 189.6 315.6 188.1 318.7 188.2 321.5 187.9 321.5 187.4 320.5 186 307.3 187.7"/>
            <polygon class="cls-32" points="313.9 182.7 311 184.7 306 186.7 305.7 188.9 310.6 189.1 315.6 187.6 318.7 187.8 321.5 187.4 321.5 184.6 320.4 182.5 317.7 184.6 313.9 182.7"/>
            <polygon class="cls-7" points="317.9 182.4 317.2 182.9 316.5 182.4 316.5 167.1 317.9 167.1 317.9 182.4"/>
            <polygon class="cls-15" points="315.9 161.3 314.1 163.2 314.1 165.8 315.9 167.7 318.6 167.7 320.5 165.8 320.5 163.2 318.6 161.3 315.9 161.3"/>
            <polygon class="cls-34" points="311.6 133.9 313 163 317.4 165.5 321.2 163.1 322.1 144.1 318.6 137.2 311.6 133.9"/>
            <polygon class="cls-33" points="311.6 133.9 314.9 141.5 319.1 145.7 324.7 187.5 327.3 189.2 329.8 187.1 331 138.3 330.5 135.3 311.6 133.9"/>
            <polygon class="cls-2" points="327.5 104.4 326.4 102.5 326.7 99.5 317.2 101.6 317.5 109.9 327.5 108.2 327.5 104.4"/>
            <polygon class="cls-13" points="333.2 109.9 327.5 104.4 323.8 107.2 318.5 108.7 318.5 104.8 319 103.4 317.9 101.9 312.9 107.4 311.6 116.6 311.6 133.9 316.7 137.3 326.6 137.9 330.5 135.3 329.7 125.6 331.9 117.5 333.2 109.9"/>
            <polygon class="cls-22" points="316.2 92.3 315.5 96.7 316.2 104.4 318.6 105.5 324.7 102.2 325.1 100.8 326.4 100.2 327.5 98.2 327.3 95.2 316.2 92.3"/>
            <polygon class="cls-9" points="313.9 89.2 317.2 94.5 321.9 95.2 323.7 97.7 323.6 99.9 324.4 99.7 324.8 97.4 326.8 96.7 327.1 98.4 326.4 100.2 326.4 102.5 328.5 96.5 328 91 323 88 317.2 89.4 313.9 89.2"/>
            <polygon class="cls-22" points="330.7 146 328.8 148.6 328 152.3 328.8 152.3 329.9 150.7 330.4 152.8 329.7 155.6 330.4 156.1 333.9 152.2 334.3 146 330.7 146"/>
            <polygon class="cls-12" points="327.3 111.8 331 108.7 334.1 110.3 335.5 130.7 334.4 145.9 333.1 147.1 330.5 146 329.6 131.1 327.3 111.8"/>
          </g>
        </g>
      </g>
    </g>
  </g>
</svg>