<?xml version="1.0" encoding="UTF-8"?>
<svg id="Layer_1" data-name="Layer 1" xmlns="http://www.w3.org/2000/svg" version="1.1" viewBox="0 0 688 688">
  <defs>
    <style>
      .cls-1 {
        fill: #ed8f27;
      }

      .cls-1, .cls-2, .cls-3, .cls-4 {
        stroke-width: 0px;
      }

      .cls-2 {
        fill: #300604;
      }

      .cls-3 {
        fill: #fce3c3;
      }

      .cls-4 {
        fill: #231f20;
      }
    </style>
  </defs>
  <g>
    <path class="cls-2" d="M152.7,73.9c-36.4-1.2-67.1,27.4-68.3,63.8-.8,25.4,12.8,48.8,35.1,60.6l-.9,28.6c-.3,8,4.3,15.1,11.1,18.4l-.2,6.1c-.3,6.9,5.2,12.7,12.1,13l9.6.4c6.9.3,12.7-5.2,13-12.1l.2-6.1c7.1-2.8,12.1-9.7,12.4-17.6l.9-28.6c22.9-10.3,38.2-32.8,39.1-58.1.9-36.4-27.6-67-64.1-68.3h0Z"/>
    <path class="cls-2" d="M151.2,265.9l-9.6-.4c-7.5-.2-13.5-6.6-13.2-14.2l.2-5.4c-7-3.7-11.4-11.2-11.1-19.2l.9-27.8c-10.9-5.9-19.9-14.6-26.1-25.3-6.3-10.9-9.4-23.4-9-36,1.3-37.1,32.4-66.2,69.5-65,36.9,1.2,66.2,32.4,65.2,69.5-.4,12.7-4.4,24.8-11.5,35.3-6.9,10.2-16.5,18.3-27.7,23.5l-.9,27.8c-.3,8-5.1,15.2-12.4,18.4l-.2,5.4c-.2,7.5-6.6,13.5-14.2,13.2h0ZM152.7,75.1c-35.8-1.2-65.9,26.9-67.1,62.7-.4,12.2,2.6,24.2,8.7,34.8,6.1,10.5,15,19.1,25.8,24.8l.6.3-1,29.3c-.3,7.3,3.9,14.1,10.5,17.3l.6.3-.2,6.9c-.2,6.3,4.7,11.5,11,11.8l9.6.4c6.3.2,11.5-4.7,11.8-11l.2-6.9.7-.3c6.8-2.8,11.4-9.2,11.6-16.5l1-29.3.7-.3c11.1-5,20.5-13,27.3-23,6.8-10.1,10.6-21.9,11.1-34.1.9-35.8-27.3-65.9-63-67.1h0Z"/>
    <path class="cls-3" d="M151.4,255.4l-9.6-.4c-1.7,0-3.2-1.6-3.1-3.3l.2-4.4,16,.5-.2,4.4c0,1.7-1.6,3.2-3.3,3.1h0Z"/>
    <path class="cls-2" d="M151.3,257.7l-9.6-.4c-3-.1-5.5-2.7-5.4-5.8l.2-6.8,20.7.7-.2,6.8c-.1,3-2.7,5.5-5.8,5.4h0ZM141.2,249.8v2c-.1.4.3.8.8.9l9.6.4c.4,0,.8-.4.9-.8v-2c0,0-11.2-.4-11.2-.4h0Z"/>
    <path class="cls-3" d="M156.4,238.5l-18.4-.7c-5.7-.2-10.3-5-10.1-10.8l.4-11.2,39.4,1.3-.4,11.2c-.3,5.7-5.2,10.3-10.9,10.1h0Z"/>
    <path class="cls-2" d="M156.4,239.7l-18.4-.7c-6.4-.2-11.4-5.6-11.2-12l.4-12.4,41.7,1.4-.4,12.4c-.4,6.4-5.8,11.4-12.1,11.2h0ZM129.4,217.2l-.3,10c-.2,5.1,3.8,9.4,8.9,9.5l18.4.7c5,.2,9.4-3.8,9.7-8.9l.4-10-37-1.2h0Z"/>
    <path class="cls-1" d="M149.5,170.2l-9.4-18.6,19.9.7-10.5,17.9h0Z"/>
    <path class="cls-2" d="M149.4,172.7l-11.2-22.3,23.8.8-12.6,21.5ZM142,152.8l7.5,14.9,8.4-14.4-16-.6h0Z"/>
    <path class="cls-3" d="M171.2,192.7l-2.8,1.1-.5,14.1-14.9-.5.9-27.5c.8-.5,1.4-1.3,1.9-2.1l14.5-24.6c1.3-1.9,1.2-4.5,0-6.6-1.3-2.2-3.6-3.6-6.3-3.7l-27.3-.9c-2.7,0-5.1,1.2-6.5,3.2-1.3,1.9-1.5,4.4-.3,6.5l12.9,25.7c.5.8,1,1.6,1.8,2.2l-.9,27.3-14.9-.5.5-14.1-2.8-1.3c-20.5-9.6-33.2-30.6-32.4-53.2,1-31.2,27.4-55.8,58.6-54.8,31.2,1,55.8,27.4,54.8,58.6-.9,22.6-15,42.5-36.2,50.9h0Z"/>
    <path class="cls-2" d="M169,209.2l-17.3-.6,1-29.3.5-.4c.7-.3,1.2-.9,1.6-1.7l14.4-24.6c1-1.5,1-3.6,0-5.3-1.1-1.8-3.1-3-5.3-3.1l-27.3-.9c-2.2,0-4.3.9-5.5,2.7-1,1.7-1.2,3.6-.3,5.4l12.9,25.7c.4.7.9,1.4,1.5,1.8l.5.4-1,29.1-17.3-.6.5-14.5-2.1-1c-20.9-9.8-33.9-31.1-33.1-54.3,1.1-31.9,27.9-57,59.8-55.9,31.9,1.1,57,27.9,55.9,59.8-.9,23.1-15.4,43.4-36.9,52l-2.1.9-.5,14.5h0ZM154.2,206.3l12.6.4.5-13.8,3.6-1.4c20.6-8.2,34.5-27.8,35.3-49.8,1-30.6-23-56.4-53.7-57.4-30.6-1-56.4,23.1-57.4,53.7-.7,22.2,11.7,42.7,31.7,52.1l3.4,1.6-.5,13.8,12.6.4.9-25.6c-.7-.7-1.2-1.4-1.6-2.1h0c0,0-12.9-25.8-12.9-25.8-1.3-2.4-1.1-5.3.4-7.7,1.7-2.5,4.5-3.9,7.5-3.8l27.3.9c3,0,5.8,1.7,7.3,4.3,1.4,2.5,1.4,5.5,0,7.7l-14.5,24.7c-.5.7-1,1.4-1.8,2l-.8,25.7h0Z"/>
    <path class="cls-1" d="M38.3,123l24.8.9-.3,9.6-24.8-.9.3-9.6Z"/>
    <path class="cls-1" d="M65.1,135.8l-29.5-1,.5-14.3,29.5,1-.5,14.3ZM40.5,130.2l20,.7.2-4.9-20-.7-.2,4.9Z"/>
    <path class="cls-1" d="M79.7,54.4l16.9,18.1-7,6.5-16.9-18.1s7-6.5,7-6.5Z"/>
    <path class="cls-1" d="M89.6,82.4l-20.1-21.6,10.4-9.8,20.1,21.6-10.4,9.8h0ZM76.1,61.1l13.7,14.7,3.6-3.3-13.7-14.7-3.6,3.3h0Z"/>
    <path class="cls-1" d="M207.4,76.2l18.1-16.9,6.5,7-18.1,16.9-6.5-7h0Z"/>
    <path class="cls-1" d="M213.8,86.5l-9.8-10.4,21.6-20.1,9.8,10.4-21.6,20.1ZM210.8,76.3l3.3,3.6,14.7-13.7-3.3-3.6-14.7,13.7h0Z"/>
    <path class="cls-1" d="M237.2,129.6l24.8.9-.3,9.6-24.8-.9.3-9.6Z"/>
    <path class="cls-1" d="M263.9,142.5l-29.5-1,.5-14.3,29.5,1-.5,14.3ZM239.3,136.9l20,.7.2-4.9-20-.7-.2,4.9Z"/>
    <path class="cls-1" d="M148.5,31.3l9.6.3-.9,24.8-9.6-.3s.9-24.8.9-24.8Z"/>
    <path class="cls-1" d="M159.6,58.8l-14.3-.5,1-29.5,14.3.5-1,29.5ZM150.2,53.7l4.9.2.7-20-4.9-.2-.7,20Z"/>
  </g>
  <g>
    <path class="cls-1" d="M187.3,383.9c0,108.6,88,196.7,196.6,196.8,108.6,0,196.7-88,196.8-196.6h0c0-108.8-88.1-196.8-196.7-196.8s-196.7,88.1-196.7,196.7h0Z"/>
    <path class="cls-3" d="M224.1,383.9c0,88.3,71.6,159.8,159.8,159.8s159.8-71.6,159.8-159.8-71.5-159.8-159.8-159.8-159.8,71.5-159.8,159.8h0Z"/>
    <path class="cls-2" d="M384.8,558.7c-96.1,0-174.4-78.2-174.4-174.4s78.2-174.4,174.4-174.4,174.4,78.2,174.4,174.4-78.2,174.4-174.4,174.4h0ZM384.8,227c-86.8,0-157.3,70.6-157.3,157.4s70.6,157.3,157.3,157.3,157.4-70.6,157.4-157.3-70.6-157.4-157.4-157.4h0Z"/>
    <path class="cls-2" d="M384.8,595.6c-116.5,0-211.2-94.8-211.2-211.2s94.8-211.2,211.2-211.2,211.2,94.8,211.2,211.2-94.8,211.2-211.2,211.2ZM384.8,190.1c-107.1,0-194.2,87.1-194.2,194.2s87.1,194.2,194.2,194.2,194.2-87.1,194.2-194.2-87.1-194.2-194.2-194.2h0Z"/>
    <path class="cls-2" d="M384.8,595.6c-116.5,0-211.2-94.8-211.2-211.2s94.8-211.2,211.2-211.2,211.2,94.8,211.2,211.2-94.8,211.2-211.2,211.2ZM384.8,190.1c-107.1,0-194.2,87.1-194.2,194.2s87.1,194.2,194.2,194.2,194.2-87.1,194.2-194.2-87.1-194.2-194.2-194.2h0ZM587.5,234.5c-47.4-64-123.2-102.2-202.7-102.2v-17c84.9,0,165.8,40.8,216.4,109.1l-13.7,10.1h0ZM122.7,337.2c-16.3,78,5.5,160,58.3,219.4l-12.7,11.3c-56.4-63.4-79.7-151-62.3-234.2l16.7,3.5h0Z"/>
    <path class="cls-2" d="M376.3,239.7h17v21.2h-17v-21.2ZM319.8,254.8l10.6,18.4-14.7,8.5-10.6-18.4,14.7-8.5ZM263.8,304.7l18.4,10.6-8.5,14.7-18.4-10.6,8.5-14.7ZM240.1,375.8h21.2v17h-21.2v-17ZM273.6,438.7l8.5,14.7-18.4,10.6-8.5-14.7,18.4-10.6ZM315.7,487l14.7,8.5-10.6,18.4-14.7-8.5,10.6-18.4ZM376.3,507.8h17v21.2h-17v-21.2ZM453.8,487l10.6,18.4-14.7,8.5-10.6-18.4,14.7-8.5ZM495.9,438.7l18.4,10.6-8.5,14.7-18.4-10.6,8.5-14.7ZM508.2,375.8h21.2v17h-21.2v-17ZM505.8,304.7l8.5,14.7-18.4,10.6-8.5-14.7,18.4-10.6ZM449.7,254.8l14.7,8.5-10.6,18.4-14.7-8.5,10.6-18.4Z"/>
    <path class="cls-4" d="M291.3,605.8l11.5,12.6-16.1,14.8,6.7,20.8-16.2,5.2-10-31.2,24.2-22.1h-.1Z"/>
    <path class="cls-2" d="M602.6,256.7l14.8-8.4c22.4,39.7,34.5,84.7,35,130.1l-17,.2c-.4-42.6-11.7-84.7-32.7-121.9h0Z"/>
    <path class="cls-2" d="M384.2,657c-37.5,0-73.9-7.6-108-22.5l6.7-15.4c32,14,66,21.1,101.2,21.1,63,0,123.3-23.3,169.9-65.6,46.3-42,75.3-99.2,81.6-161.1l16.7,1.7c-6.8,66-37.7,127-87,171.8-49.7,45.1-114,69.9-181.2,69.9h.1Z"/>
    <path class="cls-2" d="M460.5,404.5l3.5,7.1c1,2,.2,4.3-1.8,5.3l-16.2,8.1c-4,2-8.8.3-10.7-3.7l-15.5-33h-34.5c-3.9,0-7.3-2.9-7.8-6.8-8.4-58.6-7.9-55-8-56.5,0-9,7.5-16.2,16.6-15.8,8.2.4,14.8,7.1,15.1,15.4.2,8.1-5.7,14.9-13.5,16.1l1.2,8.1h32.1c2.2,0,4,1.8,4,4v7.9c0,2.2-1.8,4-4,4h-29.9l1.1,7.9h32.7c3.1,0,5.9,1.8,7.2,4.5l14.2,30.3,9-4.5c2-1,4.3-.2,5.3,1.8v-.2ZM414.8,396.2h-6.1c-1.9,13.4-13.5,23.7-27.4,23.7s-27.7-12.4-27.7-27.7,5.6-19.2,13.9-24c-.9-6.4-1.7-11.8-2.3-16.4-16,6.4-27.4,22.1-27.4,40.4s19.5,43.5,43.5,43.5,33.1-10.7,39.8-26l-6.4-13.5h.1Z"/>
  </g>
</svg>