<?xml version="1.0" encoding="UTF-8"?>
<svg id="Layer_1" data-name="Layer 1" xmlns="http://www.w3.org/2000/svg" version="1.1" viewBox="0 0 800 800">
  <defs>
    <style>
      .cls-1 {
        fill: #ed8f27;
      }

      .cls-1, .cls-2, .cls-3, .cls-4, .cls-5 {
        stroke-width: 0px;
      }

      .cls-2 {
        fill: #228e9d;
      }

      .cls-3 {
        fill: #9e2500;
      }

      .cls-4 {
        fill: #300604;
      }

      .cls-5 {
        fill: #fce3c3;
      }
    </style>
  </defs>
  <path class="cls-5" d="M697.6,246.9v349.6h-433.2V131h308.3l124.9,115.9Z"/>
  <path class="cls-4" d="M697.6,605.9h-433.2l-9.4-9.4V131l9.4-9.4h308.3l6.4,2.5,124.9,115.9,3,6.9v349.6l-9.4,9.4ZM273.7,587.1h414.5V251l-119.2-110.6h-295.3v446.8h0Z"/>
  <path class="cls-1" d="M572.7,131v115.9h124.9l-124.9-115.9Z"/>
  <path class="cls-4" d="M697.6,256.3h-124.9l-9.4-9.4v-115.9l15.8-6.9,124.9,115.9-6.4,16.2h0ZM582.1,237.5h91.6l-91.6-85v85Z"/>
  <path class="cls-1" d="M161.1,146c0,16.4,13.3,29.7,29.7,29.7h24.7-24.7c-16.4,0-29.7,13.3-29.7,29.7v24.7-24.7c0-16.4-13.3-29.7-29.7-29.7h-24.7,24.7c16.4,0,29.7-13.3,29.7-29.7v-24.7,24.7h0Z"/>
  <path class="cls-1" d="M171.2,230.2h-20.2v-24.7c0-10.8-8.8-19.6-19.6-19.6h-24.7v-20.2h24.7c10.8,0,19.6-8.8,19.6-19.6v-24.7h20.2v24.7c0,10.8,8.8,19.6,19.6,19.6v20.2c-10.8,0-19.6,8.8-19.6,19.6v24.7h0ZM157.9,175.7c1.1,1,2.2,2.1,3.2,3.2,1-1.1,2.1-2.2,3.2-3.2-1.1-1-2.2-2.1-3.2-3.2-1,1.1-2.1,2.2-3.2,3.2ZM215.6,185.8h-24.7v-20.2h24.7v20.2Z"/>
  <path class="cls-3" d="M296.7,269.9l-11.4-4.8c-1.4-.6-2.1-2.3-1.5-3.7l40.2-94.8c1-2.3,4.2-2.3,5.2,0l39.9,94.8c.6,1.4,0,3.1-1.5,3.7l-11.4,4.8c-1.4.6-3.1,0-3.7-1.5l-23.3-55.4c-1-2.3-4.2-2.3-5.2,0l-23.5,55.4c-.6,1.4-2.3,2.1-3.7,1.5h-.1Z"/>
  <path class="cls-3" d="M306.2,228.5h38.9c1.6,0,2.8,1.3,2.8,2.8v12.4c0,1.6-1.3,2.8-2.8,2.8h-38.9c-1.6,0-2.8-1.3-2.8-2.8v-12.4c0-1.6,1.3-2.8,2.8-2.8Z"/>
  <path class="cls-3" d="M390.2,269.9l-11.4-4.8c-1.4-.6-2.1-2.3-1.5-3.7l40.2-94.8c1-2.3,4.2-2.3,5.2,0l39.9,94.8c.6,1.4,0,3.1-1.5,3.7l-11.4,4.8c-1.4.6-3.1,0-3.7-1.5l-23.3-55.4c-1-2.3-4.2-2.3-5.2,0l-23.5,55.4c-.6,1.4-2.3,2.1-3.7,1.5h-.1Z"/>
  <path class="cls-3" d="M399.8,228.5h38.9c1.6,0,2.8,1.3,2.8,2.8v12.4c0,1.6-1.3,2.8-2.8,2.8h-38.9c-1.6,0-2.8-1.3-2.8-2.8v-12.4c0-1.6,1.3-2.8,2.8-2.8Z"/>
  <path class="cls-3" d="M480.1,269.9l-11.4-4.8c-1.4-.6-2.1-2.3-1.5-3.7l40.2-94.8c1-2.3,4.2-2.3,5.2,0l39.9,94.8c.6,1.4,0,3.1-1.5,3.7l-11.4,4.8c-1.4.6-3.1,0-3.7-1.5l-23.3-55.4c-1-2.3-4.2-2.3-5.2,0l-23.5,55.4c-.6,1.4-2.3,2.1-3.7,1.5h-.1Z"/>
  <path class="cls-3" d="M489.7,228.5h38.9c1.6,0,2.8,1.3,2.8,2.8v12.4c0,1.6-1.3,2.8-2.8,2.8h-38.9c-1.6,0-2.8-1.3-2.8-2.8v-12.4c0-1.6,1.3-2.8,2.8-2.8h0Z"/>
  <path class="cls-4" d="M443.9,524.5h-10.4c-10.7-53.2-57.6-92.2-112.9-92.2s-110.4,47-114.9,106.4h-52.4c-34.3,0-62.2,27.9-62.2,62.2s27.9,62.2,62.2,62.2h290.6c38.2,0,69.3-31.1,69.3-69.3s-31.1-69.3-69.3-69.3h0Z"/>
  <path class="cls-2" d="M443.9,640.7H153.3c-22,0-39.9-17.9-39.9-39.9s17.9-39.9,39.9-39.9h63.3l11.5-.7-.4-12.8c0-51.2,41.7-92.9,92.9-92.9s87,35.4,92.3,82.3l1.1,9.9h29.9c25.9,0,47,21.1,47,47s-21.1,47-47,47h0Z"/>
  <path class="cls-4" d="M393.3,548.3h-22.3c0-28.3-23-51.2-51.2-51.2v-22.3c40.6,0,73.5,33,73.5,73.5ZM168.5,433.2h22.3v52.5h-22.3v-52.5ZM120.3,355.4h22.3v93.6h-22.3v-93.6ZM120.3,463.3h22.3v29.1h-22.3v-29.1ZM120.3,509.4h22.3v17.1h-22.3v-17.1ZM168.5,271.1h22.3v100.6h-22.3v-100.6ZM424.1,350.1h24v36.3h-24v-36.3ZM314.4,347.7h24v34h-24v-34ZM373.4,365.1h24v17h-24v-17ZM342.6,675.1h99.2v22.3h-99.2v-22.3h0ZM541.9,332.1h106.6v24h-106.6v-24ZM541.9,385.1h106.6v24h-106.6v-24Z"/>
  <path class="cls-4" d="M541.9,461.5h106.6v24h-106.6v-24Z"/>
  <path class="cls-4" d="M541.9,514.5h106.6v24h-106.6v-24Z"/>
  <path class="cls-4" d="M527.5,622.7h69.5v22.3h-69.5v-22.3Z"/>
  <path class="cls-1" d="M118.8,261c0,6.1,4.9,11,11,11h9.1-9.1c-6.1,0-11,4.9-11,11v9.1-9.1c0-6.1-4.9-11-11-11h-9.1,9.1c6.1,0,11-4.9,11-11v-9.1,9.1Z"/>
  <path class="cls-1" d="M122.7,292.1h-7.7v-9.1c0-3.9-3.2-7.1-7.1-7.1h-9.1v-7.7h9.1c3.9,0,7.1-3.2,7.1-7.1v-9.1h7.7v9.1c0,3.9,3.2,7.1,7.1,7.1v7.7c-3.9,0-7.1,3.2-7.1,7.1,0,0,0,9.1,0,9.1ZM117.8,272c.4.3.7.7,1,1,.3-.4.7-.7,1-1-.4-.3-.7-.7-1-1-.3.4-.7.7-1,1ZM138.9,275.9h-9.1v-7.7h9.1v7.7Z"/>
</svg>