<?xml version="1.0" encoding="UTF-8"?>
<svg id="Layer_1" data-name="Layer 1" xmlns="http://www.w3.org/2000/svg" version="1.1" viewBox="0 0 294 148.8">
  <defs>
    <style>
      .cls-1 {
        fill: #46802d;
      }

      .cls-1, .cls-2, .cls-3 {
        stroke-width: 0px;
      }

      .cls-2 {
        fill: #aa0e10;
      }

      .cls-3 {
        fill: #3953a4;
      }
    </style>
  </defs>
  <path class="cls-1" d="M122.6,120.4l15.1-27.2c1-1.7,3-2.7,5-2.7h7c0,.1.5.1.5.1,2.1,0,4.1,1.2,5.1,3l15.2,27.3c2.2,3.9-.6,8.6-5.1,8.6h-1.4l-36.3-.3c-4.6,0-7.3-5-4.9-9h-.1Z"/>
  <path class="cls-3" d="M183.2,120.4l15.1-27.2c1-1.7,3-2.7,5-2.7h7c0,.1.5.1.5.1,2.1,0,4.1,1.2,5.1,3l15.2,27.3c2.2,3.9-.6,8.6-5.1,8.6h-1.4l-36.3-.3c-4.6,0-7.3-5-4.9-8.9h-.1Z"/>
  <path class="cls-1" d="M218.8,143.6h-25.7c-1.8,0-3.3-.9-4.2-2.4v-.4c-.1,0-27.7-49.8-27.7-49.8l-13.5-24.3-.5-1-18.4-33.1h0l1.4-2.8,12-21.5s0-.3.1-.3h0c.8-1.8,2.4-2.8,4.4-2.8h.8c1.9,0,3.6,1.2,4.4,2.8h0c0,.1,0,.3.1.4l12,21.5,58.6,105.7.5,1c1.8,3.2-.5,7.2-4.2,7.2h.1Z"/>
  <path class="cls-3" d="M279,143.6h-25.7c-1.8,0-3.3-.9-4.2-2.4v-.4c-.1,0-27.7-49.8-27.7-49.8l-13.5-24.3-.5-1-18.4-33.1h0l1.4-2.8,12-21.5s0-.3.1-.3h0c.8-1.8,2.4-2.8,4.4-2.8h.8c1.9,0,3.6,1.2,4.4,2.8h0c0,.1,0,.3.1.4l12,21.5,58.6,105.7.5,1c1.8,3.2-.5,7.2-4.2,7.2h.1Z"/>
  <path class="cls-2" d="M60.9,61.1l12.9,23.2c.8,1.4.8,3.2,0,4.6l-28.6,51.7v.4c-1,1.5-2.7,2.4-4.4,2.4H15.1c-3.7,0-6.1-4-4.2-7.2l.5-1L52.5,60.9c1.8-3.3,6.6-3.3,8.5,0h0ZM158.5,143.6h-25.7c-1.8,0-3.3-.9-4.2-2.4v-.4c-.1,0-27.7-49.8-27.7-49.8l-13.5-24.3-.5-1-18.4-33.1h0l1.4-2.8,12-21.5s0-.3.1-.3h0c.8-1.8,2.4-2.8,4.4-2.8h.8c1.9,0,3.6,1.2,4.4,2.8h0c0,.1,0,.3.1.4l12,21.5,58.6,105.7.5,1c1.8,3.2-.5,7.2-4.2,7.2h.1Z"/>
  <path class="cls-2" d="M62.9,120.4l15.1-27.2c1-1.7,3-2.7,5-2.7h7c0,.1.5.1.5.1,2.1,0,4.1,1.2,5.1,3l15.2,27.3c2.2,3.9-.6,8.6-5.1,8.6h-1.4l-36.3-.3c-4.6,0-7.3-5-4.9-9h-.1Z"/>
</svg>