<?xml version="1.0" encoding="UTF-8"?>
<svg id="Layer_1" xmlns="http://www.w3.org/2000/svg" version="1.1" viewBox="0 0 448 512">
  <!-- Generator: Adobe Illustrator 29.0.1, SVG Export Plug-In . SVG Version: 2.1.0 Build 192)  -->
  <defs>
    <style>
      .st0 {
        fill: #fff;
      }
    </style>
  </defs>
  <path class="st0" d="M416,208h-144V64c0-17.7-14.3-32-32-32h-32c-17.7,0-32,14.3-32,32v144H32c-17.7,0-32,14.3-32,32v32c0,17.7,14.3,32,32,32h144v144c0,17.7,14.3,32,32,32h32c17.7,0,32-14.3,32-32v-144h144c17.7,0,32-14.3,32-32v-32c0-17.7-14.3-32-32-32Z"/>
</svg>