<svg xmlns="http://www.w3.org/2000/svg" viewBox="0 0 384 512"><!--!Font Awesome Pro 6.7.1 by @fontawesome - https://fontawesome.com License - https://fontawesome.com/license (Commercial License) Copyright 2024 Fonticons, Inc.--><path d="M184 208V180H148v36h28A8 8 0 0 0 184 208zm-44-72H112a8 8 0 0 0 -8 8v28h36zm-28 80h28V180H104v28A8 8 0 0 0 112 216zm72-72a8 8 0 0 0 -8-8H148v36h36zM112 320h64a8 8 0 0 0 8-8V248a8 8 0 0 0 -8-8H112a8 8 0 0 0 -8 8v64A8 8 0 0 0 112 320zM280 208V180H244v36h28A8 8 0 0 0 280 208zm0-64a8 8 0 0 0 -8-8H244v36h36zm-72 72h28V180H200v28A8 8 0 0 0 208 216zm28-80H208a8 8 0 0 0 -8 8v28h36zM368 464H352V88a24 24 0 0 0 -24-24h-8V48a16 16 0 0 0 -16-16H216V16A16 16 0 0 0 200 0H184a16 16 0 0 0 -16 16V32H80A16 16 0 0 0 64 48V64H56A24 24 0 0 0 32 88V464H16A16 16 0 0 0 0 480v16a16 16 0 0 0 16 16H368a16 16 0 0 0 16-16V480A16 16 0 0 0 368 464zm-64 0H80V112H304z"/></svg>