<?xml version="1.0" encoding="UTF-8"?>
<svg id="Layer_1" data-name="Layer 1" xmlns="http://www.w3.org/2000/svg" version="1.1" viewBox="0 0 800 800">
  <defs>
    <style>
      .cls-1 {
        fill: #ed8f27;
      }

      .cls-1, .cls-2, .cls-3, .cls-4, .cls-5 {
        stroke-width: 0px;
      }

      .cls-2 {
        fill: #228e9d;
      }

      .cls-3 {
        fill: #300604;
      }

      .cls-4 {
        fill: #fce3c3;
      }

      .cls-5 {
        fill: #b12800;
      }
    </style>
  </defs>
  <g>
    <path class="cls-4" d="M80.4,336.9l18-75.6,48-45.8,70.1-32.3h61.1l40.1,19.3,22.2,29.7-22.2,31.8-63.6,37.4-60.4,24.6-86.3,17.1-27-6.3Z"/>
    <path class="cls-1" d="M420,256.4c-10.7,5.2-15.2,18.2-10,28.9l7.9,16.2-7.9-16.2c-5.2-10.7-18.2-15.2-28.9-10l-16.2,7.9,16.2-7.9c10.7-5.2,15.2-18.2,10-28.9l-7.9-16.2,7.9,16.2c5.2,10.7,18.2,15.2,28.9,10l16.2-7.9-16.2,7.9Z"/>
    <path class="cls-1" d="M411.1,304.9l-7.9-16.2,6.8-3.3-6.8,3.3c-2.4-4.9-7.2-7.9-12.6-7.9s-4.2.5-6.1,1.4l-16.2,7.9-6.7-13.7,16.2-7.9,3.3,6.8-3.3-6.8c7-3.4,9.9-11.8,6.5-18.8l-7.9-16.2,13.7-6.7,7.9,16.2-6.8,3.3,6.8-3.3c2.4,4.9,7.2,7.9,12.6,7.9s4.2-.5,6.1-1.4l16.2-7.9,6.7,13.7-16.2,7.9c-7,3.4-9.9,11.8-6.5,18.8l7.9,16.2-13.7,6.7h0ZM398.8,266.8c.9.3,1.8.6,2.7.9.3-.9.6-1.8.9-2.7-.9-.3-1.8-.6-2.7-.9-.3.9-.6,1.8-.9,2.7Z"/>
    <path class="cls-3" d="M96.8,347.4h0c-6.2,0-9.7-.2-9.7-.2l-6.5-4.6c-7.8-18.6-6.7-41.7,3.1-65.3,16-38.2,51.3-71.1,94.3-88.1,23-9.1,47.2-13.9,70.2-13.9,47.6,0,86.1,20.7,98.1,52.8,10.4,28.1-55,68.7-120.3,94.5-56.7,22.4-109.2,24.9-129.1,24.9h0ZM93,332.1c1.1,0,2.4,0,3.8,0,19.1,0,69.3-2.3,123.5-23.8,78.7-31.1,115-65.9,111.6-75-9.7-26-42.6-42.9-83.8-42.9s-43.4,4.4-64.6,12.8c-38.7,15.3-71.6,45.9-85.8,79.9-7.5,17.8-9.1,35-4.8,49h0Z"/>
    <path class="cls-4" d="M79.3,343l12.8,238.9-8.8,29.3,90.2,37.5,112.1,7.6,9.6-46.4,62.1-8.5,7.6-89.5,32.3-7.4-19.2-79.3-20.7-23v-63l-278,3.8Z"/>
    <path class="cls-3" d="M189.5,230.4l-5.6-14.2c37.7-14.9,76-19.4,102.4-11.9l-4.1,14.7c-23-6.5-58.4-2.1-92.6,11.4h0Z"/>
    <path class="cls-3" d="M242.9,307.2c-6.5,2.9-13.1,5.7-19.8,8.3-60.7,24-115.8,33.3-135.6,24.1-.4,1.1-.7,2.3-.7,3.5,0,20,62.2,36.2,139,36.2s139-16.2,139-36.2-53.3-33.7-122-35.9Z"/>
    <path class="cls-3" d="M225.9,386.8c-70.6,0-146.6-13.7-146.6-43.8s.4-4.1,1.1-6.1l2.8-7.8,7.5,3.5c2.7,1.3,8.1,2.8,18.3,2.8,26.9,0,68.4-10.1,111.2-27.1,6.5-2.6,13-5.3,19.5-8.2l1.6-.7h1.7c59.7,1.9,129.4,14.5,129.4,43.5s-76,43.8-146.6,43.8h0ZM101,350.3c15.4,9.7,58.3,21.3,125,21.3s131.4-18.9,131.4-28.5-38.8-25.6-112.9-28.2c-6.1,2.7-12.2,5.2-18.4,7.7-48.9,19.4-97,30.1-125,27.8h0Z"/>
    <path class="cls-3" d="M79.3,343h15.2v305.7h-15.2v-305.7ZM295.2,609.9l14.4,4.9-12.3,36.3-14.4-4.9,12.3-36.3Z"/>
    <path class="cls-5" d="M290,648.8h-116.5l-86.6-28.3-30.9,55.5,134.3,16.1,115.2-16.1-15.5-27.1Z"/>
    <path class="cls-3" d="M190.4,699.7l-146.6-17.6,39.5-70.8,91.4,29.9h119.7l23.3,40.7-127.3,17.8ZM68.2,669.7l122.1,14.7,103.1-14.4-7.7-13.6h-113.3l-81.8-26.7-22.3,40.1h0Z"/>
    <path class="cls-1" d="M177.7,391.7s-66.5-10.4-96.8-29.4c-7.9-5-17.5.3-19.7,11-6.1,29.7-10.1,87.1,19.9,166.4l35.6,6.6s-3.2-42.7,16.5-65.4c19.6-22.6,49.6-40.4,44.5-89.1h0Z"/>
    <path class="cls-3" d="M121.1,550.9l-42.8-7.9-.8-2.1c-30.8-81.6-25.8-140.6-20.1-168.5,1.4-6.8,5.6-12.3,11.1-14.7,4.7-2,10-1.6,14.5,1.2,29.2,18.3,94.6,28.8,95.3,28.9l3,.5.3,3c4.4,41.4-15.8,61.8-33.7,79.8-4.1,4.2-8.1,8.1-11.7,12.3-18.4,21.2-15.5,62.1-15.5,62.5l.4,5h0ZM84,536.1l28.7,5.3c-.2-12.3,1-44.1,17.6-63.2,3.8-4.3,8-8.6,12-12.6,17-17.1,34.6-34.8,31.8-70.5-13.5-2.3-68-12.4-95.2-29.5-2.3-1.5-4.9-1.7-7.3-.7-3.2,1.4-5.7,4.8-6.5,9.1-12.7,61.9,6,127.3,19,162.1h0Z"/>
    <path class="cls-3" d="M123.6,555.1l-46.6-8.6-1.4-3.7c-31.3-82.8-26.2-143-20.3-171.5,2.2-10.9,10.2-18.6,19.3-18.6s6.2.9,9.1,2.7c29,18.2,94.1,28.6,94.8,28.7l4.7.7.6,5.8c4.7,43.8-16.3,64.9-34.8,83.5-4.1,4.1-8,8-11.5,12.1-17.2,19.9-14.5,58.7-14.5,59.1l.7,9.7h0ZM85.3,532.6l25.1,4.6c.2-14.9,2.8-43.8,18.6-62.1,3.8-4.4,8.1-8.7,12.1-12.8,16.6-16.7,32.3-32.5,30.8-64-16.1-2.8-67.5-12.8-93.9-29.4-1.1-.7-2.3-1.1-3.6-1.1-3,0-6.4,2.2-7.4,7.1-5.4,26.1-10,81,18.1,157.5h0Z"/>
    <path class="cls-3" d="M125.7,557.4l-50.2-9.2-1.8-4.7c-31.5-83.2-26.3-143.8-20.4-172.5,2.4-11.9,11.2-20.1,21.2-20.1s7,1,10.2,3c28.4,17.8,93.4,28.3,94,28.4l6.2,1,.8,7.3c4.8,44.7-16.6,66.2-35.4,85.1-4.1,4.1-7.9,8-11.4,12-8.6,9.9-11.9,24.8-13.2,35.7-1.5,12.1-.8,21.9-.8,22l.9,12.2h0ZM78.4,544.8l43.1,7.9-.5-7.1c0,0-.7-10.1.8-22.6,2-16.6,6.8-29.3,14.2-37.9,3.6-4.1,7.5-8.1,11.6-12.2,18.2-18.3,38.9-39.1,34.3-82l-.5-4.3-3.2-.5c-2.7-.4-66.5-10.7-95.5-28.9-2.6-1.6-5.3-2.4-8.1-2.4-8.2,0-15.3,7-17.4,17-5.8,28.3-10.9,88.1,20.2,170.4l1,2.7h0ZM112.4,539.6l-28.5-5.2-.4-1c-28.4-77.1-23.6-132.5-18.2-158.6,1.2-6,5.6-8.7,9.3-8.7s3.2.5,4.6,1.4c26.2,16.4,78,26.4,93.2,29.1l1.5.3v1.6c1.6,32.3-14.4,48.4-31.3,65.5-4.1,4.1-8.3,8.3-12.1,12.7-15.3,17.6-17.9,45.7-18.1,60.8v2.3s0,0,0,0ZM86.8,530.9l21.8,4c.5-16.1,3.7-43.3,19-61,3.9-4.5,8.1-8.7,12.2-12.8,16.1-16.2,31.2-31.4,30.4-61-17.1-3.1-67.1-13.1-93-29.4-.8-.5-1.7-.8-2.5-.8-2.2,0-4.7,1.7-5.5,5.6-5.3,25.6-9.9,79.8,17.7,155.4h0Z"/>
    <path class="cls-1" d="M435.6,372.8c0,6.1,5,11.1,11.1,11.1h9.2-9.2c-6.1,0-11.1,5-11.1,11.1v9.2-9.2c0-6.1-5-11.1-11.1-11.1h-9.2,9.2c6.1,0,11.1-5,11.1-11.1v-9.2,9.2Z"/>
    <path class="cls-1" d="M443.2,404.3h-15.2v-9.2c0-1.9-1.6-3.5-3.5-3.5h-9.3v-15.2h9.3c1.9,0,3.5-1.6,3.5-3.5v-9.2h15.2v9.2c0,1.9,1.6,3.5,3.5,3.5v15.2c-1.9,0-3.5,1.6-3.5,3.5v9.2ZM455.9,391.5h-9.3v-15.2h9.3v15.2Z"/>
    <path class="cls-1" d="M165,263.1c-1,5.6,2.7,11,8.3,12l8.4,1.5-8.4-1.5c-5.6-1-11,2.7-12,8.3l-1.5,8.4,1.5-8.4c1-5.6-2.7-11-8.3-12l-8.4-1.5,8.4,1.5c5.6,1,11-2.7,12-8.3l1.5-8.4-1.5,8.4Z"/>
    <path class="cls-1" d="M167.3,293.2l-15-2.7,1.5-8.4,7.5,1.4-7.5-1.4c.1-.7,0-1.4-.4-2-.4-.6-1-1-1.7-1.1l1.3-7.5-1.4,7.5-8.4-1.5,2.7-15,8.4,1.5h.1c1.7,0,2.8-.9,3-2.2l1.5-8.4,15,2.7-1.5,8.4c-.1.7,0,1.4.4,2,.4.6,1,1,1.7,1.1l-1.3,7.5,1.3-7.5,8.4,1.5-2.7,15-8.4-1.5c-1.9,0-2.9.9-3.1,2.2l-1.5,8.4h0Z"/>
    <path class="cls-1" d="M90.2,142.1c2.3,7.6,10.4,11.8,18,9.5l11.4-3.5-11.4,3.5c-7.6,2.3-11.8,10.4-9.5,18l3.5,11.4-3.5-11.4c-2.3-7.6-10.4-11.8-18-9.5l-11.4,3.5,11.4-3.5c7.6-2.3,11.8-10.4,9.5-18l-3.5-11.4,3.5,11.4h0Z"/>
    <path class="cls-1" d="M94.9,183.3l-3.5-11.4c-1.1-3.5-4.9-5.6-8.5-4.5l-11.4,3.5-4.5-14.6,11.4-3.5,2.3,7.3-2.2-7.3c3.6-1.1,5.6-4.9,4.5-8.5l-3.5-11.4,14.6-4.5,3.5,11.4-7.3,2.2,7.3-2.2c.9,2.8,3.5,4.8,6.5,4.8.7,0,1.3-.1,2-.3l11.4-3.5,4.5,14.6-11.4,3.5c-3.6,1.1-5.6,4.9-4.5,8.5l3.5,11.4-14.6,4.5h0Z"/>
    <path class="cls-1" d="M327.2,115.5c-1,7.9,4.5,15.1,12.4,16.1l11.9,1.5-11.9-1.5c-7.9-1-15.1,4.5-16.1,12.4l-1.5,11.9,1.5-11.9c1-7.9-4.5-15.1-12.4-16.1l-11.9-1.5,11.9,1.5c7.9,1,15.1-4.5,16.1-12.4l1.5-11.9-1.5,11.9h0Z"/>
    <path class="cls-1" d="M329.4,156.8l-15.1-2,1.5-11.9,7.5,1-7.5-1c.2-1.8-.2-3.6-1.3-5-1.1-1.4-2.7-2.4-4.5-2.6l1-7.5-1,7.5-11.9-1.6,2-15.1,11.9,1.6c3.7.5,7.1-2.2,7.6-5.8l1.5-11.9,15.1,2-1.5,11.9c-.2,1.8.2,3.6,1.3,5,1.1,1.4,2.7,2.4,4.5,2.6l-1,7.5,1-7.5,11.9,1.6-2,15.1-11.9-1.6c-3.7-.5-7.1,2.2-7.6,5.8l-1.5,11.9Z"/>
    <path class="cls-3" d="M340,668.3h-42.1v8.7l-53.3,7.5h-61.9v15.2h182.5l-25.3-31.4ZM295.7,466.4h-15.9c-3.8,0-6.9-3.1-6.9-6.9v-29.6c0-3.8,3.1-6.9,6.9-6.9h15.9c3.8,0,6.9,3.1,6.9,6.9v29.6c0,3.8-3.1,6.9-6.9,6.9ZM354.4,520.4l-3.2-16.9,38.3-7.3-38-92.4v-58.4h17.2v55l44.7,108.8-58.9,11.3Z"/>
    <path class="cls-3" d="M336.9,618.8c-18.7,0-41.1-1.3-42.1-1.3l.9-14.9c.3,0,25.5,1.4,44.2,1.3,3.4,0,5-1.4,6-2.4,4.2-4.4,4.6-14.2,4.5-16.5v-.4s0-.4,0-.4l3.8-75.2,14.9.8-3.8,74.9c.1,3.1.1,17.9-8.5,27.1-4.3,4.6-10.1,7-16.8,7.1-1,0-2,0-3.1,0h0Z"/>
  </g>
  <g>
    <path class="cls-4" d="M723,468.7h-243.7s-14.3,4.5-14.3,31.5,14.3,32.3,14.3,32.3h243.7s-12.3-5.3-12.3-31.9,12.3-31.9,12.3-31.9Z"/>
    <path class="cls-3" d="M732.2,537.5h-253.7l-.8-.3c-.7-.3-17.5-6.8-17.5-37s17-36.1,17.7-36.3l.7-.2h253.6v9.9h-251.8c-2.3,1.2-10.3,6.8-10.3,26.6s8,25.9,10.4,27.3h251.7v9.9Z"/>
    <path class="cls-1" d="M501.6,483.7h92v7.5h-92v-7.5ZM554.7,497.6h137.2v9.2h-137.2v-9.2ZM503.9,512.9h60v9.2h-60v-9.2Z"/>
    <path class="cls-4" d="M760.4,546.3h-243.7s-14.3,4.5-14.3,31.5,14.3,32.3,14.3,32.3h243.7s-12.3-5.3-12.3-31.9,12.3-31.9,12.3-31.9h0Z"/>
    <path class="cls-3" d="M769.5,615.1h-253.7l-.8-.3c-.7-.3-17.5-6.8-17.5-37s17-36.1,17.7-36.3l.7-.2h253.6v9.9h-251.8c-2.3,1.2-10.3,6.8-10.3,26.6s8,25.9,10.4,27.3h251.7v9.9Z"/>
    <path class="cls-1" d="M540.6,589.4h171.7v9.2h-171.7v-9.2Z"/>
    <path class="cls-4" d="M714.6,623.6h-243.7s-14.3,4.5-14.3,31.5,14.3,32.3,14.3,32.3h243.7s-12.3-5.3-12.3-31.9,12.3-31.9,12.3-31.9Z"/>
    <path class="cls-3" d="M723.8,692.5h-253.7l-.8-.3c-.7-.3-17.5-6.8-17.5-37s17-36.1,17.7-36.3l.7-.2h253.6v9.9h-251.8c-2.3,1.2-10.3,6.8-10.3,26.6s8,25.9,10.4,27.3h251.7v9.9h0Z"/>
    <path class="cls-4" d="M505.1,655.9l-20,58.6,61-22.9-41-35.7Z"/>
    <path class="cls-5" d="M524.5,670l21.7,21.6,130.7-130.4-20.5-19.1-131.8,127.9Z"/>
    <path class="cls-1" d="M506.2,652.1l21.7,21.6,130.7-130.4-20.5-19.1-131.8,127.9Z"/>
    <path class="cls-2" d="M656.3,505.2l23.4-22.8,16.4-1.2,21,21.3,1.2,16.7-26.3,26.9-35.6-41Z"/>
    <path class="cls-3" d="M543.8,694.5l-38.6-38.6c-1.3-1.3-1.3-3.5,0-4.9,0,0,0,0,0,0l168-168c4.5-4.5,10.6-6.8,17-6.4,5.6.3,10.7,3,14.7,6.9l11.8,11.8c8.6,8.6,8.6,22.5,0,31.1l-168,168c-1.3,1.3-3.5,1.3-4.9,0h0ZM513.1,653.5l33.1,33.1,165.3-165.3c5.7-5.7,5.7-15,0-20.7l-12.4-12.4c-2.8-2.8-6.4-4.3-10.4-4.3s-7.6,1.5-10.4,4.3l-165.3,165.3Z"/>
    <path class="cls-3" d="M676.8,561.2l-38.3-38.3,16.2-16.2,38.3,38.3-16.2,16.2Z"/>
    <path class="cls-3" d="M676.8,566.4l-43.5-43.5,21.4-21.4,43.5,43.5-21.4,21.4ZM643.7,522.9l33.1,33.1,11-11-33.1-33.1-11,11Z"/>
    <path class="cls-3" d="M696.2,525.6l-5.2-5.2,7.2-7.2c1.3-1.3,1.3-3.4,0-4.7l-3.5-3.5,5.2-5.2,3.5,3.5c4.2,4.2,4.2,10.9,0,15.1l-7.2,7.2h0ZM653.7,540.8l5.2,5.2-129.3,129.3-5.2-5.2,129.3-129.3Z"/>
    <path class="cls-3" d="M478.9,720.8l25.6-68.6,6.9,2.6-20,53.5,53.5-20,2.6,6.9-68.6,25.6Z"/>
    <path class="cls-3" d="M485.1,714.5l22.8-10.3-12.5-12.5-10.3,22.8Z"/>
    <path class="cls-3" d="M477.8,721.9l16.5-36.5,20,20-36.5,16.5ZM496.6,698.1l-4.1,9.1,9.1-4.1-5-5h0Z"/>
  </g>
</svg>